<?xml version="1.0" encoding="UTF-8" standalone="no"?>
<!-- Generator: Adobe Illustrator 19.2.1, SVG Export Plug-In . SVG Version: 6.00 Build 0)  -->

<svg
   xmlns:dc="http://purl.org/dc/elements/1.1/"
   xmlns:cc="http://creativecommons.org/ns#"
   xmlns:rdf="http://www.w3.org/1999/02/22-rdf-syntax-ns#"
   xmlns:svg="http://www.w3.org/2000/svg"
   xmlns="http://www.w3.org/2000/svg"
   xmlns:sodipodi="http://sodipodi.sourceforge.net/DTD/sodipodi-0.dtd"
   xmlns:inkscape="http://www.inkscape.org/namespaces/inkscape"
   version="1.1"
   id="Layer_1"
   x="0px"
   y="0px"
   viewBox="0 0 172.39999 61.599998"
   xml:space="preserve"
   sodipodi:docname="cornell-stacked.svg"
   width="172.39999"
   height="61.599998"
   inkscape:version="0.92.1 r15371"><metadata
     id="metadata135"><rdf:RDF><cc:Work
         rdf:about=""><dc:format>image/svg+xml</dc:format><dc:type
           rdf:resource="http://purl.org/dc/dcmitype/StillImage" /><dc:title></dc:title></cc:Work></rdf:RDF></metadata><defs
     id="defs133" /><sodipodi:namedview
     pagecolor="#ffffff"
     bordercolor="#666666"
     borderopacity="1"
     objecttolerance="10"
     gridtolerance="10"
     guidetolerance="10"
     inkscape:pageopacity="0"
     inkscape:pageshadow="2"
     inkscape:window-width="1920"
     inkscape:window-height="1017"
     id="namedview131"
     showgrid="false"
     fit-margin-top="0"
     fit-margin-left="0"
     fit-margin-right="0"
     fit-margin-bottom="0"
     inkscape:zoom="3.320076"
     inkscape:cx="63.177821"
     inkscape:cy="40.604266"
     inkscape:window-x="-8"
     inkscape:window-y="-8"
     inkscape:window-maximized="1"
     inkscape:current-layer="g128" /><style
     type="text/css"
     id="style2">
	.st0{fill:#B32025;}
</style><g
     id="g128"><g
       id="g90"><path
         class="st0"
         d="m 23.6,47.2 c 3.5,2.8 7,4.2 7.1,4.3 l 0.3,0.1 0.3,-0.1 c 0.1,-0.1 3.6,-1.5 7.1,-4.3 4.7,-3.7 7.2,-7.9 7.2,-12.2 V 15.5 H 16.4 v 19.1 c 0,4.6 2.5,8.9 7.2,12.6 z m 6.7,-5.9 c -0.1,-0.1 -0.3,-0.1 -0.5,-0.1 0,0 0,0 0,0 -0.7,0 -1.2,0 -1.8,0.1 -0.6,0.1 -1.1,0.1 -2,0.1 -0.4,0 -0.7,0 -1,0 v -9.2 c 0,0 0.1,0 0.1,0 0.4,0 0.8,0 1.3,0 0.5,0 1,-0.1 1.5,-0.1 0.3,0 0.7,-0.1 1,-0.1 0.6,-0.1 1.2,0 1.2,0 0.1,0 0.1,0 0.1,0 0.1,0.1 0.1,9.3 0.1,9.3 z m 13.9,-6.2 c 0,8 -9.8,13.4 -12.7,14.8 v -7.3 c 0.1,-0.1 0.1,-0.1 0.1,-0.2 0.1,-0.2 0.2,-0.3 0.5,-0.3 0.7,0 1.2,0 1.7,0.1 0.5,0 1.2,0.1 2,0.1 0.9,0 1.5,0 1.6,0 h 0.5 V 39.6 H 39 v -1.4 h -1 v -2.6 h 1.1 V 34.2 H 38 v -2.9 h -0.5 c -0.2,0 -0.4,0 -0.6,0 -0.4,0 -0.8,0 -1.3,0 -0.4,0 -0.9,-0.1 -1.5,-0.1 -0.3,0 -0.7,-0.1 -1,-0.1 -0.8,-0.1 -1.5,0.1 -1.5,0.1 0,0 0,0 0,0 v -2.8 h 12.7 z m -12.7,6.2 v -9.2 c 0.1,0 0.1,-0.1 0.3,-0.1 0,0 0.6,-0.1 1.2,0 0.4,0 0.7,0.1 1,0.1 0.6,0.1 1.1,0.1 1.5,0.1 0.5,0 0.8,0 1.2,0 0.1,0 0.2,0 0.3,0 v 9.2 c -0.3,0 -0.6,0 -1,0 -0.8,0 -1.4,-0.1 -2,-0.1 -0.6,-0.1 -1.1,-0.1 -1.8,-0.1 -0.3,0 -0.5,0 -0.7,0.1 z M 17.7,17 h 26.4 v 9.9 H 17.7 Z m 0,11.3 H 30.3 V 31 c -0.2,0 -0.8,-0.1 -1.4,0 -0.4,0 -0.7,0.1 -1,0.1 -0.6,0.1 -1,0.1 -1.5,0.1 -0.5,0 -1,0 -1.3,0 -0.3,0 -0.5,0 -0.7,0 h -0.5 v 2.7 h -1.2 v 1.4 h 1.2 V 38 h -1.2 v 1.4 h 1.2 v 3 h 0.5 c 0,0 0.7,0 1.6,0 0.9,0 1.5,-0.1 2,-0.1 0.6,-0.1 1,-0.1 1.7,-0.1 0.3,0 0.3,0.1 0.5,0.3 0,0 0,0.1 0.1,0.1 v 7.3 C 27.3,48.4 17.7,43.1 17.7,34.8 Z"
         id="path4"
         inkscape:connector-curvature="0"
         style="fill:#b32025" /><path
         class="st0"
         d="m 28.8,18 h -7.4 v 0.5 c 0,1.6 0,4.3 0,4.5 0,0.6 0.4,1.1 1.1,1.5 0.9,0.6 2.2,1.4 2.3,1.4 l 0.3,0.1 0.3,-0.1 c 0.1,0 1.5,-0.8 2.4,-1.4 1,-0.7 1.1,-1.3 1.1,-1.5 0,-0.1 0,-2.5 0,-4.5 V 18 Z m -6.4,1 h 5.3 c 0,0.4 0,0.9 0,1.3 h -5.3 c 0,-0.4 0,-0.8 0,-1.3 z m 5.3,3.9 c 0,0.3 -0.3,0.5 -0.6,0.7 -0.6,0.4 -1.6,1 -2,1.2 -0.4,-0.3 -1.3,-0.8 -2,-1.2 -0.4,-0.3 -0.7,-0.5 -0.7,-0.8 0,-0.1 0,-0.7 0,-1.5 h 5.3 c 0,0.9 0,1.5 0,1.6 z"
         id="path6"
         inkscape:connector-curvature="0"
         style="fill:#b32025" /><path
         class="st0"
         d="m 41.3,17.8 h -7.5 v 0.5 c 0,2 0,4.5 0,4.6 0,0.6 0.4,1.1 1.2,1.6 0.9,0.6 2.3,1.4 2.3,1.4 l 0.3,0.1 0.3,-0.1 c 0.1,0 1.5,-0.8 2.5,-1.4 1.1,-0.7 1.1,-1.4 1.1,-1.6 0,-0.1 0,-2.5 0,-4.6 z m -1,5 c 0,0.3 -0.3,0.5 -0.6,0.7 -0.7,0.4 -1.7,1 -2.1,1.3 -0.4,-0.3 -1.4,-0.8 -2,-1.3 -0.2,-0.1 -0.7,-0.5 -0.7,-0.8 0,0 0,-0.1 0,-0.3 l 2.6,-1.9 2.9,1.9 c -0.1,0.3 -0.1,0.4 -0.1,0.4 z m -2.9,-3.4 -2.6,1.9 c 0,-0.7 0,-1.6 0,-2.4 h 5.5 c 0,0.8 0,1.7 0,2.5 z"
         id="path8"
         inkscape:connector-curvature="0"
         style="fill:#b32025" /><path
         class="st0"
         d="m 32.8,34.2 0.5,0.1 c 0.3,0 0.6,0.1 0.9,0.1 h 1.5 v -1 h -1.5 c -0.2,0 -0.5,0 -0.8,-0.1 l -0.5,-0.1 c -0.1,0 -0.3,0 -0.4,0 v 1 c 0.2,0 0.3,0 0.3,0 z"
         id="path10"
         inkscape:connector-curvature="0"
         style="fill:#b32025" /><path
         class="st0"
         d="m 34.2,36.1 c -0.2,0 -0.5,0 -0.8,-0.1 -0.2,0 -0.4,0 -0.5,-0.1 -0.1,0 -0.3,0 -0.4,0 v 1 c 0.1,0 0.2,0 0.3,0 0.2,0 0.4,0 0.5,0.1 0.3,0 0.6,0.1 0.8,0.1 0.3,0 0.8,0 1.1,0 h 0.4 v -1 h -0.4 c -0.2,0.1 -0.6,0.1 -1,0 z"
         id="path12"
         inkscape:connector-curvature="0"
         style="fill:#b32025" /><path
         class="st0"
         d="m 34.2,39 c -0.2,0 -0.5,0 -0.8,-0.1 -0.2,0 -0.3,0 -0.5,-0.1 -0.1,0 -0.3,0 -0.4,0 v 1 c 0.1,0 0.2,0 0.2,0 0.2,0 0.4,0 0.5,0.1 0.3,0 0.6,0.1 0.9,0.1 h 0.4 c 0.4,0 0.9,0 1.1,0 v -1 c -0.2,0 -0.7,0 -1.1,0 z"
         id="path14"
         inkscape:connector-curvature="0"
         style="fill:#b32025" /><path
         class="st0"
         d="m 27.7,34.3 c 0.3,0 0.5,0 0.9,-0.1 0.2,0 0.3,0 0.5,-0.1 0.1,0 0.2,0 0.2,0 v -1 c -0.1,0 -0.2,0 -0.3,0 -0.2,0 -0.4,0 -0.5,0.1 -0.3,0 -0.6,0.1 -0.8,0.1 h -1.5 v 1 z"
         id="path16"
         inkscape:connector-curvature="0"
         style="fill:#b32025" /><path
         class="st0"
         d="m 28.5,36.1 c -0.3,0 -0.6,0.1 -0.8,0.1 h -1.5 v 1 h 1.5 c 0.3,0 0.5,0 0.9,-0.1 L 29.1,37 c 0.1,0 0.2,0 0.2,0 v -1 c -0.1,0 -0.2,0 -0.4,0 z"
         id="path18"
         inkscape:connector-curvature="0"
         style="fill:#b32025" /><path
         class="st0"
         d="m 28.5,38.9 c -0.3,0 -0.6,0.1 -0.8,0.1 -0.5,0 -1.2,0 -1.5,0 v 1 c 0.2,0 1,0 1.5,0 0.3,0 0.5,0 0.9,-0.1 l 0.5,-0.1 c 0.1,0 0.2,0 0.2,0 v -1 c -0.1,0 -0.2,0 -0.3,0 z"
         id="path20"
         inkscape:connector-curvature="0"
         style="fill:#b32025" /><path
         class="st0"
         d="m 4.7,31 c 1.3,0 2.1,-0.8 2.2,-2.3 0,-0.3 0,-0.6 -0.1,-1 V 27.6 H 5.7 l 0.1,0.2 c 0.1,0.2 0.1,0.5 0.1,0.8 0,0.7 -0.6,1.2 -1.4,1.2 C 3.7,29.7 3.2,29.2 3.2,28.5 3.2,28.3 3.3,28 3.5,27.7 L 3.6,27.5 2.5,27.3 v 0.1 C 2.4,27.7 2.3,28 2.3,28.4 2.2,30 3,30.9 4.5,31 c 0,0 0.1,0 0.2,0 z"
         id="path22"
         inkscape:connector-curvature="0"
         style="fill:#b32025" /><path
         class="st0"
         d="M 4.8,25.9 C 5.1,26 5.4,26 5.7,26 c 1,0 1.7,-0.6 2,-1.6 C 7.9,23.8 7.8,23.2 7.6,22.8 7.3,22.3 6.8,21.9 6.1,21.7 5.8,21.6 5.6,21.6 5.3,21.6 c -1,0 -1.7,0.6 -2,1.6 -0.4,1.3 0.2,2.3 1.5,2.7 z M 4.2,23.5 c 0.2,-0.6 0.6,-0.7 1,-0.7 0.2,0 0.4,0 0.6,0.1 0.5,0.1 0.8,0.4 1,0.7 0.1,0.2 0.1,0.4 0.1,0.7 C 6.7,24.9 6.3,25 5.9,25 5.7,25 5.5,25 5.3,24.9 4.6,24.6 4,24.2 4.2,23.5 Z"
         id="path24"
         inkscape:connector-curvature="0"
         style="fill:#b32025" /><path
         class="st0"
         d="M 9.3,20.1 7.8,19.3 V 19.2 C 8,18.9 8.1,19 8.3,19 l 1.5,0.2 0.6,-1.1 -2,-0.2 c -0.1,0 -0.3,0 -0.4,0 C 8,17.5 7.8,17.1 7.4,16.9 7.2,16.8 7,16.7 6.8,16.7 c -0.7,0 -1.1,0.7 -1.4,1.4 l -0.5,1 4,2.1 z M 7,18.7 6.9,18.8 6.2,18.4 6.3,18.3 C 6.5,18 6.7,17.7 7,17.9 7.1,18 7.1,18 7.1,18.1 c 0.1,0.2 0,0.5 -0.1,0.6 z"
         id="path26"
         inkscape:connector-curvature="0"
         style="fill:#b32025" /><polygon
         class="st0"
         points="12.6,15.2 13.4,14.2 10,11.4 9.3,12.2 11.3,13.9 8.4,13.2 7.6,14.2 11.1,17.1 11.8,16.2 9.7,14.5 "
         id="polygon28"
         style="fill:#b32025" /><polygon
         class="st0"
         points="14.9,11.6 14.4,11 15.5,10.1 14.9,9.3 13.7,10.2 13.3,9.7 14.5,8.7 13.9,7.9 11.8,9.6 14.6,13.1 16.8,11.4 16.1,10.6 "
         id="polygon30"
         style="fill:#b32025" /><polygon
         class="st0"
         points="18.6,9.1 16.9,6 15.9,6.6 18.1,10.5 20.5,9.2 20,8.3 "
         id="polygon32"
         style="fill:#b32025" /><polygon
         class="st0"
         points="22.4,7.4 21.2,4.1 20.1,4.4 21.7,8.7 24.2,7.7 23.9,6.8 "
         id="polygon34"
         style="fill:#b32025" /><path
         class="st0"
         d="m 28.7,7 c 0.1,0 0.2,0 0.3,0 0.6,-0.1 1.1,-0.2 1.4,-0.6 0.3,-0.3 0.4,-0.8 0.3,-1.3 L 30.5,2.3 29.4,2.4 29.6,5 c 0.1,0.9 -0.3,1 -0.6,1.1 0,0 -0.1,0 -0.1,0 -0.3,0 -0.6,-0.1 -0.7,-1 L 28,2.5 26.9,2.6 27,5.4 c 0.1,1 0.7,1.6 1.7,1.6 z"
         id="path36"
         inkscape:connector-curvature="0"
         style="fill:#b32025" /><polygon
         class="st0"
         points="36.1,7.3 36.7,2.8 35.6,2.7 35.2,5.3 34.3,2.5 33,2.3 32.4,6.8 33.5,6.9 33.9,4.3 34.8,7.1 "
         id="polygon38"
         style="fill:#b32025" /><polygon
         class="st0"
         points="37.6,7.7 38.7,8.1 40,3.8 38.9,3.5 "
         id="polygon40"
         style="fill:#b32025" /><polygon
         class="st0"
         points="42.5,8 42.9,4.9 41.9,4.4 41.2,9.1 42.3,9.6 45.6,6.3 44.6,5.8 "
         id="polygon42"
         style="fill:#b32025" /><polygon
         class="st0"
         points="46.1,11 46.6,10.3 47.8,11.2 48.4,10.4 47.2,9.5 47.6,9 48.9,9.9 49.5,9.2 47.3,7.5 44.6,11 46.8,12.7 47.4,11.9 "
         id="polygon44"
         style="fill:#b32025" /><path
         class="st0"
         d="m 48.6,14.6 1.3,-1.1 0.1,0.1 c 0.2,0.2 0.2,0.3 0,0.5 l -0.7,1.3 0.8,0.9 0.9,-1.8 c 0,-0.1 0.1,-0.2 0.1,-0.4 0.4,0.2 0.8,0.1 1.2,-0.2 1,-0.8 0.2,-1.7 -0.4,-2.4 l -0.7,-0.8 -3.4,3 z m 2.6,-2.3 v 0 c 0.2,0.3 0.4,0.5 0.4,0.7 0,0.1 0,0.2 -0.1,0.2 -0.1,0.1 -0.2,0.1 -0.2,0.1 -0.2,0 -0.4,-0.2 -0.5,-0.4 l -0.1,-0.1 z"
         id="path46"
         inkscape:connector-curvature="0"
         style="fill:#b32025" /><path
         class="st0"
         d="M 52.8,18.2 C 52.6,18.3 52.3,18.1 52.2,17.9 52.1,17.7 52,17.4 52,17 v -0.2 l -1,0.5 0.1,0.2 c 0.1,0.3 0.2,0.6 0.4,0.9 0.4,0.6 0.8,1 1.4,1 0.2,0 0.5,-0.1 0.7,-0.2 0.8,-0.5 0.7,-1.2 0.6,-1.8 -0.1,-0.4 -0.1,-0.6 0.1,-0.7 0.1,0 0.2,-0.1 0.2,-0.1 0.2,0 0.3,0.2 0.4,0.3 0.1,0.2 0.2,0.5 0.3,0.8 v 0.2 l 0.9,-0.4 v -0.1 c -0.1,-0.3 -0.2,-0.6 -0.4,-1 -0.5,-0.8 -1.3,-1.1 -2,-0.6 -0.8,0.5 -0.7,1.2 -0.6,1.7 -0.2,0.3 -0.1,0.6 -0.3,0.7 z"
         id="path48"
         inkscape:connector-curvature="0"
         style="fill:#b32025" /><rect
         x="52.900002"
         y="20.299999"
         transform="matrix(0.9259,-0.3777,0.3777,0.9259,-3.7888,22.3759)"
         class="st0"
         width="4.5"
         height="1.1"
         id="rect50"
         style="fill:#b32025" /><polygon
         class="st0"
         points="54.3,25.6 57.7,24.8 58,25.9 58.9,25.7 58.1,22.3 57.2,22.5 57.4,23.7 54,24.5 "
         id="polygon52"
         style="fill:#b32025" /><polygon
         class="st0"
         points="56.6,30.1 59.4,31.6 59.4,30.3 57.7,29.5 59.3,28.6 59.2,27.2 56.6,29 54.8,29.1 54.9,30.2 "
         id="polygon54"
         style="fill:#b32025" /><polygon
         class="st0"
         points="6.1,37.7 6.8,37.5 7.2,39 8.1,38.7 7.4,36.2 3.1,37.4 3.4,38.5 5.2,38 5.5,39.4 6.5,39.1 "
         id="polygon56"
         style="fill:#b32025" /><path
         class="st0"
         d="M 9.5,43.1 C 9.7,42.6 9.6,42 9.3,41.4 8.9,40.6 8.2,40.1 7.5,40.1 c -0.4,0 -0.8,0.1 -1.2,0.3 -0.7,0.3 -1.1,0.8 -1.3,1.3 -0.2,0.5 -0.1,1.1 0.2,1.7 0.4,0.8 1.1,1.2 1.9,1.2 0.4,0 0.8,-0.1 1.2,-0.3 0.6,-0.2 1,-0.7 1.2,-1.2 z M 7.8,43.3 C 7.5,43.4 7.2,43.5 7,43.5 6.6,43.5 6.3,43.3 6.2,43 6,42.8 6,42.5 6,42.3 6.1,42 6.4,41.7 6.8,41.5 c 0.3,-0.1 0.5,-0.2 0.8,-0.2 0.4,0 0.7,0.2 0.9,0.5 0.1,0.2 0.1,0.5 0.1,0.7 -0.1,0.3 -0.4,0.6 -0.8,0.8 z"
         id="path58"
         inkscape:connector-curvature="0"
         style="fill:#b32025" /><path
         class="st0"
         d="m 12.6,46.5 -2,1.6 C 10.1,48.5 9.7,48.6 9.4,48.2 9.3,48 9.2,47.9 9.2,47.7 9.2,47.5 9.4,47.2 9.7,47 l 2,-1.6 -0.7,-0.9 -2.2,1.7 c -0.5,0.4 -0.7,0.8 -0.7,1.2 0,0.4 0.2,0.9 0.5,1.3 0.4,0.5 0.9,0.8 1.4,0.8 0.4,0 0.7,-0.2 1.1,-0.5 l 2.2,-1.8 z"
         id="path60"
         inkscape:connector-curvature="0"
         style="fill:#b32025" /><polygon
         class="st0"
         points="15.4,49.3 14.4,48.5 11.6,52 12.4,52.7 14.1,50.6 13.5,53.5 14.4,54.3 17.3,50.9 16.4,50.2 14.7,52.2 "
         id="polygon62"
         style="fill:#b32025" /><path
         class="st0"
         d="m 19.7,52.3 -1.2,-0.6 -2,4 1.2,0.6 c 0.6,0.3 1,0.4 1.5,0.4 0.8,0 1.4,-0.4 1.8,-1.3 0.7,-1.3 0.2,-2.3 -1.3,-3.1 z m 0.2,2.6 c -0.2,0.5 -0.6,0.7 -1.1,0.7 -0.2,0 -0.4,0 -0.6,-0.1 l -0.2,-0.1 1.1,-2.3 0.3,0.1 c 0.3,0.1 0.5,0.4 0.6,0.7 0.1,0.3 0.1,0.7 -0.1,1 z"
         id="path64"
         inkscape:connector-curvature="0"
         style="fill:#b32025" /><polygon
         class="st0"
         points="25.1,58 23.5,57.6 23.8,56.7 25.2,57.1 25.5,56.2 24,55.8 24.2,55.1 25.8,55.5 26,54.6 23.3,53.9 22.2,58.2 24.9,58.9 "
         id="polygon66"
         style="fill:#b32025" /><path
         class="st0"
         d="m 28.8,54.9 -1.3,-0.1 -0.3,4.5 1.3,0.1 c 0.1,0 0.2,0 0.3,0 1.5,0 2.3,-0.7 2.4,-2.1 0,-0.7 -0.1,-1.2 -0.5,-1.6 -0.4,-0.5 -1,-0.7 -1.9,-0.8 z m 0,3.5 h -0.3 l 0.1,-2.5 h 0.3 c 0.6,0 1.2,0.5 1.1,1.3 0,0.9 -0.7,1.3 -1.2,1.2 z"
         id="path68"
         inkscape:connector-curvature="0"
         style="fill:#b32025" /><path
         class="st0"
         d="m 35.2,54.6 -0.8,4.7 1.2,-0.3 0.2,-1 1.4,-0.3 0.5,0.9 1.2,-0.3 -2.6,-4 z m 0.7,2.5 0.1,-1.2 0.6,1 z"
         id="path70"
         inkscape:connector-curvature="0"
         style="fill:#b32025" /><polygon
         class="st0"
         points="40.9,57.6 40.5,56.5 39.4,56.9 39.8,58 "
         id="polygon72"
         style="fill:#b32025" /><path
         class="st0"
         d="m 41.6,52.4 -1.1,0.6 2.1,3.9 1.1,-0.6 c 1.5,-0.8 1.9,-1.9 1.2,-3.2 -0.7,-1.3 -1.8,-1.5 -3.3,-0.7 z m 1.8,3 -0.3,0.1 -1.2,-2.2 0.3,-0.1 c 0.2,-0.1 0.4,-0.2 0.6,-0.2 0.5,0 0.8,0.3 1.1,0.7 0.4,0.7 0,1.4 -0.5,1.7 z"
         id="path74"
         inkscape:connector-curvature="0"
         style="fill:#b32025" /><polygon
         class="st0"
         points="47.4,54.1 46.7,53.1 45.8,53.8 46.4,54.7 "
         id="polygon76"
         style="fill:#b32025" /><polygon
         class="st0"
         points="48.3,49.9 48.4,49.2 50.5,51.4 51.4,50.6 48.2,47.4 47.5,48.1 47.3,49.8 "
         id="polygon78"
         style="fill:#b32025" /><path
         class="st0"
         d="m 53.6,45.7 c -0.4,-0.3 -0.8,-0.3 -1.3,-0.1 0,-0.4 -0.2,-0.8 -0.5,-1 -0.6,-0.4 -1.3,-0.2 -1.8,0.6 -0.5,0.7 -0.5,1.5 0.1,1.9 0.3,0.2 0.7,0.3 1.1,0.1 0,0.5 0.1,0.9 0.5,1.1 0.3,0.2 0.5,0.3 0.8,0.3 0.4,0 0.9,-0.3 1.3,-0.8 0.3,-0.4 0.4,-0.9 0.4,-1.2 -0.1,-0.4 -0.3,-0.7 -0.6,-0.9 z M 51.5,46 c -0.2,0.1 -0.3,0.2 -0.5,0.2 -0.1,0 -0.1,0 -0.2,-0.1 -0.2,-0.2 -0.1,-0.4 0,-0.6 0.1,-0.1 0.2,-0.2 0.3,-0.2 0.1,0 0.2,0 0.2,0.1 0.1,0.2 0.2,0.5 0.2,0.6 z m 1.5,1.2 c -0.2,0.2 -0.4,0.3 -0.6,0.1 -0.2,-0.1 -0.2,-0.3 -0.2,-0.6 0.3,-0.2 0.6,-0.2 0.8,-0.1 0.1,0.1 0.1,0.2 0.2,0.3 -0.1,0.1 -0.1,0.2 -0.2,0.3 z"
         id="path80"
         inkscape:connector-curvature="0"
         style="fill:#b32025" /><path
         class="st0"
         d="m 55.6,41.3 c -0.8,-0.4 -1.5,-0.2 -1.9,0.6 -0.1,0.2 -0.1,0.4 -0.1,0.6 -0.3,-0.2 -0.5,-0.6 -0.3,-1 0.1,-0.2 0.3,-0.4 0.4,-0.5 l 0.2,-0.1 -0.8,-0.6 -0.1,0.1 c -0.2,0.2 -0.4,0.5 -0.6,0.8 -0.2,0.4 -0.3,0.9 -0.1,1.3 0.2,0.7 1,1.2 1.6,1.5 0.5,0.3 0.9,0.4 1.3,0.4 0.6,0 1,-0.3 1.3,-0.8 0.4,-1 0.1,-1.8 -0.9,-2.3 z m 0,1.7 c -0.1,0.1 -0.2,0.2 -0.3,0.2 -0.1,0 -0.2,0 -0.4,-0.1 -0.2,-0.1 -0.4,-0.2 -0.4,-0.4 0,-0.1 0,-0.2 0,-0.3 0.1,-0.1 0.2,-0.2 0.3,-0.2 0.1,0 0.3,0 0.4,0.1 0.2,0.1 0.3,0.2 0.4,0.4 0,0.2 0,0.2 0,0.3 z"
         id="path82"
         inkscape:connector-curvature="0"
         style="fill:#b32025" /><path
         class="st0"
         d="m 57.2,36.8 c -0.9,-0.3 -1.6,0.1 -1.9,1 0,0.1 0,0.2 -0.1,0.2 l -0.5,-0.2 0.5,-1.5 -0.9,-0.3 -0.8,2.6 2.5,0.8 v -0.2 c 0,-0.2 0,-0.5 0.1,-0.7 0.1,-0.2 0.3,-0.7 0.8,-0.6 0.5,0.2 0.4,0.7 0.3,0.9 -0.1,0.3 -0.3,0.5 -0.4,0.7 l -0.1,0.2 1,0.3 0.1,-0.1 C 58,39.6 58.1,39.2 58.2,39 58.4,38.5 58.3,38 58.1,37.6 58,37.2 57.6,36.9 57.2,36.8 Z"
         id="path84"
         inkscape:connector-curvature="0"
         style="fill:#b32025" /><path
         class="st0"
         d="m 8.3,30.8 c 0,12.4 10.1,22.6 22.6,22.6 12.4,0 22.6,-10.1 22.6,-22.6 C 53.5,18.4 43.4,8.2 30.9,8.2 18.4,8.3 8.3,18.4 8.3,30.8 Z M 30.8,9.1 c 12,0 21.8,9.8 21.8,21.8 0,12 -9.8,21.8 -21.8,21.8 C 18.8,52.7 9,42.9 9,30.9 9.1,18.8 18.8,9.1 30.8,9.1 Z"
         id="path86"
         inkscape:connector-curvature="0"
         style="fill:#b32025" /><path
         class="st0"
         d="M 30.8,0 C 13.8,0 0,13.8 0,30.8 c 0,17 13.8,30.8 30.8,30.8 17,0 30.8,-13.8 30.8,-30.8 C 61.7,13.8 47.9,0 30.8,0 Z m 0,60.9 c -16.6,0 -30,-13.5 -30,-30 0,-16.6 13.5,-30 30,-30 16.6,0 30,13.5 30,30 0.1,16.5 -13.4,30 -30,30 z"
         id="path88"
         inkscape:connector-curvature="0"
         style="fill:#b32025" /></g><g
       id="g4636"
       transform="translate(0,-10)"><path
         class="st0"
         d="m 89,37.7 c -1.2,0.8 -3.4,1.2 -4.7,1.2 -5.2,0 -8.6,-2.9 -8.6,-7.8 0,-2.5 1,-4.4 2.6,-5.8 1.6,-1.3 3.8,-2.1 6.2,-2.1 2,0 3.9,0.5 5,0.9 -0.2,1 -0.4,2.1 -0.4,3.3 h -0.7 v -1.5 c 0,-0.6 -0.9,-1 -1.8,-1.3 -0.7,-0.2 -1.6,-0.4 -2.4,-0.4 -4,0 -6.2,2.9 -6.2,6.6 0,4.3 2.8,7 7.1,7 1.5,0 3.4,-0.6 4.4,-1.3 l 0.2,0.2 z"
         id="path92"
         inkscape:connector-curvature="0"
         style="fill:#b32025" /><path
         class="st0"
         d="m 90.4,33.8 c 0,-3.2 2,-5.5 5.5,-5.5 2.8,0 4.9,2.1 4.9,4.9 0,3.3 -2.3,5.6 -5.6,5.6 -2.8,0.1 -4.8,-2 -4.8,-5 z m 2,-0.9 c 0,2.3 0.8,5.2 3.6,5.2 2,0 2.8,-2 2.8,-4 0,-2.8 -1.3,-5.1 -3.4,-5.1 -2.3,0 -3,1.9 -3,3.9 z"
         id="path94"
         inkscape:connector-curvature="0"
         style="fill:#b32025" /><path
         class="st0"
         d="m 102.9,31.4 c 0,-0.7 0,-1.2 -0.2,-1.3 -0.1,-0.2 -0.3,-0.2 -0.8,-0.2 h -0.8 v -0.6 c 1.3,-0.1 2.6,-0.5 3.4,-0.9 l 0.2,0.1 v 2.2 0 l 1.2,-1.4 c 0.5,-0.6 1.2,-0.9 1.8,-0.9 0.4,0 0.8,0.1 1,0.2 l -0.2,2.6 H 108 c -0.2,-0.5 -0.7,-1 -1.5,-1 -0.9,0 -1.9,1 -1.9,2.4 v 3.7 c 0,0.6 0,1 0.1,1.2 0.1,0.2 0.4,0.3 0.9,0.3 l 1.1,0.1 v 0.6 c -1.1,0 -2,-0.1 -3,-0.1 -1.1,0 -1.9,0 -2.7,0.1 v -0.6 l 1,-0.1 c 0.4,0 0.6,-0.1 0.7,-0.3 0.1,-0.2 0.1,-0.7 0.1,-1.2 v -4.9 z"
         id="path96"
         inkscape:connector-curvature="0"
         style="fill:#b32025" /><path
         class="st0"
         d="m 113,36.2 c 0,0.6 0,1 0.1,1.2 0.1,0.2 0.3,0.3 0.7,0.3 l 1,0.1 v 0.6 c -0.8,0 -1.6,-0.1 -2.7,-0.1 -1.1,0 -1.9,0 -2.7,0.1 v -0.6 l 1,-0.1 c 0.4,0 0.6,-0.1 0.7,-0.3 0.1,-0.2 0.1,-0.7 0.1,-1.2 v -4.8 c 0,-0.7 0,-1.2 -0.2,-1.3 -0.1,-0.2 -0.3,-0.2 -0.8,-0.2 h -0.8 v -0.6 c 1.3,-0.1 2.6,-0.5 3.4,-0.9 l 0.2,0.1 v 1.8 0 l 1.6,-1.4 c 0.5,-0.4 0.9,-0.5 1.7,-0.5 2.5,0 3.5,1.4 3.5,3.7 v 4.1 c 0,0.6 0,1 0.1,1.2 0.1,0.2 0.3,0.3 0.7,0.3 l 0.9,0.1 v 0.6 c -0.5,0 -1.2,-0.1 -1.8,-0.1 -0.6,0 -1.2,0 -1.7,0.1 v -6.1 c 0,-1.8 -1,-2.7 -2.5,-2.7 -1.3,0 -2.6,1.1 -2.6,2 v 4.6 z"
         id="path98"
         inkscape:connector-curvature="0"
         style="fill:#b32025" /><path
         class="st0"
         d="m 131.1,32.3 c 0,0.3 0,0.6 0,0.9 -1.3,0.2 -2.6,0.3 -3.9,0.3 H 124 c 0,2.5 1.2,4.2 3.9,4.2 1,0 1.8,-0.5 2.7,-1 l 0.3,0.2 -0.4,0.7 c -0.2,0.3 -2,1.2 -3.4,1.2 -3.2,0 -5,-2.1 -5,-5 0,-2.1 0.6,-3.3 1.5,-4.1 0.4,-0.3 0.9,-0.6 1.3,-0.9 0.8,-0.3 1.4,-0.6 2.1,-0.6 2.3,0.1 4.1,1.6 4.1,4.1 z m -7.1,0.3 c 1.8,0.2 3.6,0.2 5.1,0.1 0,-2 -0.7,-3.6 -2.3,-3.6 -1.6,-0.1 -2.9,1.2 -2.8,3.5 z"
         id="path100"
         inkscape:connector-curvature="0"
         style="fill:#b32025" /><path
         class="st0"
         d="m 133.2,25.1 c 0,-0.5 -0.1,-0.9 -0.5,-0.9 h -1.2 v -0.6 c 1.1,-0.2 2.3,-0.4 3.4,-0.8 L 135,23 v 13.2 c 0,0.6 0,1 0.1,1.2 0.1,0.2 0.3,0.3 0.7,0.3 l 1,0.1 v 0.6 c -0.8,0 -1.6,-0.1 -2.7,-0.1 -1.1,0 -1.9,0 -2.7,0.1 v -0.6 l 1,-0.1 c 0.4,0 0.6,-0.1 0.7,-0.3 0.1,-0.2 0.1,-0.7 0.1,-1.2 z"
         id="path102"
         inkscape:connector-curvature="0"
         style="fill:#b32025" /><path
         class="st0"
         d="m 139.6,25.1 c 0,-0.5 -0.1,-0.9 -0.5,-0.9 h -1.2 v -0.6 c 1.1,-0.2 2.3,-0.4 3.4,-0.8 l 0.2,0.2 v 13.2 c 0,0.6 0,1 0.1,1.2 0.1,0.2 0.3,0.3 0.7,0.3 l 1,0.1 v 0.6 c -0.8,0 -1.6,-0.1 -2.7,-0.1 -1.1,0 -1.9,0 -2.7,0.1 v -0.6 l 1,-0.1 c 0.4,0 0.6,-0.1 0.7,-0.3 0.1,-0.2 0.1,-0.7 0.1,-1.2 V 25.1 Z"
         id="path104"
         inkscape:connector-curvature="0"
         style="fill:#b32025" /></g><g
       id="g4648"
       transform="translate(-72,10)"><path
         class="st0"
         d="m 149.9,26.2 c 0,-0.8 0,-1.4 -0.2,-1.6 -0.1,-0.2 -0.4,-0.3 -0.9,-0.3 l -1,-0.1 v -0.6 c 1.1,0 2.1,0.1 3.2,0.1 1,0 2,0 3.1,-0.1 v 0.6 l -1,0.1 c -0.5,0 -0.8,0.1 -0.9,0.3 -0.1,0.2 -0.2,0.8 -0.2,1.6 v 7.4 c 0,3.1 1.6,3.9 4.4,3.9 2.3,0 4.4,-0.9 4.4,-4.4 v -6.9 c 0,-0.8 0,-1.4 -0.2,-1.6 -0.1,-0.2 -0.4,-0.3 -0.9,-0.3 l -0.9,-0.1 v -0.6 c 0.9,0 1.7,0.1 2.5,0.1 0.9,0 1.6,0 2.6,-0.1 v 0.6 l -0.9,0.1 c -0.5,0 -0.8,0.1 -0.9,0.3 -0.2,0.2 -0.2,0.8 -0.2,1.6 v 6.2 c 0,4.6 -1.7,6.4 -6.1,6.4 -3.7,0 -5.8,-1.1 -5.8,-5 v -7.6 z"
         id="path106"
         inkscape:connector-curvature="0"
         style="fill:#b32025" /><path
         class="st0"
         d="m 166.6,36.2 c 0,0.6 0,1 0.1,1.2 0.1,0.2 0.3,0.3 0.7,0.3 l 1,0.1 v 0.6 c -0.8,0 -1.6,-0.1 -2.7,-0.1 -1.1,0 -1.9,0 -2.7,0.1 v -0.6 l 1,-0.1 c 0.4,0 0.6,-0.1 0.7,-0.3 0.1,-0.2 0.1,-0.7 0.1,-1.2 v -4.8 c 0,-0.7 0,-1.2 -0.2,-1.3 -0.1,-0.2 -0.3,-0.2 -0.8,-0.2 H 163 v -0.6 c 1.3,-0.1 2.6,-0.5 3.4,-0.9 l 0.2,0.1 v 1.8 0 l 1.6,-1.4 c 0.5,-0.4 0.9,-0.5 1.7,-0.5 2.5,0 3.5,1.4 3.5,3.7 v 4.1 c 0,0.6 0,1 0.1,1.2 0.1,0.2 0.3,0.3 0.7,0.3 l 0.9,0.1 v 0.6 c -0.5,0 -1.2,-0.1 -1.8,-0.1 -0.6,0 -1.2,0 -1.7,0.1 v -6.1 c 0,-1.8 -1,-2.7 -2.5,-2.7 -1.3,0 -2.6,1.1 -2.6,2 v 4.6 z"
         id="path108"
         inkscape:connector-curvature="0"
         style="fill:#b32025" /><path
         class="st0"
         d="m 179.9,36.2 c 0,0.6 0,1 0.1,1.2 0.1,0.2 0.3,0.3 0.7,0.3 l 1,0.1 v 0.6 c -0.8,0 -1.6,-0.1 -2.7,-0.1 -1.1,0 -1.9,0 -2.7,0.1 v -0.6 l 1,-0.1 c 0.4,0 0.6,-0.1 0.7,-0.3 0.1,-0.2 0.1,-0.7 0.1,-1.2 v -4.8 c 0,-0.7 0,-1.2 -0.2,-1.3 -0.1,-0.2 -0.3,-0.2 -0.8,-0.2 h -0.8 v -0.6 c 1.3,-0.1 2.6,-0.5 3.4,-0.9 l 0.2,0.1 z m 0.2,-11.4 c 0,0.6 -0.6,1.2 -1.2,1.2 -0.6,0 -1.2,-0.6 -1.2,-1.2 0,-0.6 0.6,-1.2 1.2,-1.2 0.6,0 1.2,0.6 1.2,1.2 z"
         id="path110"
         inkscape:connector-curvature="0"
         style="fill:#b32025" /><path
         class="st0"
         d="m 188.4,36.2 c -0.4,0.8 -0.6,1.6 -0.9,2.3 h -1.1 l -3.7,-8.7 c -0.1,-0.3 -0.3,-0.7 -0.7,-0.7 h -0.7 v -0.6 c 0.8,0 1.7,0.1 2.5,0.1 0.8,0 1.7,0 2.5,-0.1 v 0.6 h -1.1 c -0.6,0 -0.7,0.3 -0.3,1.2 l 2.6,6.2 c 0.5,-1 0.9,-2 1.3,-3 l 0.9,-2.3 c 0.6,-1.5 0.5,-2.1 -0.1,-2.1 h -0.9 v -0.6 c 0.7,0 1.4,0.1 2,0.1 0.7,0 1.4,0 2,-0.1 v 0.6 H 192 c -0.5,0 -0.9,0.8 -1.2,1.4 z"
         id="path112"
         inkscape:connector-curvature="0"
         style="fill:#b32025" /><path
         class="st0"
         d="m 201.7,32.3 c 0,0.3 0,0.6 0,0.9 -1.3,0.2 -2.6,0.3 -3.9,0.3 h -3.1 c 0,2.5 1.2,4.2 3.9,4.2 1,0 1.8,-0.5 2.7,-1 l 0.3,0.2 -0.4,0.7 c -0.2,0.3 -2,1.2 -3.4,1.2 -3.2,0 -5,-2.1 -5,-5 0,-2.1 0.6,-3.3 1.5,-4.1 0.4,-0.3 0.9,-0.6 1.3,-0.9 0.8,-0.3 1.4,-0.6 2.1,-0.6 2.3,0.1 4,1.6 4,4.1 z m -7,0.3 c 1.8,0.2 3.6,0.2 5.1,0.1 0,-2 -0.7,-3.6 -2.3,-3.6 -1.6,-0.1 -2.9,1.2 -2.8,3.5 z"
         id="path114"
         inkscape:connector-curvature="0"
         style="fill:#b32025" /><path
         class="st0"
         d="m 204.6,31.4 c 0,-0.7 0,-1.2 -0.2,-1.3 -0.1,-0.2 -0.3,-0.2 -0.8,-0.2 h -0.8 v -0.6 c 1.3,-0.1 2.6,-0.5 3.4,-0.9 l 0.2,0.1 v 2.2 0 l 1.2,-1.4 c 0.5,-0.6 1.2,-0.9 1.8,-0.9 0.4,0 0.8,0.1 1,0.2 l -0.2,2.6 h -0.5 c -0.2,-0.5 -0.7,-1 -1.5,-1 -0.9,0 -1.9,1 -1.9,2.4 v 3.7 c 0,0.6 0,1 0.1,1.2 0.1,0.2 0.4,0.3 0.9,0.3 l 1.1,0.1 v 0.6 c -1.1,0 -2,-0.1 -3,-0.1 -1.1,0 -1.9,0 -2.7,0.1 v -0.6 l 1,-0.1 c 0.4,0 0.6,-0.1 0.7,-0.3 0.1,-0.2 0.1,-0.7 0.1,-1.2 v -4.9 z"
         id="path116"
         inkscape:connector-curvature="0"
         style="fill:#b32025" /><path
         class="st0"
         d="m 212,35.3 v 0.9 c 0,1.3 1.5,1.8 2.8,1.8 1.4,0 2.5,-0.8 2.5,-2 0,-0.7 -0.4,-1.2 -1,-1.4 -0.9,-0.2 -2.1,-0.5 -3.2,-0.9 -1,-0.4 -1.8,-1 -1.8,-2.3 0,-2.3 2,-3.1 4,-3.1 1,0 1.9,0.2 2.8,0.5 -0.1,0.8 -0.1,1.6 -0.1,2.4 h -0.6 v -0.5 c 0,-1.1 -1.3,-1.8 -2.5,-1.8 -1.8,0 -2.1,1 -2.1,1.7 0,0.9 0.7,1.4 2.3,1.7 2.6,0.4 3.8,1.1 3.8,2.8 0,2.4 -2.4,3.6 -4.8,3.6 -1,0 -2,-0.2 -3,-0.5 0.2,-0.9 0.2,-2 0.2,-3 h 0.7 z"
         id="path118"
         inkscape:connector-curvature="0"
         style="fill:#b32025" /><path
         class="st0"
         d="m 223.6,36.2 c 0,0.6 0,1 0.1,1.2 0.1,0.2 0.3,0.3 0.7,0.3 l 1,0.1 v 0.6 c -0.8,0 -1.6,-0.1 -2.7,-0.1 -1.1,0 -1.9,0 -2.7,0.1 v -0.6 l 1,-0.1 c 0.4,0 0.6,-0.1 0.7,-0.3 0.1,-0.2 0.1,-0.7 0.1,-1.2 v -4.8 c 0,-0.7 0,-1.2 -0.2,-1.3 -0.1,-0.2 -0.3,-0.2 -0.8,-0.2 H 220 v -0.6 c 1.3,-0.1 2.6,-0.5 3.4,-0.9 l 0.2,0.1 z m 0.2,-11.4 c 0,0.6 -0.6,1.2 -1.2,1.2 -0.6,0 -1.2,-0.6 -1.2,-1.2 0,-0.6 0.6,-1.2 1.2,-1.2 0.6,0 1.2,0.6 1.2,1.2 z"
         id="path120"
         inkscape:connector-curvature="0"
         style="fill:#b32025" /><path
         class="st0"
         d="m 225.9,30.3 v -0.5 l 1.7,-0.8 v -1.5 c 0,-0.6 0,-1.1 -0.1,-1.7 0.8,-0.2 1.5,-0.6 1.8,-0.8 l 0.3,0.2 c -0.1,0.9 -0.2,2.1 -0.2,3.1 v 0.8 l 2.9,-0.1 -0.2,1.2 h -2.8 v 5.6 c 0,1 0.3,1.5 1.2,1.5 0.6,0 1,-0.2 1.3,-0.4 l 0.3,0.4 -1,1.1 c -0.2,0.2 -0.9,0.3 -1.4,0.3 -1.1,0 -2.1,-0.5 -2.1,-2.3 v -6.2 z"
         id="path122"
         inkscape:connector-curvature="0"
         style="fill:#b32025" /><path
         class="st0"
         d="m 241.8,30.3 c 0.3,-0.8 0,-1 -0.8,-1.1 h -0.6 v -0.6 c 0.7,0 1.4,0.1 2,0.1 0.7,0 1.4,0 2,-0.1 v 0.6 h -0.6 c -0.5,0 -1,0.7 -1.8,2.6 l -4.4,10.1 c -0.7,1.6 -1.5,2.6 -3.3,2.6 -0.4,0 -0.8,-0.2 -1.1,-0.3 l 0.5,-1.6 h 0.3 c 0.3,0.3 0.8,0.5 1.1,0.5 1.2,-0.1 1.9,-1.8 2.3,-2.8 l 0.5,-1.3 c -0.4,-1 -0.8,-2.1 -1.2,-3.1 l -2.3,-5.6 c -0.3,-0.8 -0.6,-1 -1.1,-1.1 h -0.4 v -0.6 c 0.8,0 1.7,0.1 2.5,0.1 0.8,0 1.7,0 2.5,-0.1 v 0.6 h -0.8 c -0.6,0 -1,0.2 -0.5,1.4 l 1.4,3.6 c 0.3,0.8 0.6,1.6 1.1,2.4 z"
         id="path124"
         inkscape:connector-curvature="0"
         style="fill:#b32025" /></g></g></svg>