<?xml version="1.0" encoding="utf-8" standalone="no"?>
<!DOCTYPE svg PUBLIC "-//W3C//DTD SVG 1.1//EN"
  "http://www.w3.org/Graphics/SVG/1.1/DTD/svg11.dtd">
<!-- Created with matplotlib (http://matplotlib.org/) -->
<svg height="277pt" version="1.1" viewBox="0 0 408 277" width="408pt" xmlns="http://www.w3.org/2000/svg" xmlns:xlink="http://www.w3.org/1999/xlink">
 <defs>
  <style type="text/css">
*{stroke-linecap:butt;stroke-linejoin:round;}
  </style>
 </defs>
 <g id="figure_1">
  <g id="patch_1">
   <path d="M 0 277.314375 
L 408.36875 277.314375 
L 408.36875 0 
L 0 0 
z
" style="fill:#ffffff;"/>
  </g>
  <g id="axes_1">
   <g id="patch_2">
    <path d="M 62.86875 239.758125 
L 397.66875 239.758125 
L 397.66875 22.318125 
L 62.86875 22.318125 
z
" style="fill:#ffffff;"/>
   </g>
   <g id="matplotlib.axis_1">
    <g id="xtick_1">
     <g id="line2d_1">
      <defs>
       <path d="M 0 0 
L 0 3.5 
" id="mc31b943483" style="stroke:#000000;stroke-width:0.8;"/>
      </defs>
      <g>
       <use style="stroke:#000000;stroke-width:0.8;" x="77.487866" xlink:href="#mc31b943483" y="239.758125"/>
      </g>
     </g>
     <g id="text_1">
      <!-- 0 -->
      <defs>
       <path d="M 31.78125 66.40625 
Q 24.171875 66.40625 20.328125 58.90625 
Q 16.5 51.421875 16.5 36.375 
Q 16.5 21.390625 20.328125 13.890625 
Q 24.171875 6.390625 31.78125 6.390625 
Q 39.453125 6.390625 43.28125 13.890625 
Q 47.125 21.390625 47.125 36.375 
Q 47.125 51.421875 43.28125 58.90625 
Q 39.453125 66.40625 31.78125 66.40625 
M 31.78125 74.21875 
Q 44.046875 74.21875 50.515625 64.515625 
Q 56.984375 54.828125 56.984375 36.375 
Q 56.984375 17.96875 50.515625 8.265625 
Q 44.046875 -1.421875 31.78125 -1.421875 
Q 19.53125 -1.421875 13.0625 8.265625 
Q 6.59375 17.96875 6.59375 36.375 
Q 6.59375 54.828125 13.0625 64.515625 
Q 19.53125 74.21875 31.78125 74.21875 
" id="DejaVuSans-30"/>
      </defs>
      <g transform="translate(74.306616 254.356562)scale(0.1 -0.1)">
       <use xlink:href="#DejaVuSans-30"/>
      </g>
     </g>
    </g>
    <g id="xtick_2">
     <g id="line2d_2">
      <g>
       <use style="stroke:#000000;stroke-width:0.8;" x="144.716983" xlink:href="#mc31b943483" y="239.758125"/>
      </g>
     </g>
     <g id="text_2">
      <!-- 20 -->
      <defs>
       <path d="M 19.1875 8.296875 
L 53.609375 8.296875 
L 53.609375 0 
L 7.328125 0 
L 7.328125 8.296875 
Q 12.9375 14.109375 22.625 23.890625 
Q 32.328125 33.6875 34.8125 36.53125 
Q 39.546875 41.84375 41.421875 45.53125 
Q 43.3125 49.21875 43.3125 52.78125 
Q 43.3125 58.59375 39.234375 62.25 
Q 35.15625 65.921875 28.609375 65.921875 
Q 23.96875 65.921875 18.8125 64.3125 
Q 13.671875 62.703125 7.8125 59.421875 
L 7.8125 69.390625 
Q 13.765625 71.78125 18.9375 73 
Q 24.125 74.21875 28.421875 74.21875 
Q 39.75 74.21875 46.484375 68.546875 
Q 53.21875 62.890625 53.21875 53.421875 
Q 53.21875 48.921875 51.53125 44.890625 
Q 49.859375 40.875 45.40625 35.40625 
Q 44.1875 33.984375 37.640625 27.21875 
Q 31.109375 20.453125 19.1875 8.296875 
" id="DejaVuSans-32"/>
      </defs>
      <g transform="translate(138.354483 254.356562)scale(0.1 -0.1)">
       <use xlink:href="#DejaVuSans-32"/>
       <use x="63.623047" xlink:href="#DejaVuSans-30"/>
      </g>
     </g>
    </g>
    <g id="xtick_3">
     <g id="line2d_3">
      <g>
       <use style="stroke:#000000;stroke-width:0.8;" x="211.946099" xlink:href="#mc31b943483" y="239.758125"/>
      </g>
     </g>
     <g id="text_3">
      <!-- 40 -->
      <defs>
       <path d="M 37.796875 64.3125 
L 12.890625 25.390625 
L 37.796875 25.390625 
z
M 35.203125 72.90625 
L 47.609375 72.90625 
L 47.609375 25.390625 
L 58.015625 25.390625 
L 58.015625 17.1875 
L 47.609375 17.1875 
L 47.609375 0 
L 37.796875 0 
L 37.796875 17.1875 
L 4.890625 17.1875 
L 4.890625 26.703125 
z
" id="DejaVuSans-34"/>
      </defs>
      <g transform="translate(205.583599 254.356562)scale(0.1 -0.1)">
       <use xlink:href="#DejaVuSans-34"/>
       <use x="63.623047" xlink:href="#DejaVuSans-30"/>
      </g>
     </g>
    </g>
    <g id="xtick_4">
     <g id="line2d_4">
      <g>
       <use style="stroke:#000000;stroke-width:0.8;" x="279.175216" xlink:href="#mc31b943483" y="239.758125"/>
      </g>
     </g>
     <g id="text_4">
      <!-- 60 -->
      <defs>
       <path d="M 33.015625 40.375 
Q 26.375 40.375 22.484375 35.828125 
Q 18.609375 31.296875 18.609375 23.390625 
Q 18.609375 15.53125 22.484375 10.953125 
Q 26.375 6.390625 33.015625 6.390625 
Q 39.65625 6.390625 43.53125 10.953125 
Q 47.40625 15.53125 47.40625 23.390625 
Q 47.40625 31.296875 43.53125 35.828125 
Q 39.65625 40.375 33.015625 40.375 
M 52.59375 71.296875 
L 52.59375 62.3125 
Q 48.875 64.0625 45.09375 64.984375 
Q 41.3125 65.921875 37.59375 65.921875 
Q 27.828125 65.921875 22.671875 59.328125 
Q 17.53125 52.734375 16.796875 39.40625 
Q 19.671875 43.65625 24.015625 45.921875 
Q 28.375 48.1875 33.59375 48.1875 
Q 44.578125 48.1875 50.953125 41.515625 
Q 57.328125 34.859375 57.328125 23.390625 
Q 57.328125 12.15625 50.6875 5.359375 
Q 44.046875 -1.421875 33.015625 -1.421875 
Q 20.359375 -1.421875 13.671875 8.265625 
Q 6.984375 17.96875 6.984375 36.375 
Q 6.984375 53.65625 15.1875 63.9375 
Q 23.390625 74.21875 37.203125 74.21875 
Q 40.921875 74.21875 44.703125 73.484375 
Q 48.484375 72.75 52.59375 71.296875 
" id="DejaVuSans-36"/>
      </defs>
      <g transform="translate(272.812716 254.356562)scale(0.1 -0.1)">
       <use xlink:href="#DejaVuSans-36"/>
       <use x="63.623047" xlink:href="#DejaVuSans-30"/>
      </g>
     </g>
    </g>
    <g id="xtick_5">
     <g id="line2d_5">
      <g>
       <use style="stroke:#000000;stroke-width:0.8;" x="346.404333" xlink:href="#mc31b943483" y="239.758125"/>
      </g>
     </g>
     <g id="text_5">
      <!-- 80 -->
      <defs>
       <path d="M 31.78125 34.625 
Q 24.75 34.625 20.71875 30.859375 
Q 16.703125 27.09375 16.703125 20.515625 
Q 16.703125 13.921875 20.71875 10.15625 
Q 24.75 6.390625 31.78125 6.390625 
Q 38.8125 6.390625 42.859375 10.171875 
Q 46.921875 13.96875 46.921875 20.515625 
Q 46.921875 27.09375 42.890625 30.859375 
Q 38.875 34.625 31.78125 34.625 
M 21.921875 38.8125 
Q 15.578125 40.375 12.03125 44.71875 
Q 8.5 49.078125 8.5 55.328125 
Q 8.5 64.0625 14.71875 69.140625 
Q 20.953125 74.21875 31.78125 74.21875 
Q 42.671875 74.21875 48.875 69.140625 
Q 55.078125 64.0625 55.078125 55.328125 
Q 55.078125 49.078125 51.53125 44.71875 
Q 48 40.375 41.703125 38.8125 
Q 48.828125 37.15625 52.796875 32.3125 
Q 56.78125 27.484375 56.78125 20.515625 
Q 56.78125 9.90625 50.3125 4.234375 
Q 43.84375 -1.421875 31.78125 -1.421875 
Q 19.734375 -1.421875 13.25 4.234375 
Q 6.78125 9.90625 6.78125 20.515625 
Q 6.78125 27.484375 10.78125 32.3125 
Q 14.796875 37.15625 21.921875 38.8125 
M 18.3125 54.390625 
Q 18.3125 48.734375 21.84375 45.5625 
Q 25.390625 42.390625 31.78125 42.390625 
Q 38.140625 42.390625 41.71875 45.5625 
Q 45.3125 48.734375 45.3125 54.390625 
Q 45.3125 60.0625 41.71875 63.234375 
Q 38.140625 66.40625 31.78125 66.40625 
Q 25.390625 66.40625 21.84375 63.234375 
Q 18.3125 60.0625 18.3125 54.390625 
" id="DejaVuSans-38"/>
      </defs>
      <g transform="translate(340.041833 254.356562)scale(0.1 -0.1)">
       <use xlink:href="#DejaVuSans-38"/>
       <use x="63.623047" xlink:href="#DejaVuSans-30"/>
      </g>
     </g>
    </g>
    <g id="text_6">
     <!-- Time (s) -->
     <defs>
      <path d="M -0.296875 72.90625 
L 61.375 72.90625 
L 61.375 64.59375 
L 35.5 64.59375 
L 35.5 0 
L 25.59375 0 
L 25.59375 64.59375 
L -0.296875 64.59375 
z
" id="DejaVuSans-54"/>
      <path d="M 9.421875 54.6875 
L 18.40625 54.6875 
L 18.40625 0 
L 9.421875 0 
z
M 9.421875 75.984375 
L 18.40625 75.984375 
L 18.40625 64.59375 
L 9.421875 64.59375 
z
" id="DejaVuSans-69"/>
      <path d="M 52 44.1875 
Q 55.375 50.25 60.0625 53.125 
Q 64.75 56 71.09375 56 
Q 79.640625 56 84.28125 50.015625 
Q 88.921875 44.046875 88.921875 33.015625 
L 88.921875 0 
L 79.890625 0 
L 79.890625 32.71875 
Q 79.890625 40.578125 77.09375 44.375 
Q 74.3125 48.1875 68.609375 48.1875 
Q 61.625 48.1875 57.5625 43.546875 
Q 53.515625 38.921875 53.515625 30.90625 
L 53.515625 0 
L 44.484375 0 
L 44.484375 32.71875 
Q 44.484375 40.625 41.703125 44.40625 
Q 38.921875 48.1875 33.109375 48.1875 
Q 26.21875 48.1875 22.15625 43.53125 
Q 18.109375 38.875 18.109375 30.90625 
L 18.109375 0 
L 9.078125 0 
L 9.078125 54.6875 
L 18.109375 54.6875 
L 18.109375 46.1875 
Q 21.1875 51.21875 25.484375 53.609375 
Q 29.78125 56 35.6875 56 
Q 41.65625 56 45.828125 52.96875 
Q 50 49.953125 52 44.1875 
" id="DejaVuSans-6d"/>
      <path d="M 56.203125 29.59375 
L 56.203125 25.203125 
L 14.890625 25.203125 
Q 15.484375 15.921875 20.484375 11.0625 
Q 25.484375 6.203125 34.421875 6.203125 
Q 39.59375 6.203125 44.453125 7.46875 
Q 49.3125 8.734375 54.109375 11.28125 
L 54.109375 2.78125 
Q 49.265625 0.734375 44.1875 -0.34375 
Q 39.109375 -1.421875 33.890625 -1.421875 
Q 20.796875 -1.421875 13.15625 6.1875 
Q 5.515625 13.8125 5.515625 26.8125 
Q 5.515625 40.234375 12.765625 48.109375 
Q 20.015625 56 32.328125 56 
Q 43.359375 56 49.78125 48.890625 
Q 56.203125 41.796875 56.203125 29.59375 
M 47.21875 32.234375 
Q 47.125 39.59375 43.09375 43.984375 
Q 39.0625 48.390625 32.421875 48.390625 
Q 24.90625 48.390625 20.390625 44.140625 
Q 15.875 39.890625 15.1875 32.171875 
z
" id="DejaVuSans-65"/>
      <path id="DejaVuSans-20"/>
      <path d="M 31 75.875 
Q 24.46875 64.65625 21.28125 53.65625 
Q 18.109375 42.671875 18.109375 31.390625 
Q 18.109375 20.125 21.3125 9.0625 
Q 24.515625 -2 31 -13.1875 
L 23.1875 -13.1875 
Q 15.875 -1.703125 12.234375 9.375 
Q 8.59375 20.453125 8.59375 31.390625 
Q 8.59375 42.28125 12.203125 53.3125 
Q 15.828125 64.359375 23.1875 75.875 
z
" id="DejaVuSans-28"/>
      <path d="M 44.28125 53.078125 
L 44.28125 44.578125 
Q 40.484375 46.53125 36.375 47.5 
Q 32.28125 48.484375 27.875 48.484375 
Q 21.1875 48.484375 17.84375 46.4375 
Q 14.5 44.390625 14.5 40.28125 
Q 14.5 37.15625 16.890625 35.375 
Q 19.28125 33.59375 26.515625 31.984375 
L 29.59375 31.296875 
Q 39.15625 29.25 43.1875 25.515625 
Q 47.21875 21.78125 47.21875 15.09375 
Q 47.21875 7.46875 41.1875 3.015625 
Q 35.15625 -1.421875 24.609375 -1.421875 
Q 20.21875 -1.421875 15.453125 -0.5625 
Q 10.6875 0.296875 5.421875 2 
L 5.421875 11.28125 
Q 10.40625 8.6875 15.234375 7.390625 
Q 20.0625 6.109375 24.8125 6.109375 
Q 31.15625 6.109375 34.5625 8.28125 
Q 37.984375 10.453125 37.984375 14.40625 
Q 37.984375 18.0625 35.515625 20.015625 
Q 33.0625 21.96875 24.703125 23.78125 
L 21.578125 24.515625 
Q 13.234375 26.265625 9.515625 29.90625 
Q 5.8125 33.546875 5.8125 39.890625 
Q 5.8125 47.609375 11.28125 51.796875 
Q 16.75 56 26.8125 56 
Q 31.78125 56 36.171875 55.265625 
Q 40.578125 54.546875 44.28125 53.078125 
" id="DejaVuSans-73"/>
      <path d="M 8.015625 75.875 
L 15.828125 75.875 
Q 23.140625 64.359375 26.78125 53.3125 
Q 30.421875 42.28125 30.421875 31.390625 
Q 30.421875 20.453125 26.78125 9.375 
Q 23.140625 -1.703125 15.828125 -13.1875 
L 8.015625 -13.1875 
Q 14.5 -2 17.703125 9.0625 
Q 20.90625 20.125 20.90625 31.390625 
Q 20.90625 42.671875 17.703125 53.65625 
Q 14.5 64.65625 8.015625 75.875 
" id="DejaVuSans-29"/>
     </defs>
     <g transform="translate(209.785938 268.034687)scale(0.1 -0.1)">
      <use xlink:href="#DejaVuSans-54"/>
      <use x="61.037109" xlink:href="#DejaVuSans-69"/>
      <use x="88.820312" xlink:href="#DejaVuSans-6d"/>
      <use x="186.232422" xlink:href="#DejaVuSans-65"/>
      <use x="247.755859" xlink:href="#DejaVuSans-20"/>
      <use x="279.542969" xlink:href="#DejaVuSans-28"/>
      <use x="318.556641" xlink:href="#DejaVuSans-73"/>
      <use x="370.65625" xlink:href="#DejaVuSans-29"/>
     </g>
    </g>
   </g>
   <g id="matplotlib.axis_2">
    <g id="ytick_1">
     <g id="line2d_6">
      <defs>
       <path d="M 0 0 
L -3.5 0 
" id="md1d606686e" style="stroke:#000000;stroke-width:0.8;"/>
      </defs>
      <g>
       <use style="stroke:#000000;stroke-width:0.8;" x="62.86875" xlink:href="#md1d606686e" y="200.324494"/>
      </g>
     </g>
     <g id="text_7">
      <!-- 0.0010 -->
      <defs>
       <path d="M 10.6875 12.40625 
L 21 12.40625 
L 21 0 
L 10.6875 0 
z
" id="DejaVuSans-2e"/>
       <path d="M 12.40625 8.296875 
L 28.515625 8.296875 
L 28.515625 63.921875 
L 10.984375 60.40625 
L 10.984375 69.390625 
L 28.421875 72.90625 
L 38.28125 72.90625 
L 38.28125 8.296875 
L 54.390625 8.296875 
L 54.390625 0 
L 12.40625 0 
z
" id="DejaVuSans-31"/>
      </defs>
      <g transform="translate(20.878125 204.123713)scale(0.1 -0.1)">
       <use xlink:href="#DejaVuSans-30"/>
       <use x="63.623047" xlink:href="#DejaVuSans-2e"/>
       <use x="95.410156" xlink:href="#DejaVuSans-30"/>
       <use x="159.033203" xlink:href="#DejaVuSans-30"/>
       <use x="222.65625" xlink:href="#DejaVuSans-31"/>
       <use x="286.279297" xlink:href="#DejaVuSans-30"/>
      </g>
     </g>
    </g>
    <g id="ytick_2">
     <g id="line2d_7">
      <g>
       <use style="stroke:#000000;stroke-width:0.8;" x="62.86875" xlink:href="#md1d606686e" y="152.082677"/>
      </g>
     </g>
     <g id="text_8">
      <!-- 0.0012 -->
      <g transform="translate(20.878125 155.881896)scale(0.1 -0.1)">
       <use xlink:href="#DejaVuSans-30"/>
       <use x="63.623047" xlink:href="#DejaVuSans-2e"/>
       <use x="95.410156" xlink:href="#DejaVuSans-30"/>
       <use x="159.033203" xlink:href="#DejaVuSans-30"/>
       <use x="222.65625" xlink:href="#DejaVuSans-31"/>
       <use x="286.279297" xlink:href="#DejaVuSans-32"/>
      </g>
     </g>
    </g>
    <g id="ytick_3">
     <g id="line2d_8">
      <g>
       <use style="stroke:#000000;stroke-width:0.8;" x="62.86875" xlink:href="#md1d606686e" y="103.84086"/>
      </g>
     </g>
     <g id="text_9">
      <!-- 0.0014 -->
      <g transform="translate(20.878125 107.640079)scale(0.1 -0.1)">
       <use xlink:href="#DejaVuSans-30"/>
       <use x="63.623047" xlink:href="#DejaVuSans-2e"/>
       <use x="95.410156" xlink:href="#DejaVuSans-30"/>
       <use x="159.033203" xlink:href="#DejaVuSans-30"/>
       <use x="222.65625" xlink:href="#DejaVuSans-31"/>
       <use x="286.279297" xlink:href="#DejaVuSans-34"/>
      </g>
     </g>
    </g>
    <g id="ytick_4">
     <g id="line2d_9">
      <g>
       <use style="stroke:#000000;stroke-width:0.8;" x="62.86875" xlink:href="#md1d606686e" y="55.599043"/>
      </g>
     </g>
     <g id="text_10">
      <!-- 0.0016 -->
      <g transform="translate(20.878125 59.398261)scale(0.1 -0.1)">
       <use xlink:href="#DejaVuSans-30"/>
       <use x="63.623047" xlink:href="#DejaVuSans-2e"/>
       <use x="95.410156" xlink:href="#DejaVuSans-30"/>
       <use x="159.033203" xlink:href="#DejaVuSans-30"/>
       <use x="222.65625" xlink:href="#DejaVuSans-31"/>
       <use x="286.279297" xlink:href="#DejaVuSans-36"/>
      </g>
     </g>
    </g>
    <g id="text_11">
     <!-- Current (A) -->
     <defs>
      <path d="M 64.40625 67.28125 
L 64.40625 56.890625 
Q 59.421875 61.53125 53.78125 63.8125 
Q 48.140625 66.109375 41.796875 66.109375 
Q 29.296875 66.109375 22.65625 58.46875 
Q 16.015625 50.828125 16.015625 36.375 
Q 16.015625 21.96875 22.65625 14.328125 
Q 29.296875 6.6875 41.796875 6.6875 
Q 48.140625 6.6875 53.78125 8.984375 
Q 59.421875 11.28125 64.40625 15.921875 
L 64.40625 5.609375 
Q 59.234375 2.09375 53.4375 0.328125 
Q 47.65625 -1.421875 41.21875 -1.421875 
Q 24.65625 -1.421875 15.125 8.703125 
Q 5.609375 18.84375 5.609375 36.375 
Q 5.609375 53.953125 15.125 64.078125 
Q 24.65625 74.21875 41.21875 74.21875 
Q 47.75 74.21875 53.53125 72.484375 
Q 59.328125 70.75 64.40625 67.28125 
" id="DejaVuSans-43"/>
      <path d="M 8.5 21.578125 
L 8.5 54.6875 
L 17.484375 54.6875 
L 17.484375 21.921875 
Q 17.484375 14.15625 20.5 10.265625 
Q 23.53125 6.390625 29.59375 6.390625 
Q 36.859375 6.390625 41.078125 11.03125 
Q 45.3125 15.671875 45.3125 23.6875 
L 45.3125 54.6875 
L 54.296875 54.6875 
L 54.296875 0 
L 45.3125 0 
L 45.3125 8.40625 
Q 42.046875 3.421875 37.71875 1 
Q 33.40625 -1.421875 27.6875 -1.421875 
Q 18.265625 -1.421875 13.375 4.4375 
Q 8.5 10.296875 8.5 21.578125 
M 31.109375 56 
z
" id="DejaVuSans-75"/>
      <path d="M 41.109375 46.296875 
Q 39.59375 47.171875 37.8125 47.578125 
Q 36.03125 48 33.890625 48 
Q 26.265625 48 22.1875 43.046875 
Q 18.109375 38.09375 18.109375 28.8125 
L 18.109375 0 
L 9.078125 0 
L 9.078125 54.6875 
L 18.109375 54.6875 
L 18.109375 46.1875 
Q 20.953125 51.171875 25.484375 53.578125 
Q 30.03125 56 36.53125 56 
Q 37.453125 56 38.578125 55.875 
Q 39.703125 55.765625 41.0625 55.515625 
z
" id="DejaVuSans-72"/>
      <path d="M 54.890625 33.015625 
L 54.890625 0 
L 45.90625 0 
L 45.90625 32.71875 
Q 45.90625 40.484375 42.875 44.328125 
Q 39.84375 48.1875 33.796875 48.1875 
Q 26.515625 48.1875 22.3125 43.546875 
Q 18.109375 38.921875 18.109375 30.90625 
L 18.109375 0 
L 9.078125 0 
L 9.078125 54.6875 
L 18.109375 54.6875 
L 18.109375 46.1875 
Q 21.34375 51.125 25.703125 53.5625 
Q 30.078125 56 35.796875 56 
Q 45.21875 56 50.046875 50.171875 
Q 54.890625 44.34375 54.890625 33.015625 
" id="DejaVuSans-6e"/>
      <path d="M 18.3125 70.21875 
L 18.3125 54.6875 
L 36.8125 54.6875 
L 36.8125 47.703125 
L 18.3125 47.703125 
L 18.3125 18.015625 
Q 18.3125 11.328125 20.140625 9.421875 
Q 21.96875 7.515625 27.59375 7.515625 
L 36.8125 7.515625 
L 36.8125 0 
L 27.59375 0 
Q 17.1875 0 13.234375 3.875 
Q 9.28125 7.765625 9.28125 18.015625 
L 9.28125 47.703125 
L 2.6875 47.703125 
L 2.6875 54.6875 
L 9.28125 54.6875 
L 9.28125 70.21875 
z
" id="DejaVuSans-74"/>
      <path d="M 34.1875 63.1875 
L 20.796875 26.90625 
L 47.609375 26.90625 
z
M 28.609375 72.90625 
L 39.796875 72.90625 
L 67.578125 0 
L 57.328125 0 
L 50.6875 18.703125 
L 17.828125 18.703125 
L 11.1875 0 
L 0.78125 0 
z
" id="DejaVuSans-41"/>
     </defs>
     <g transform="translate(14.798438 158.923281)rotate(-90)scale(0.1 -0.1)">
      <use xlink:href="#DejaVuSans-43"/>
      <use x="69.824219" xlink:href="#DejaVuSans-75"/>
      <use x="133.203125" xlink:href="#DejaVuSans-72"/>
      <use x="174.300781" xlink:href="#DejaVuSans-72"/>
      <use x="215.382812" xlink:href="#DejaVuSans-65"/>
      <use x="276.90625" xlink:href="#DejaVuSans-6e"/>
      <use x="340.285156" xlink:href="#DejaVuSans-74"/>
      <use x="379.494141" xlink:href="#DejaVuSans-20"/>
      <use x="411.28125" xlink:href="#DejaVuSans-28"/>
      <use x="450.294922" xlink:href="#DejaVuSans-41"/>
      <use x="518.703125" xlink:href="#DejaVuSans-29"/>
     </g>
    </g>
   </g>
   <g id="line2d_10">
    <path clip-path="url(#p73aa4314d2)" d="M 78.086932 229.874489 
L 78.187291 228.649942 
L 78.288688 227.66798 
L 78.390111 227.852795 
L 78.593027 222.800887 
L 78.694456 222.85528 
L 78.999087 218.783936 
L 79.202057 212.32537 
L 79.607905 210.830573 
L 79.709331 211.002338 
L 80.216733 207.132114 
L 80.419768 204.272387 
L 80.622796 194.969652 
L 81.130004 187.588654 
L 81.739099 183.463979 
L 81.840615 183.367495 
L 82.246679 182.378538 
L 82.449375 182.064966 
L 82.652407 177.892049 
L 83.363019 167.423575 
L 83.565715 166.941157 
L 83.768746 166.844673 
L 84.174474 166.458739 
L 84.478686 166.000441 
L 84.580202 166.000441 
L 84.783234 165.928079 
L 85.189298 165.71099 
L 85.290478 165.421539 
L 85.595025 159.511917 
L 85.696205 159.511917 
L 85.899237 159.270708 
L 86.204121 157.292793 
L 86.610185 150.249488 
L 86.914397 148.729871 
L 87.015913 148.17509 
L 87.218945 145.690636 
L 87.625009 145.25646 
L 87.929557 145.280581 
L 88.031072 145.25646 
L 88.132588 145.52179 
L 88.33562 144.315744 
L 88.741348 143.978052 
L 89.248928 138.261396 
L 89.45196 138.164913 
L 89.858024 138.382001 
L 90.263751 137.82722 
L 90.567963 138.068429 
L 90.669479 137.875462 
L 90.872511 135.029195 
L 90.974027 134.763865 
L 91.278239 133.268368 
L 91.481271 133.027159 
L 91.886998 132.617104 
L 92.191546 132.544741 
L 92.496094 132.231169 
L 92.800306 132.375895 
L 93.206034 131.869356 
L 93.409066 131.652267 
L 93.713614 131.025124 
L 93.916645 129.891441 
L 94.525405 129.384902 
L 94.728101 129.650232 
L 94.931469 129.191935 
L 95.032985 129.264298 
L 95.337197 128.998968 
L 95.743261 129.384902 
L 95.84444 128.878363 
L 95.945956 128.902484 
L 96.35202 128.516549 
L 96.453536 128.588912 
L 96.656568 128.371824 
L 96.758084 127.937648 
L 96.96078 126.924569 
L 97.163812 126.94869 
L 97.468024 126.828086 
L 97.772571 126.972811 
L 97.874087 126.996932 
L 97.975603 126.610998 
L 98.077119 126.659239 
L 98.178635 126.586877 
L 98.686215 126.900448 
L 99.091943 125.790887 
L 99.193459 125.742645 
L 99.396827 124.753688 
L 99.599523 121.786816 
L 100.107103 121.714453 
L 100.310134 121.90742 
L 100.41165 121.593849 
L 100.614346 120.725496 
L 100.817378 120.749617 
L 101.020746 120.653133 
L 101.122262 120.677254 
L 101.325294 121.087309 
L 101.42681 120.990826 
L 101.934054 119.374725 
L 102.238266 119.109395 
L 102.339782 118.072196 
L 102.644329 111.80076 
L 102.949213 111.607792 
L 103.050729 111.559551 
L 103.253425 111.245979 
L 103.354941 111.197737 
L 103.557973 110.257022 
L 103.760669 109.871087 
L 104.065217 109.822845 
L 104.268249 109.774603 
L 104.877008 109.702241 
L 105.18122 109.653999 
L 105.485768 109.67812 
L 105.790316 109.919329 
L 105.993348 109.822845 
L 106.703287 109.895208 
L 107.819291 109.461032 
L 108.022323 108.858009 
L 108.32687 108.544437 
L 108.529902 108.6168 
L 108.732598 108.472074 
L 109.03681 108.689162 
L 109.341358 108.35147 
L 109.54439 108.254986 
L 109.747422 108.230865 
L 109.950118 108.134382 
L 110.356181 107.869052 
L 110.660729 107.29015 
L 110.762245 107.241908 
L 110.965277 107.386633 
L 111.269825 107.386633 
L 111.574373 107.266029 
L 111.777405 106.831853 
L 112.081617 106.735369 
L 112.183133 106.614764 
L 112.284649 106.711248 
L 112.386165 106.518281 
L 113.096776 106.904215 
L 113.50284 106.518281 
L 113.604356 106.542402 
L 114.213116 105.818774 
L 114.923728 105.915258 
L 115.024907 106.035863 
L 115.329455 105.891137 
L 115.735519 105.9635 
L 116.750343 105.625807 
L 116.953375 105.456961 
L 117.359102 105.529323 
L 117.967862 104.998663 
L 118.170894 102.417726 
L 118.37359 102.345364 
L 118.983022 102.393605 
L 119.28757 102.538331 
L 119.490601 102.51421 
L 119.693633 102.297122 
L 119.997845 102.055913 
L 120.404245 102.104154 
L 120.810309 102.924265 
L 121.013341 102.393605 
L 121.114857 102.393605 
L 121.317553 102.128275 
L 121.520585 102.104154 
L 121.825133 102.055913 
L 122.028164 102.176517 
L 122.231196 102.007671 
L 123.449052 101.935308 
L 123.7536 101.887066 
L 124.26118 101.838824 
L 124.667243 101.284044 
L 124.870275 100.439812 
L 125.073307 100.198603 
L 125.580887 100.222724 
L 125.783583 100.150361 
L 126.087795 100.053877 
L 126.493859 99.740305 
L 126.595375 99.306129 
L 126.798406 99.474975 
L 127.30565 98.0036 
L 127.81323 96.797555 
L 128.219294 96.894038 
L 128.929569 93.058814 
L 130.756521 92.624637 
L 130.858037 92.817605 
L 130.959553 92.407549 
L 131.061069 92.528154 
L 131.264437 92.069856 
L 131.568985 92.142219 
L 131.772016 91.804526 
L 132.076564 91.804526 
L 132.27926 91.732164 
L 132.482292 91.828647 
L 133.497452 91.756285 
L 134.005032 91.611559 
L 136.744954 91.611559 
L 137.049502 90.598481 
L 137.252198 90.57436 
L 137.658262 90.381393 
L 137.861294 89.971337 
L 138.06399 90.0437 
L 138.266685 90.164305 
L 138.469717 89.24771 
L 138.773929 89.271831 
L 139.078477 89.175347 
L 139.687237 88.958259 
L 139.788752 88.885897 
L 139.991784 88.162269 
L 140.0933 88.162269 
L 140.397848 87.65573 
L 141.311492 87.221554 
L 141.514524 86.666773 
L 141.615704 86.642652 
L 141.71722 86.353201 
L 141.920252 85.219518 
L 142.123284 84.954188 
L 142.427831 84.930068 
L 143.949899 84.978309 
L 144.152594 84.785342 
L 145.268934 84.688858 
L 145.573146 84.544133 
L 145.776178 84.278803 
L 146.080726 83.603418 
L 146.486789 83.313967 
L 147.907677 82.87979 
L 148.110709 82.61446 
L 148.313741 80.805392 
L 148.617952 80.347095 
L 149.125196 80.130007 
L 149.632776 80.009402 
L 150.951811 79.599347 
L 151.154507 79.4305 
L 151.256023 79.020445 
L 151.459055 77.331981 
L 151.763603 76.7772 
L 151.864783 76.75308 
L 152.16933 75.71588 
L 152.473878 75.378188 
L 152.77809 75.354067 
L 153.183818 75.45055 
L 154.299821 75.378188 
L 154.604369 75.112858 
L 155.314981 72.869613 
L 155.517677 71.253512 
L 155.822225 71.229391 
L 156.228288 71.18115 
L 156.43132 69.806258 
L 157.750692 69.516807 
L 157.953724 69.637411 
L 158.156756 69.32384 
L 158.765851 69.275598 
L 159.577979 68.817301 
L 159.984043 68.79318 
L 160.187075 68.52785 
L 160.491287 68.479608 
L 160.694319 67.948948 
L 162.318238 67.852464 
L 162.724302 67.659497 
L 163.840305 67.418288 
L 164.043337 65.319769 
L 164.449401 65.247406 
L 165.870288 65.006197 
L 166.986964 64.909713 
L 167.291512 64.837351 
L 167.59606 64.81323 
L 169.321495 64.740867 
L 169.524527 64.572021 
L 169.727559 63.824273 
L 170.133287 63.341854 
L 170.336318 63.197129 
L 170.437834 62.787073 
L 170.742382 60.495587 
L 171.148446 60.374983 
L 171.452994 60.374983 
L 171.757542 60.350862 
L 173.686345 60.374983 
L 173.889713 61.09861 
L 173.990893 61.195093 
L 174.701505 60.616192 
L 174.904201 60.760917 
L 175.005717 60.664433 
L 175.107233 60.736796 
L 175.411781 60.56795 
L 176.223572 60.664433 
L 176.6293 60.712675 
L 176.933848 60.857401 
L 177.13688 60.83328 
L 177.441428 60.736796 
L 177.542608 60.785038 
L 177.745639 60.664433 
L 178.658947 60.56795 
L 179.369223 60.399103 
L 179.673771 60.592071 
L 180.080171 60.543829 
L 180.181686 60.592071 
L 180.485898 60.326741 
L 180.68893 59.603114 
L 181.19651 59.289542 
L 181.501058 59.265421 
L 181.602574 59.265421 
L 181.907122 58.903607 
L 182.515881 58.590035 
L 183.835589 58.541794 
L 184.038621 58.421189 
L 184.342833 58.397068 
L 185.053444 58.469431 
L 185.865236 58.372947 
L 186.068268 58.565914 
L 186.169784 58.493552 
L 186.2713 58.662398 
L 186.575848 58.107617 
L 186.981575 58.011134 
L 187.590671 57.842287 
L 187.996735 57.866408 
L 188.402463 57.769924 
L 188.605159 57.528715 
L 189.112738 57.432232 
L 189.518802 57.287506 
L 189.721498 55.237229 
L 190.026046 55.092504 
L 191.041206 54.99602 
L 191.548449 54.947778 
L 191.852997 54.99602 
L 192.360913 54.971899 
L 193.985169 54.899536 
L 194.289717 54.875415 
L 194.898476 54.827174 
L 196.421216 54.778932 
L 196.623912 54.392997 
L 197.334523 54.46536 
L 197.842103 54.441239 
L 199.872422 54.417118 
L 200.176634 54.20003 
L 200.278486 54.224151 
L 200.68455 53.814095 
L 201.19213 53.789975 
L 203.323293 53.838216 
L 203.424809 53.910579 
L 203.627841 53.090468 
L 203.729357 53.13871 
L 203.932389 52.945743 
L 204.135421 52.825138 
L 204.439632 52.849259 
L 204.642664 52.849259 
L 205.353276 52.776896 
L 205.556308 52.535687 
L 205.86052 52.463325 
L 206.063552 52.34272 
L 206.266248 52.149753 
L 206.46928 51.787939 
L 206.773827 51.377884 
L 207.585283 51.257279 
L 207.889831 51.305521 
L 208.194379 51.329642 
L 208.701958 51.353763 
L 209.412234 51.257279 
L 209.919814 51.2814 
L 210.224026 51.209037 
L 210.629753 51.353763 
L 210.731269 51.474367 
L 211.137333 51.233158 
L 211.644913 51.209037 
L 212.558221 51.136675 
L 213.370012 50.678377 
L 214.080624 50.630136 
L 214.385508 50.171838 
L 214.791572 49.978871 
L 218.141599 49.930629 
L 218.344295 49.882387 
L 218.648842 49.810025 
L 218.851874 49.592936 
L 218.95339 49.568816 
L 219.257938 49.207002 
L 219.968886 49.134639 
L 221.592805 49.062276 
L 221.897017 49.014035 
L 222.100049 49.014035 
L 222.303081 48.965793 
L 222.506113 48.869309 
L 222.912177 48.89343 
L 223.216389 48.821067 
L 223.622452 48.821067 
L 224.43458 48.724584 
L 224.738792 48.700463 
L 225.753615 48.603979 
L 226.261195 48.555737 
L 226.768103 48.579858 
L 231.538009 48.507496 
L 231.842557 48.483375 
L 233.364288 48.459254 
L 233.56732 48.338649 
L 234.074563 48.290407 
L 234.582143 48.314528 
L 240.569232 48.290407 
L 240.97496 47.952715 
L 241.279508 47.204967 
L 241.685572 46.891395 
L 241.989783 46.095405 
L 242.395847 45.830075 
L 242.598879 45.275294 
L 242.903427 45.251173 
L 243.207975 45.299415 
L 244.933746 45.202931 
L 247.573161 44.575787 
L 247.776193 44.406941 
L 248.588321 44.310457 
L 249.298933 44.238095 
L 249.501629 43.996886 
L 250.516788 43.924523 
L 250.821 43.876281 
L 251.227064 43.803918 
L 252.140371 43.466226 
L 252.444583 43.466226 
L 252.952163 43.442105 
L 254.575746 43.345621 
L 254.98181 43.3215 
L 255.692086 43.393863 
L 258.432008 43.3215 
L 258.533524 43.176775 
L 258.736556 42.018971 
L 259.345316 41.826004 
L 259.954412 41.898367 
L 260.360139 41.801883 
L 260.867383 41.826004 
L 261.374963 41.801883 
L 262.186754 41.898367 
L 264.216402 41.898367 
L 264.520613 41.705399 
L 264.723645 41.72952 
L 265.332405 41.657158 
L 265.738469 41.681278 
L 266.246049 41.657158 
L 269.087823 41.657158 
L 269.189339 42.091334 
L 269.392371 41.174739 
L 269.595067 41.102377 
L 270.204163 41.030014 
L 270.508711 41.005893 
L 270.813595 40.957651 
L 271.219659 40.957651 
L 271.422354 40.764684 
L 272.03145 40.837047 
L 272.335998 40.885288 
L 272.843914 40.861168 
L 275.279961 40.957651 
L 276.295457 41.126498 
L 276.802701 41.102377 
L 277.005733 41.102377 
L 277.412133 41.005893 
L 277.513648 41.030014 
L 277.71668 41.319465 
L 277.919712 41.247102 
L 278.021228 41.174739 
L 278.22426 41.19886 
L 279.036388 40.885288 
L 279.64582 40.93353 
L 279.848852 40.861168 
L 280.965527 40.692321 
L 281.168559 40.6682 
L 281.473107 40.475233 
L 281.777655 40.426991 
L 283.097363 40.330508 
L 283.50309 40.330508 
L 284.112186 40.378749 
L 284.620102 40.354628 
L 285.229198 40.282266 
L 285.53341 40.234024 
L 286.345538 40.161661 
L 286.954969 39.992815 
L 288.071645 39.896331 
L 288.477709 39.896331 
L 288.680741 39.896331 
L 289.391017 39.823968 
L 290.20348 39.920452 
L 290.507692 40.13754 
L 290.710724 39.582759 
L 291.015272 39.534518 
L 291.624368 39.510397 
L 291.92858 39.052099 
L 292.436159 38.955616 
L 292.740371 38.81089 
L 296.495117 38.714407 
L 296.900845 38.714407 
L 301.467383 38.81089 
L 302.177658 38.883253 
L 302.685238 38.859132 
L 304.511853 38.835011 
L 304.816401 37.821933 
L 305.729709 37.894296 
L 306.03392 37.918417 
L 306.439984 37.942538 
L 306.64268 37.894296 
L 306.947228 37.918417 
L 307.15026 37.894296 
L 307.759356 37.846054 
L 310.194731 37.918417 
L 310.397762 37.918417 
L 312.630105 37.821933 
L 312.934653 37.797812 
L 313.137685 37.846054 
L 313.543749 37.846054 
L 313.847961 36.15759 
L 314.254025 36.085228 
L 314.558572 36.036986 
L 314.86312 35.940502 
L 314.964636 36.205832 
L 315.167668 35.337479 
L 315.979796 35.216875 
L 316.284344 35.216875 
L 317.502872 34.927424 
L 317.705567 34.710336 
L 318.314663 34.613852 
L 318.720727 34.541489 
L 321.562166 34.637973 
L 321.663346 34.686215 
L 321.866377 34.589731 
L 322.069409 34.686215 
L 322.576653 34.734457 
L 322.881201 34.710336 
L 323.489961 34.806819 
L 323.896024 34.734457 
L 326.027524 34.686215 
L 326.230219 34.541489 
L 326.433251 34.131434 
L 327.346559 33.986709 
L 327.651107 34.03495 
L 328.564414 34.059071 
L 328.767446 34.420885 
L 328.970142 34.227918 
L 331.710401 34.30028 
L 332.116129 34.541489 
L 332.217645 34.710336 
L 332.42034 34.445006 
L 333.130952 34.155555 
L 333.435164 34.227918 
L 334.145439 34.155555 
L 334.348471 34.203797 
L 334.653019 34.686215 
L 334.855715 34.541489 
L 335.058747 34.348522 
L 335.565991 34.445006 
L 335.667843 34.662094 
L 335.769359 34.613852 
L 335.972391 34.372643 
L 336.378118 34.372643 
L 338.407765 34.324401 
L 338.509281 34.252039 
L 338.712313 34.445006 
L 339.118377 34.203797 
L 339.727137 34.27616 
L 340.031685 34.155555 
L 346.830901 34.252039 
L 347.236629 34.445006 
L 347.439661 34.324401 
L 347.744209 34.348522 
L 348.048757 34.348522 
L 348.65718 34.27616 
L 348.758696 34.324401 
L 348.962064 34.107313 
L 349.266612 34.155555 
L 350.687164 33.914346 
L 353.021022 33.817862 
L 353.32557 33.76962 
L 353.630118 33.7455 
L 356.9788 33.649016 
L 357.384864 33.649016 
L 360.632031 33.649016 
L 360.835063 33.552532 
L 364.995873 33.48017 
L 365.198905 33.431928 
L 365.706484 33.407807 
L 368.142195 33.311323 
L 368.852471 33.21484 
L 369.055503 33.190719 
L 369.258535 33.070114 
L 369.766115 32.346487 
L 370.171842 32.370608 
L 370.679086 32.322366 
L 371.08515 32.322366 
L 372.810249 32.41885 
L 373.114797 32.394729 
L 373.72322 32.346487 
L 374.12962 32.394729 
L 374.433832 32.322366 
L 374.73838 32.298245 
L 375.245624 32.394729 
L 375.448656 32.467091 
L 375.753204 32.587696 
L 375.85472 32.41885 
L 376.057751 32.467091 
L 376.666175 32.298245 
L 376.970723 32.274124 
L 382.450568 32.250003 
L 382.450568 32.250003 
" style="fill:none;stroke:#1f77b4;stroke-linecap:square;stroke-width:1.5;"/>
   </g>
   <g id="patch_3">
    <path d="M 62.86875 239.758125 
L 62.86875 22.318125 
" style="fill:none;stroke:#000000;stroke-linecap:square;stroke-linejoin:miter;stroke-width:0.8;"/>
   </g>
   <g id="patch_4">
    <path d="M 397.66875 239.758125 
L 397.66875 22.318125 
" style="fill:none;stroke:#000000;stroke-linecap:square;stroke-linejoin:miter;stroke-width:0.8;"/>
   </g>
   <g id="patch_5">
    <path d="M 62.86875 239.758125 
L 397.66875 239.758125 
" style="fill:none;stroke:#000000;stroke-linecap:square;stroke-linejoin:miter;stroke-width:0.8;"/>
   </g>
   <g id="patch_6">
    <path d="M 62.86875 22.318125 
L 397.66875 22.318125 
" style="fill:none;stroke:#000000;stroke-linecap:square;stroke-linejoin:miter;stroke-width:0.8;"/>
   </g>
   <g id="text_12">
    <!-- Experimental Current for Constant Voltage -->
    <defs>
     <path d="M 9.8125 72.90625 
L 55.90625 72.90625 
L 55.90625 64.59375 
L 19.671875 64.59375 
L 19.671875 43.015625 
L 54.390625 43.015625 
L 54.390625 34.71875 
L 19.671875 34.71875 
L 19.671875 8.296875 
L 56.78125 8.296875 
L 56.78125 0 
L 9.8125 0 
z
" id="DejaVuSans-45"/>
     <path d="M 54.890625 54.6875 
L 35.109375 28.078125 
L 55.90625 0 
L 45.3125 0 
L 29.390625 21.484375 
L 13.484375 0 
L 2.875 0 
L 24.125 28.609375 
L 4.6875 54.6875 
L 15.28125 54.6875 
L 29.78125 35.203125 
L 44.28125 54.6875 
z
" id="DejaVuSans-78"/>
     <path d="M 18.109375 8.203125 
L 18.109375 -20.796875 
L 9.078125 -20.796875 
L 9.078125 54.6875 
L 18.109375 54.6875 
L 18.109375 46.390625 
Q 20.953125 51.265625 25.265625 53.625 
Q 29.59375 56 35.59375 56 
Q 45.5625 56 51.78125 48.09375 
Q 58.015625 40.1875 58.015625 27.296875 
Q 58.015625 14.40625 51.78125 6.484375 
Q 45.5625 -1.421875 35.59375 -1.421875 
Q 29.59375 -1.421875 25.265625 0.953125 
Q 20.953125 3.328125 18.109375 8.203125 
M 48.6875 27.296875 
Q 48.6875 37.203125 44.609375 42.84375 
Q 40.53125 48.484375 33.40625 48.484375 
Q 26.265625 48.484375 22.1875 42.84375 
Q 18.109375 37.203125 18.109375 27.296875 
Q 18.109375 17.390625 22.1875 11.75 
Q 26.265625 6.109375 33.40625 6.109375 
Q 40.53125 6.109375 44.609375 11.75 
Q 48.6875 17.390625 48.6875 27.296875 
" id="DejaVuSans-70"/>
     <path d="M 34.28125 27.484375 
Q 23.390625 27.484375 19.1875 25 
Q 14.984375 22.515625 14.984375 16.5 
Q 14.984375 11.71875 18.140625 8.90625 
Q 21.296875 6.109375 26.703125 6.109375 
Q 34.1875 6.109375 38.703125 11.40625 
Q 43.21875 16.703125 43.21875 25.484375 
L 43.21875 27.484375 
z
M 52.203125 31.203125 
L 52.203125 0 
L 43.21875 0 
L 43.21875 8.296875 
Q 40.140625 3.328125 35.546875 0.953125 
Q 30.953125 -1.421875 24.3125 -1.421875 
Q 15.921875 -1.421875 10.953125 3.296875 
Q 6 8.015625 6 15.921875 
Q 6 25.140625 12.171875 29.828125 
Q 18.359375 34.515625 30.609375 34.515625 
L 43.21875 34.515625 
L 43.21875 35.40625 
Q 43.21875 41.609375 39.140625 45 
Q 35.0625 48.390625 27.6875 48.390625 
Q 23 48.390625 18.546875 47.265625 
Q 14.109375 46.140625 10.015625 43.890625 
L 10.015625 52.203125 
Q 14.9375 54.109375 19.578125 55.046875 
Q 24.21875 56 28.609375 56 
Q 40.484375 56 46.34375 49.84375 
Q 52.203125 43.703125 52.203125 31.203125 
" id="DejaVuSans-61"/>
     <path d="M 9.421875 75.984375 
L 18.40625 75.984375 
L 18.40625 0 
L 9.421875 0 
z
" id="DejaVuSans-6c"/>
     <path d="M 37.109375 75.984375 
L 37.109375 68.5 
L 28.515625 68.5 
Q 23.6875 68.5 21.796875 66.546875 
Q 19.921875 64.59375 19.921875 59.515625 
L 19.921875 54.6875 
L 34.71875 54.6875 
L 34.71875 47.703125 
L 19.921875 47.703125 
L 19.921875 0 
L 10.890625 0 
L 10.890625 47.703125 
L 2.296875 47.703125 
L 2.296875 54.6875 
L 10.890625 54.6875 
L 10.890625 58.5 
Q 10.890625 67.625 15.140625 71.796875 
Q 19.390625 75.984375 28.609375 75.984375 
z
" id="DejaVuSans-66"/>
     <path d="M 30.609375 48.390625 
Q 23.390625 48.390625 19.1875 42.75 
Q 14.984375 37.109375 14.984375 27.296875 
Q 14.984375 17.484375 19.15625 11.84375 
Q 23.34375 6.203125 30.609375 6.203125 
Q 37.796875 6.203125 41.984375 11.859375 
Q 46.1875 17.53125 46.1875 27.296875 
Q 46.1875 37.015625 41.984375 42.703125 
Q 37.796875 48.390625 30.609375 48.390625 
M 30.609375 56 
Q 42.328125 56 49.015625 48.375 
Q 55.71875 40.765625 55.71875 27.296875 
Q 55.71875 13.875 49.015625 6.21875 
Q 42.328125 -1.421875 30.609375 -1.421875 
Q 18.84375 -1.421875 12.171875 6.21875 
Q 5.515625 13.875 5.515625 27.296875 
Q 5.515625 40.765625 12.171875 48.375 
Q 18.84375 56 30.609375 56 
" id="DejaVuSans-6f"/>
     <path d="M 28.609375 0 
L 0.78125 72.90625 
L 11.078125 72.90625 
L 34.1875 11.53125 
L 57.328125 72.90625 
L 67.578125 72.90625 
L 39.796875 0 
z
" id="DejaVuSans-56"/>
     <path d="M 45.40625 27.984375 
Q 45.40625 37.75 41.375 43.109375 
Q 37.359375 48.484375 30.078125 48.484375 
Q 22.859375 48.484375 18.828125 43.109375 
Q 14.796875 37.75 14.796875 27.984375 
Q 14.796875 18.265625 18.828125 12.890625 
Q 22.859375 7.515625 30.078125 7.515625 
Q 37.359375 7.515625 41.375 12.890625 
Q 45.40625 18.265625 45.40625 27.984375 
M 54.390625 6.78125 
Q 54.390625 -7.171875 48.1875 -13.984375 
Q 42 -20.796875 29.203125 -20.796875 
Q 24.46875 -20.796875 20.265625 -20.09375 
Q 16.0625 -19.390625 12.109375 -17.921875 
L 12.109375 -9.1875 
Q 16.0625 -11.328125 19.921875 -12.34375 
Q 23.78125 -13.375 27.78125 -13.375 
Q 36.625 -13.375 41.015625 -8.765625 
Q 45.40625 -4.15625 45.40625 5.171875 
L 45.40625 9.625 
Q 42.625 4.78125 38.28125 2.390625 
Q 33.9375 0 27.875 0 
Q 17.828125 0 11.671875 7.65625 
Q 5.515625 15.328125 5.515625 27.984375 
Q 5.515625 40.671875 11.671875 48.328125 
Q 17.828125 56 27.875 56 
Q 33.9375 56 38.28125 53.609375 
Q 42.625 51.21875 45.40625 46.390625 
L 45.40625 54.6875 
L 54.390625 54.6875 
z
" id="DejaVuSans-67"/>
    </defs>
    <g transform="translate(101.671875 16.318125)scale(0.12 -0.12)">
     <use xlink:href="#DejaVuSans-45"/>
     <use x="63.183594" xlink:href="#DejaVuSans-78"/>
     <use x="122.363281" xlink:href="#DejaVuSans-70"/>
     <use x="185.839844" xlink:href="#DejaVuSans-65"/>
     <use x="247.363281" xlink:href="#DejaVuSans-72"/>
     <use x="288.476562" xlink:href="#DejaVuSans-69"/>
     <use x="316.259766" xlink:href="#DejaVuSans-6d"/>
     <use x="413.671875" xlink:href="#DejaVuSans-65"/>
     <use x="475.195312" xlink:href="#DejaVuSans-6e"/>
     <use x="538.574219" xlink:href="#DejaVuSans-74"/>
     <use x="577.783203" xlink:href="#DejaVuSans-61"/>
     <use x="639.0625" xlink:href="#DejaVuSans-6c"/>
     <use x="666.845703" xlink:href="#DejaVuSans-20"/>
     <use x="698.632812" xlink:href="#DejaVuSans-43"/>
     <use x="768.457031" xlink:href="#DejaVuSans-75"/>
     <use x="831.835938" xlink:href="#DejaVuSans-72"/>
     <use x="872.933594" xlink:href="#DejaVuSans-72"/>
     <use x="914.015625" xlink:href="#DejaVuSans-65"/>
     <use x="975.539062" xlink:href="#DejaVuSans-6e"/>
     <use x="1038.917969" xlink:href="#DejaVuSans-74"/>
     <use x="1078.126953" xlink:href="#DejaVuSans-20"/>
     <use x="1109.914062" xlink:href="#DejaVuSans-66"/>
     <use x="1145.119141" xlink:href="#DejaVuSans-6f"/>
     <use x="1206.300781" xlink:href="#DejaVuSans-72"/>
     <use x="1247.414062" xlink:href="#DejaVuSans-20"/>
     <use x="1279.201172" xlink:href="#DejaVuSans-43"/>
     <use x="1349.025391" xlink:href="#DejaVuSans-6f"/>
     <use x="1410.207031" xlink:href="#DejaVuSans-6e"/>
     <use x="1473.585938" xlink:href="#DejaVuSans-73"/>
     <use x="1525.685547" xlink:href="#DejaVuSans-74"/>
     <use x="1564.894531" xlink:href="#DejaVuSans-61"/>
     <use x="1626.173828" xlink:href="#DejaVuSans-6e"/>
     <use x="1689.552734" xlink:href="#DejaVuSans-74"/>
     <use x="1728.761719" xlink:href="#DejaVuSans-20"/>
     <use x="1760.548828" xlink:href="#DejaVuSans-56"/>
     <use x="1828.847656" xlink:href="#DejaVuSans-6f"/>
     <use x="1890.029297" xlink:href="#DejaVuSans-6c"/>
     <use x="1917.8125" xlink:href="#DejaVuSans-74"/>
     <use x="1957.021484" xlink:href="#DejaVuSans-61"/>
     <use x="2018.300781" xlink:href="#DejaVuSans-67"/>
     <use x="2081.777344" xlink:href="#DejaVuSans-65"/>
    </g>
   </g>
  </g>
 </g>
 <defs>
  <clipPath id="p73aa4314d2">
   <rect height="217.44" width="334.8" x="62.86875" y="22.318125"/>
  </clipPath>
 </defs>
</svg>
