<?xml version="1.0" encoding="UTF-8" standalone="no"?>
<!-- Created with Inkscape (http://www.inkscape.org/) -->

<svg
   xmlns:dc="http://purl.org/dc/elements/1.1/"
   xmlns:cc="http://creativecommons.org/ns#"
   xmlns:rdf="http://www.w3.org/1999/02/22-rdf-syntax-ns#"
   xmlns:svg="http://www.w3.org/2000/svg"
   xmlns="http://www.w3.org/2000/svg"
   xmlns:sodipodi="http://sodipodi.sourceforge.net/DTD/sodipodi-0.dtd"
   xmlns:inkscape="http://www.inkscape.org/namespaces/inkscape"
   width="175.40608mm"
   height="128.50471mm"
   viewBox="0 0 175.40608 128.50471"
   version="1.1"
   id="svg8"
   inkscape:version="0.92.1 r15371"
   sodipodi:docname="nims.svg">
  <defs
     id="defs2" />
  <sodipodi:namedview
     id="base"
     pagecolor="#ffffff"
     bordercolor="#666666"
     borderopacity="1.0"
     inkscape:pageopacity="0.0"
     inkscape:pageshadow="2"
     inkscape:zoom="0.64"
     inkscape:cx="117.41045"
     inkscape:cy="154.59976"
     inkscape:document-units="mm"
     inkscape:current-layer="layer1"
     showgrid="true"
     inkscape:pagecheckerboard="false"
     inkscape:showpageshadow="false"
     showborder="true"
     showguides="false"
     objecttolerance="5"
     inkscape:window-width="1920"
     inkscape:window-height="1080"
     inkscape:window-x="0"
     inkscape:window-y="0"
     inkscape:window-maximized="1"
     fit-margin-top="0"
     fit-margin-left="0"
     fit-margin-right="0"
     fit-margin-bottom="0">
    <inkscape:grid
       type="xygrid"
       id="grid3680"
       color="#515151"
       opacity="0.1254902"
       empcolor="#797979"
       empopacity="0.25098039"
       originx="37.888096"
       originy="8.941478" />
  </sodipodi:namedview>
  <metadata
     id="metadata5">
    <rdf:RDF>
      <cc:Work
         rdf:about="">
        <dc:format>image/svg+xml</dc:format>
        <dc:type
           rdf:resource="http://purl.org/dc/dcmitype/StillImage" />
        <dc:title></dc:title>
        <cc:license
           rdf:resource="http://creativecommons.org/publicdomain/zero/1.0/" />
      </cc:Work>
      <cc:License
         rdf:about="http://creativecommons.org/publicdomain/zero/1.0/">
        <cc:permits
           rdf:resource="http://creativecommons.org/ns#Reproduction" />
        <cc:permits
           rdf:resource="http://creativecommons.org/ns#Distribution" />
        <cc:permits
           rdf:resource="http://creativecommons.org/ns#DerivativeWorks" />
      </cc:License>
    </rdf:RDF>
  </metadata>
  <g
     inkscape:label="Layer 1"
     inkscape:groupmode="layer"
     id="layer1"
     transform="translate(37.888098,-177.43676)">
    <path
       style="display:inline;fill:#1d50a3;stroke-width:0.25400001;fill-opacity:1"
       d="m 87.862833,299.60349 c -0.2794,-0.2794 -0.508,-0.67552 -0.508,-0.88026 0,-0.20474 0.61506,-1.31917 1.36679,-2.4765 2.82689,-4.35212 4.87145,-9.26268 6.02368,-14.46748 0.82706,-3.736 0.95714,-11.0705 0.26792,-15.10692 -1.04925,-6.14486 -3.64113,-12.48967 -7.09197,-17.36084 -2.19017,-3.09163 -6.87279,-7.77425 -9.964421,-9.96442 -10.85603,-7.69065 -25.097085,-9.72697 -37.629535,-5.38063 -12.536535,4.34776 -22.256893,14.30471 -26.138825,26.77505 -0.456621,1.46685 -0.944783,2.81571 -1.084797,2.99747 -0.140021,0.18176 -0.607216,0.29606 -1.038217,0.254 -0.719286,-0.0702 -0.890376,-0.29043 -2.0836097,-2.68217 -7.4948887,-15.02291 -26.1269813,-19.87195 -40.0523643,-10.42372 -0.865514,0.58724 -2.634929,2.09383 -3.932034,3.34798 -2.195546,2.12283 -2.405985,2.26363 -3.048,2.03927 -0.522687,-0.18266 -0.708485,-0.43423 -0.767528,-1.03921 -0.0636,-0.65173 0.220415,-1.18693 1.547673,-2.91642 5.517043,-7.18898 34.8641796,-45.675 36.18802763,-47.4572 4.40456867,-5.92956 10.00255367,-10.01077 16.19118437,-11.80416 3.494635,-1.01271 5.436531,-1.22383 9.905021,-1.07686 4.762521,0.15663 7.368289,0.75802 11.248377,2.59604 4.432596,2.09974 8.481636,5.3194 11.177518,8.88798 0.633217,0.8382 1.229276,1.61475 1.324571,1.72567 0.0953,0.11091 2.293329,-2.57514 4.884515,-5.969 5.387229,-7.05604 6.701128,-8.56263 9.640163,-11.05391 12.26505,-10.39646 28.730701,-13.47811 43.766868,-8.19123 3.12188,1.09768 8.1375,3.72041 11.049,5.77764 3.06858,2.16822 8.00763,7.10771 10.22108,10.22198 3.6338,5.11266 6.4456,11.75209 7.59804,17.94103 0.66897,3.59258 0.8004,11.08517 0.25329,14.43982 -1.06412,6.52479 -3.21562,12.21334 -6.58056,17.399 -1.31961,2.03363 -40.066447,52.95827 -41.019357,53.9114 -0.58067,0.5808 -1.0891,0.562 -1.7145,-0.0634 z"
       id="path73-3"
       inkscape:connector-curvature="0"
       sodipodi:nodetypes="sscccccssccscccccscccscsccssscscs" />
    <path
       style="display:inline;fill:#1eb9ef;stroke-width:0.25400001;fill-opacity:1"
       d="m -15.074622,305.6892 c -0.526044,-0.13058 -1.383294,-0.4557 -1.904999,-0.72251 -2.00101,-1.02332 -2.819369,-2.23929 -7.552556,-11.22208 l -4.572,-8.67688 -0.06635,10.31588 -0.06635,10.31588 h -4.325611 -4.32561 l 0.07396,-13.5255 0.07396,-13.5255 0.712762,-1.45147 c 2.331552,-4.74796 8.443265,-5.65275 12.154468,-1.79936 0.585689,0.60813 2.604646,4.14436 5.461001,9.56502 l 4.53177,8.60019 0.06638,-10.18769 0.06638,-10.18769 h 4.323532 4.323533 l -0.07191,13.6525 -0.07191,13.6525 -0.67582,1.27 c -0.371703,0.6985 -1.057503,1.63562 -1.524,2.08249 -1.620457,1.55227 -4.537829,2.36369 -6.630628,1.84422 z m 43.808414,-0.15932 c -0.459817,-0.22662 -1.060074,-0.69687 -1.333902,-1.04499 -0.273833,-0.34811 -1.419209,-3.50337 -2.545281,-7.01167 -1.126075,-3.5083 -2.460652,-7.63603 -2.965723,-9.17273 l -0.918315,-2.794 -1.466551,9.779 c -0.806604,5.37845 -1.472097,9.92187 -1.478873,10.0965 -0.0093,0.24107 -1.051827,0.3175 -4.330322,0.3175 -3.943331,0 -4.317934,-0.0386 -4.317251,-0.4445 0.0021,-1.19834 3.863708,-26.26645 4.216059,-27.3685 1.301263,-4.07 5.37809,-6.14579 9.390446,-4.78132 0.855824,0.29103 1.707097,0.88055 2.691389,1.86382 l 1.439638,1.43814 1.72145,5.37518 c 0.946799,2.95635 1.793034,5.37518 1.880518,5.37518 0.08749,0 0.878695,-2.25238 1.758228,-5.00528 1.728835,-5.41117 2.204694,-6.37542 3.834887,-7.77081 3.933044,-3.36653 9.99432,-1.52798 11.55541,3.50509 0.352388,1.13611 4.183229,26.17118 4.183229,27.33795 0,0.44529 -0.268396,0.47505 -4.285017,0.47505 h -4.285015 l -0.428566,-2.8575 c -0.235712,-1.57163 -0.915326,-6.11505 -1.51025,-10.0965 l -1.081677,-7.239 -0.792248,2.413 c -0.435734,1.32715 -1.770179,5.45379 -2.965434,9.17032 -1.195252,3.71652 -2.399715,7.0453 -2.676583,7.39728 -1.093692,1.3904 -3.587536,1.88198 -5.290246,1.04279 z M -2.053175,289.44349 v -16.26828 l 4.2545,0.0696 4.2545,0.0696 v 16.129 16.129 l -4.2545,0.0696 -4.2545,0.0696 z m 55.937153,12.14056 0.06985,-4.13956 10.519936,-0.127 c 7.48591,-0.0904 10.547459,-0.20968 10.615399,-0.41369 0.0573,-0.17199 -3.236709,-1.52923 -8.233551,-3.39254 -9.373245,-3.49523 -9.863431,-3.71501 -11.357358,-5.09206 -3.700754,-3.41124 -3.734123,-9.24142 -0.0722,-12.61686 2.734831,-2.52088 3.269525,-2.60822 15.990279,-2.61184 l 10.6045,-0.003 v 4.06112 4.06112 l -10.2235,0.0664 c -9.763223,0.0634 -10.2235,0.0876 -10.2235,0.53746 0,0.38648 1.552591,1.0493 8.64575,3.69093 4.755161,1.77092 8.991362,3.46594 9.413761,3.76672 1.263089,0.8994 2.904641,2.82552 3.48714,4.09165 0.82981,1.80367 0.77965,5.02164 -0.107609,6.90262 -0.873911,1.85273 -2.525342,3.45801 -4.548042,4.42099 l -1.651,0.78601 -11.49985,0.0756 -11.49985,0.0756 z"
       id="path73-3-6"
       inkscape:connector-curvature="0"
       sodipodi:nodetypes="ccscccccccccscccccccccccccsccscscccccsssccsscssccssccccccccccccccccscccccsccccccccc" />
  </g>
</svg>
