<?xml version="1.0" encoding="UTF-8" standalone="no"?>
<!-- Created with Inkscape (http://www.inkscape.org/) -->

<svg
   xmlns:dc="http://purl.org/dc/elements/1.1/"
   xmlns:cc="http://creativecommons.org/ns#"
   xmlns:rdf="http://www.w3.org/1999/02/22-rdf-syntax-ns#"
   xmlns:svg="http://www.w3.org/2000/svg"
   xmlns="http://www.w3.org/2000/svg"
   xmlns:sodipodi="http://sodipodi.sourceforge.net/DTD/sodipodi-0.dtd"
   xmlns:inkscape="http://www.inkscape.org/namespaces/inkscape"
   width="42.215137mm"
   height="39.117035mm"
   viewBox="0 0 42.215137 39.117035"
   version="1.1"
   id="svg8"
   inkscape:version="0.92.1 r15371"
   sodipodi:docname="circuit.svg">
  <defs
     id="defs2" />
  <sodipodi:namedview
     id="base"
     pagecolor="#ffffff"
     bordercolor="#666666"
     borderopacity="1.0"
     inkscape:pageopacity="0.0"
     inkscape:pageshadow="2"
     inkscape:zoom="5.6"
     inkscape:cx="51.141542"
     inkscape:cy="70.000411"
     inkscape:document-units="mm"
     inkscape:current-layer="layer1"
     showgrid="true"
     inkscape:pagecheckerboard="false"
     inkscape:showpageshadow="false"
     showborder="true"
     showguides="false"
     objecttolerance="5"
     inkscape:window-width="1920"
     inkscape:window-height="1080"
     inkscape:window-x="0"
     inkscape:window-y="0"
     inkscape:window-maximized="1"
     fit-margin-top="0"
     fit-margin-left="0"
     fit-margin-right="0"
     fit-margin-bottom="0">
    <inkscape:grid
       type="xygrid"
       id="grid3680"
       color="#515151"
       opacity="0.1254902"
       empcolor="#797979"
       empopacity="0.25098039"
       originx="-34.177418"
       originy="-30.659769" />
  </sodipodi:namedview>
  <metadata
     id="metadata5">
    <rdf:RDF>
      <cc:Work
         rdf:about="">
        <dc:format>image/svg+xml</dc:format>
        <dc:type
           rdf:resource="http://purl.org/dc/dcmitype/StillImage" />
        <dc:title></dc:title>
        <cc:license
           rdf:resource="http://creativecommons.org/publicdomain/zero/1.0/" />
      </cc:Work>
      <cc:License
         rdf:about="http://creativecommons.org/publicdomain/zero/1.0/">
        <cc:permits
           rdf:resource="http://creativecommons.org/ns#Reproduction" />
        <cc:permits
           rdf:resource="http://creativecommons.org/ns#Distribution" />
        <cc:permits
           rdf:resource="http://creativecommons.org/ns#DerivativeWorks" />
      </cc:License>
    </rdf:RDF>
  </metadata>
  <g
     inkscape:label="Layer 1"
     inkscape:groupmode="layer"
     id="layer1"
     transform="translate(-34.177417,-227.2232)">
    <g
       id="g2601"
       style="stroke:#00ffff;stroke-opacity:1">
      <g
         id="g2274"
         style="stroke:#00ffff;stroke-opacity:1">
        <g
           transform="matrix(0.00254,0,0,0.00254,-41.539647,168.22003)"
           style="fill:#840000;fill-opacity:0;stroke:#00ffff;stroke-width:60;stroke-linecap:round;stroke-linejoin:round;stroke-opacity:1"
           id="g804">
          <path
             inkscape:connector-curvature="0"
             d="m 34270,38210 h -600"
             id="path796"
             style="stroke:#00ffff;stroke-opacity:1" />
          <path
             inkscape:connector-curvature="0"
             d="m 34270,37920 h -600 l 600,-350 h -600"
             id="path798"
             style="stroke:#00ffff;stroke-opacity:1" />
          <path
             inkscape:connector-curvature="0"
             d="m 34270,36970 v 350"
             id="path800"
             style="stroke:#00ffff;stroke-opacity:1" />
          <path
             inkscape:connector-curvature="0"
             d="m 34270,37140 h -600 l 90,60 50,60 30,60"
             id="path802"
             style="stroke:#00ffff;stroke-opacity:1" />
        </g>
        <g
           transform="matrix(0.00254,0,0,0.00254,-41.539647,168.22003)"
           style="fill:#840000;fill-opacity:0;stroke:#00ffff;stroke-width:100;stroke-linecap:round;stroke-linejoin:round;stroke-opacity:1"
           id="g808">
          <polyline
             fill="none;"
             points="34000,36500 33460,36800 33460,38580 34000,38580 34540,38580 34540,36800 34000,36500 "
             id="polyline806"
             style="stroke:#00ffff;stroke-opacity:1" />
        </g>
        <g
           transform="matrix(0.00254,0,0,0.00254,-41.539647,168.22003)"
           style="fill:#840000;fill-opacity:0;stroke:#00ffff;stroke-width:60;stroke-linecap:round;stroke-linejoin:round;stroke-opacity:1"
           id="g816">
          <path
             inkscape:connector-curvature="0"
             d="m 40270,38210 h -600"
             id="path810"
             style="stroke:#00ffff;stroke-opacity:1" />
          <path
             inkscape:connector-curvature="0"
             d="m 40270,37920 h -600 l 600,-350 h -600"
             id="path812"
             style="stroke:#00ffff;stroke-opacity:1" />
          <path
             inkscape:connector-curvature="0"
             d="m 39730,37320 -30,-30 -30,-60 v -140 l 30,-60 30,-30 60,-30 h 50 l 90,30 340,340 v -370"
             id="path814"
             style="stroke:#00ffff;stroke-opacity:1" />
        </g>
        <g
           transform="matrix(0.00254,0,0,0.00254,-41.539647,168.22003)"
           style="fill:#840000;fill-opacity:0;stroke:#00ffff;stroke-width:100;stroke-linecap:round;stroke-linejoin:round;stroke-opacity:1"
           id="g820">
          <polyline
             fill="none;"
             points="40000,36500 39460,36800 39460,38580 40000,38580 40540,38580 40540,36800 40000,36500 "
             id="polyline818"
             style="stroke:#00ffff;stroke-opacity:1" />
        </g>
        <g
           transform="matrix(0.00254,0,0,0.00254,-41.539647,168.22003)"
           style="fill:#840000;fill-opacity:0;stroke:#00ffff;stroke-width:60;stroke-linecap:round;stroke-linejoin:round;stroke-opacity:1"
           id="g834">
          <path
             inkscape:connector-curvature="0"
             d="m 44120,25670 h 110 l 60,30 60,60 20,110 v 200 l -20,120 -60,50 -60,30 h -110 l -60,-30 -60,-50 -30,-120 v -200 l 30,-110 60,-60 60,-30"
             id="path822"
             style="stroke:#00ffff;stroke-opacity:1" />
          <path
             inkscape:connector-curvature="0"
             d="m 44630,25670 v 490 l 30,50 30,30 60,30 h 110 l 60,-30 30,-30 30,-50 v -490"
             id="path824"
             style="stroke:#00ffff;stroke-opacity:1" />
          <path
             inkscape:connector-curvature="0"
             d="m 45180,25670 h 340"
             id="path826"
             style="stroke:#00ffff;stroke-opacity:1" />
          <path
             inkscape:connector-curvature="0"
             d="m 45350,26270 v -600"
             id="path828"
             style="stroke:#00ffff;stroke-opacity:1" />
          <path
             inkscape:connector-curvature="0"
             d="m 46040,26270 h -350"
             id="path830"
             style="stroke:#00ffff;stroke-opacity:1" />
          <path
             inkscape:connector-curvature="0"
             d="m 45870,26270 v -600 l -60,90 -60,50 -60,30"
             id="path832"
             style="stroke:#00ffff;stroke-opacity:1" />
        </g>
        <g
           transform="matrix(0.00254,0,0,0.00254,-41.539647,168.22003)"
           style="fill:#840000;fill-opacity:0;stroke:#00ffff;stroke-width:100;stroke-linecap:round;stroke-linejoin:round;stroke-opacity:1"
           id="g838">
          <polyline
             fill="none;"
             points="43500,26000 43800,26540 46380,26540 46380,26000 46380,25460 43800,25460 43500,26000 "
             id="polyline836"
             style="stroke:#00ffff;stroke-opacity:1" />
        </g>
        <g
           transform="matrix(0.00254,0,0,0.00254,-41.539647,168.22003)"
           style="fill:#840000;fill-opacity:0;stroke:#00ffff;stroke-width:60;stroke-linecap:round;stroke-linejoin:round;stroke-opacity:1"
           id="g850">
          <path
             inkscape:connector-curvature="0"
             d="m 44120,31670 h 110 l 60,30 60,60 20,110 v 200 l -20,120 -60,50 -60,30 h -110 l -60,-30 -60,-50 -30,-120 v -200 l 30,-110 60,-60 60,-30"
             id="path840"
             style="stroke:#00ffff;stroke-opacity:1" />
          <path
             inkscape:connector-curvature="0"
             d="m 44630,31670 v 490 l 30,50 30,30 60,30 h 110 l 60,-30 30,-30 30,-50 v -490"
             id="path842"
             style="stroke:#00ffff;stroke-opacity:1" />
          <path
             inkscape:connector-curvature="0"
             d="m 45180,31670 h 340"
             id="path844"
             style="stroke:#00ffff;stroke-opacity:1" />
          <path
             inkscape:connector-curvature="0"
             d="m 45350,32270 v -600"
             id="path846"
             style="stroke:#00ffff;stroke-opacity:1" />
          <path
             inkscape:connector-curvature="0"
             d="m 45690,31730 30,-30 60,-30 h 140 l 60,30 30,30 30,60 v 50 l -30,90 -340,340 h 370"
             id="path848"
             style="stroke:#00ffff;stroke-opacity:1" />
        </g>
        <g
           transform="matrix(0.00254,0,0,0.00254,-41.539647,168.22003)"
           style="fill:#840000;fill-opacity:0;stroke:#00ffff;stroke-width:100;stroke-linecap:round;stroke-linejoin:round;stroke-opacity:1"
           id="g854">
          <polyline
             fill="none;"
             points="43500,32000 43800,32540 46380,32540 46380,32000 46380,31460 43800,31460 43500,32000 "
             id="polyline852"
             style="stroke:#00ffff;stroke-opacity:1" />
        </g>
      </g>
      <g
         id="g882"
         style="fill:#840000;fill-opacity:0;stroke:#00ffff;stroke-width:60;stroke-linecap:round;stroke-linejoin:round;stroke-opacity:1"
         transform="matrix(0.00254,0,0,0.00254,-41.539647,168.22003)">
        <polyline
           id="polyline876"
           points="30200,24500 30500,24000 "
           fill="none;"
           style="stroke:#00ffff;stroke-opacity:1" />
        <polyline
           id="polyline878"
           points="30500,25000 30500,24000 "
           fill="none;"
           style="stroke:#00ffff;stroke-opacity:1" />
        <polyline
           id="polyline880"
           points="30500,24000 30800,24500 "
           fill="none;"
           style="stroke:#00ffff;stroke-opacity:1" />
      </g>
    </g>
    <g
       id="g2564"
       style="stroke:#ff8484;stroke-opacity:1">
      <g
         id="g624"
         style="fill:#008484;fill-opacity:0;stroke:#ff8484;stroke-width:60;stroke-linecap:round;stroke-linejoin:round;stroke-opacity:1"
         transform="matrix(0.00254,0,0,0.00254,-41.539647,168.22003)">
        <path
           id="path604"
           d="m 39800,24550 -20,50 -50,40 -70,70 -20,50 v 50"
           inkscape:connector-curvature="0"
           style="stroke:#ff8484;stroke-opacity:1" />
        <path
           id="path606"
           d="m 39760,24790 -30,40 -50,50 -90,20 h -170 l -90,-20 -50,-50 -20,-40 v -100 l 20,-50 50,-40 90,-30 h 170 l 90,30 50,40 30,50 v 100"
           inkscape:connector-curvature="0"
           style="stroke:#ff8484;stroke-opacity:1" />
        <path
           id="path608"
           d="m 39420,24150 h 340"
           inkscape:connector-curvature="0"
           style="stroke:#ff8484;stroke-opacity:1" />
        <path
           id="path610"
           d="m 39230,24270 360,110 v -300"
           inkscape:connector-curvature="0"
           style="stroke:#ff8484;stroke-opacity:1" />
        <path
           id="path612"
           d="m 40490,24710 v 170"
           inkscape:connector-curvature="0"
           style="stroke:#ff8484;stroke-opacity:1" />
        <path
           id="path614"
           d="m 40760,24880 h -500 v -240"
           inkscape:connector-curvature="0"
           style="stroke:#ff8484;stroke-opacity:1" />
        <path
           id="path616"
           d="m 40490,24450 v -170"
           inkscape:connector-curvature="0"
           style="stroke:#ff8484;stroke-opacity:1" />
        <path
           id="path618"
           d="m 40760,24210 v 240 h -500 v -240"
           inkscape:connector-curvature="0"
           style="stroke:#ff8484;stroke-opacity:1" />
        <path
           id="path620"
           d="m 40260,24070 v -280"
           inkscape:connector-curvature="0"
           style="stroke:#ff8484;stroke-opacity:1" />
        <path
           id="path622"
           d="m 40760,23930 h -500"
           inkscape:connector-curvature="0"
           style="stroke:#ff8484;stroke-opacity:1" />
      </g>
      <g
         id="g680"
         style="fill:#008484;fill-opacity:0;stroke:#ff8484;stroke-width:60;stroke-linecap:round;stroke-linejoin:round;stroke-opacity:1"
         transform="matrix(0.00254,0,0,0.00254,-41.539647,168.22003)">
        <path
           id="path662"
           d="m 33800,24550 -20,50 -50,40 -70,70 -20,50 v 50"
           inkscape:connector-curvature="0"
           style="stroke:#ff8484;stroke-opacity:1" />
        <path
           id="path664"
           d="m 33760,24790 -30,40 -50,50 -90,20 h -170 l -90,-20 -50,-50 -20,-40 v -100 l 20,-50 50,-40 90,-30 h 170 l 90,30 50,40 30,50 v 100"
           inkscape:connector-curvature="0"
           style="stroke:#ff8484;stroke-opacity:1" />
        <path
           id="path666"
           d="m 33300,24380 -20,-20 -20,-50 v -120 l 20,-40 20,-30 50,-20 h 50 l 70,20 290,290 v -310"
           inkscape:connector-curvature="0"
           style="stroke:#ff8484;stroke-opacity:1" />
        <path
           id="path668"
           d="m 34490,24710 v 170"
           inkscape:connector-curvature="0"
           style="stroke:#ff8484;stroke-opacity:1" />
        <path
           id="path670"
           d="m 34760,24880 h -500 v -240"
           inkscape:connector-curvature="0"
           style="stroke:#ff8484;stroke-opacity:1" />
        <path
           id="path672"
           d="m 34490,24450 v -170"
           inkscape:connector-curvature="0"
           style="stroke:#ff8484;stroke-opacity:1" />
        <path
           id="path674"
           d="m 34760,24210 v 240 h -500 v -240"
           inkscape:connector-curvature="0"
           style="stroke:#ff8484;stroke-opacity:1" />
        <path
           id="path676"
           d="m 34260,24070 v -280"
           inkscape:connector-curvature="0"
           style="stroke:#ff8484;stroke-opacity:1" />
        <path
           id="path678"
           d="m 34760,23930 h -500"
           inkscape:connector-curvature="0"
           style="stroke:#ff8484;stroke-opacity:1" />
      </g>
      <g
         id="g736"
         style="fill:#008484;fill-opacity:0;stroke:#ff8484;stroke-width:60;stroke-linecap:round;stroke-linejoin:round;stroke-opacity:1"
         transform="matrix(0.00254,0,0,0.00254,-41.539647,168.22003)">
        <path
           id="path718"
           d="m 39800,30550 -20,50 -50,40 -70,70 -20,50 v 50"
           inkscape:connector-curvature="0"
           style="stroke:#ff8484;stroke-opacity:1" />
        <path
           id="path720"
           d="m 39760,30790 -30,40 -50,50 -90,20 h -170 l -90,-20 -50,-50 -20,-40 v -100 l 20,-50 50,-40 90,-30 h 170 l 90,30 50,40 30,50 v 100"
           inkscape:connector-curvature="0"
           style="stroke:#ff8484;stroke-opacity:1" />
        <path
           id="path722"
           d="m 39260,30410 v -310 l 190,170 v -80 l 20,-40 20,-30 50,-20 h 120 l 50,20 20,30 30,40 v 150 l -30,40 -20,30"
           inkscape:connector-curvature="0"
           style="stroke:#ff8484;stroke-opacity:1" />
        <path
           id="path724"
           d="m 40490,30710 v 170"
           inkscape:connector-curvature="0"
           style="stroke:#ff8484;stroke-opacity:1" />
        <path
           id="path726"
           d="m 40760,30880 h -500 v -240"
           inkscape:connector-curvature="0"
           style="stroke:#ff8484;stroke-opacity:1" />
        <path
           id="path728"
           d="m 40490,30450 v -170"
           inkscape:connector-curvature="0"
           style="stroke:#ff8484;stroke-opacity:1" />
        <path
           id="path730"
           d="m 40760,30210 v 240 h -500 v -240"
           inkscape:connector-curvature="0"
           style="stroke:#ff8484;stroke-opacity:1" />
        <path
           id="path732"
           d="m 40260,30070 v -280"
           inkscape:connector-curvature="0"
           style="stroke:#ff8484;stroke-opacity:1" />
        <path
           id="path734"
           d="m 40760,29930 h -500"
           inkscape:connector-curvature="0"
           style="stroke:#ff8484;stroke-opacity:1" />
      </g>
      <g
         id="g794"
         style="fill:#008484;fill-opacity:0;stroke:#ff8484;stroke-width:60;stroke-linecap:round;stroke-linejoin:round;stroke-opacity:1"
         transform="matrix(0.00254,0,0,0.00254,-41.539647,168.22003)">
        <path
           id="path774"
           d="m 33800,30550 -20,50 -50,40 -70,70 -20,50 v 50"
           inkscape:connector-curvature="0"
           style="stroke:#ff8484;stroke-opacity:1" />
        <path
           id="path776"
           d="m 33760,30790 -30,40 -50,50 -90,20 h -170 l -90,-20 -50,-50 -20,-40 v -100 l 20,-50 50,-40 90,-30 h 170 l 90,30 50,40 30,50 v 100"
           inkscape:connector-curvature="0"
           style="stroke:#ff8484;stroke-opacity:1" />
        <path
           id="path778"
           d="m 33760,30100 v 280"
           inkscape:connector-curvature="0"
           style="stroke:#ff8484;stroke-opacity:1" />
        <path
           id="path780"
           d="m 33760,30240 h -500 l 70,50 50,50 20,40"
           inkscape:connector-curvature="0"
           style="stroke:#ff8484;stroke-opacity:1" />
        <path
           id="path782"
           d="m 34490,30710 v 170"
           inkscape:connector-curvature="0"
           style="stroke:#ff8484;stroke-opacity:1" />
        <path
           id="path784"
           d="m 34760,30880 h -500 v -240"
           inkscape:connector-curvature="0"
           style="stroke:#ff8484;stroke-opacity:1" />
        <path
           id="path786"
           d="m 34490,30450 v -170"
           inkscape:connector-curvature="0"
           style="stroke:#ff8484;stroke-opacity:1" />
        <path
           id="path788"
           d="m 34760,30210 v 240 h -500 v -240"
           inkscape:connector-curvature="0"
           style="stroke:#ff8484;stroke-opacity:1" />
        <path
           id="path790"
           d="m 34260,30070 v -280"
           inkscape:connector-curvature="0"
           style="stroke:#ff8484;stroke-opacity:1" />
        <path
           id="path792"
           d="m 34760,29930 h -500"
           inkscape:connector-curvature="0"
           style="stroke:#ff8484;stroke-opacity:1" />
      </g>
      <g
         id="g890"
         style="fill:#008484;fill-opacity:0;stroke:#ff8484;stroke-width:60;stroke-linecap:round;stroke-linejoin:round;stroke-opacity:1"
         transform="matrix(0.00254,0,0,0.00254,-41.539647,168.22003)">
        <path
           id="path884"
           d="m 29840,23260 160,500 170,-500"
           inkscape:connector-curvature="0"
           style="stroke:#ff8484;stroke-opacity:1" />
        <path
           id="path886"
           d="m 30340,23760 v -500 h 190 l 50,20 20,20 20,50 v 70 l -20,50 -20,20 -50,30 h -190"
           inkscape:connector-curvature="0"
           style="stroke:#ff8484;stroke-opacity:1" />
        <path
           id="path888"
           d="m 30840,23760 v -500 h 190 l 50,20 20,20 20,50 v 70 l -20,50 -20,20 -50,30 h -190"
           inkscape:connector-curvature="0"
           style="stroke:#ff8484;stroke-opacity:1" />
      </g>
    </g>
    <g
       id="g1437"
       style="fill:#ff00ff;fill-opacity:1;stroke:#ff00fe;stroke-opacity:1">
      <g
         id="g870"
         style="fill:#ff00ff;fill-opacity:1;stroke:#ff00fe;stroke-width:60;stroke-linecap:round;stroke-linejoin:round;stroke-opacity:1"
         transform="matrix(0.00254,0,0,0.00254,-41.539647,168.22003)">
        <path
           id="path858"
           d="M 43500,26000 H 42000"
           inkscape:connector-curvature="0"
           style="fill:#ff00ff;fill-opacity:1;stroke:#ff00fe;stroke-opacity:1" />
        <path
           id="path860"
           d="M 43500,32000 H 42000"
           inkscape:connector-curvature="0"
           style="fill:#ff00ff;fill-opacity:1;stroke:#ff00fe;stroke-opacity:1" />
        <path
           id="path862"
           d="m 40000,29000 v 7500"
           inkscape:connector-curvature="0"
           style="fill:#ff00ff;fill-opacity:1;stroke:#ff00fe;stroke-opacity:1" />
        <path
           id="path864"
           d="m 34000,29000 v 7500"
           inkscape:connector-curvature="0"
           style="fill:#ff00ff;fill-opacity:1;stroke:#ff00fe;stroke-opacity:1" />
        <path
           id="path866"
           d="m 36000,32000 h 2000"
           inkscape:connector-curvature="0"
           style="fill:#ff00ff;fill-opacity:1;stroke:#ff00fe;stroke-opacity:1" />
        <path
           id="path868"
           d="m 36000,26000 h 2000"
           inkscape:connector-curvature="0"
           style="fill:#ff00ff;fill-opacity:1;stroke:#ff00fe;stroke-opacity:1" />
      </g>
      <g
         id="g1421"
         style="fill:#ff00ff;fill-opacity:1;stroke:#ff00fe;stroke-opacity:1">
        <g
           transform="matrix(0.00254,0,0,0.00254,-41.539647,168.22003)"
           style="fill:#ff00ff;fill-opacity:1;stroke:#ff00fe;stroke-width:60;stroke-linecap:round;stroke-linejoin:round;stroke-opacity:1"
           id="g898">
          <path
             inkscape:connector-curvature="0"
             d="m 30500,25000 v 7000"
             id="path892"
             style="fill:#ff00ff;fill-opacity:1;stroke:#ff00fe;stroke-opacity:1" />
          <path
             inkscape:connector-curvature="0"
             d="m 30500,32000 h 1500"
             id="path894"
             style="fill:#ff00ff;fill-opacity:1;stroke:#ff00fe;stroke-opacity:1" />
          <path
             inkscape:connector-curvature="0"
             d="M 32000,26000 H 30500"
             id="path896"
             style="fill:#ff00ff;fill-opacity:1;stroke:#ff00fe;stroke-opacity:1" />
        </g>
        <g
           transform="matrix(0.00254,0,0,0.00254,-41.539647,168.22003)"
           style="fill:#ff00ff;fill-opacity:1;stroke:#ff00fe;stroke-width:100;stroke-linecap:round;stroke-linejoin:round;stroke-opacity:1"
           id="g904">
          <circle
             cx="30500"
             cy="26000"
             r="200"
             id="circle902"
             style="fill:#ff00ff;fill-opacity:1;stroke:#ff00fe;stroke-opacity:1" />
        </g>
      </g>
    </g>
    <g
       id="g2416"
       style="fill:none;fill-opacity:0.25;stroke:#06ffff;stroke-opacity:1">
      <g
         id="g2328"
         style="fill:none;fill-opacity:0.25;stroke:#06ffff;stroke-opacity:1">
        <g
           transform="matrix(0.00254,0,0,0.00254,-41.539647,168.22003)"
           style="fill:none;fill-opacity:0.25;stroke:#06ffff;stroke-width:100;stroke-linecap:round;stroke-linejoin:round;stroke-opacity:1"
           id="g576">
          <circle
             cx="40000"
             cy="26500"
             r="1110"
             id="circle572"
             style="fill:none;fill-opacity:0.25;stroke:#06ffff;stroke-opacity:1" />
          <polyline
             points="39250,26900 40750,26900 40750,26900 "
             id="polyline574"
             style="fill:none;fill-opacity:0.25;stroke:#06ffff;stroke-opacity:1" />
        </g>
        <g
           transform="matrix(0.00254,0,0,0.00254,-41.539647,168.22003)"
           style="fill:none;fill-opacity:0.25;stroke:#06ffff;stroke-width:60;stroke-linecap:round;stroke-linejoin:round;stroke-opacity:1"
           id="g582">
          <polyline
             points="41000,26000 40500,26000 40500,26900 "
             id="polyline578"
             style="fill:none;fill-opacity:0.25;stroke:#06ffff;stroke-opacity:1" />
          <polyline
             points="39000,26000 39450,26000 39450,26900 "
             id="polyline580"
             style="fill:none;fill-opacity:0.25;stroke:#06ffff;stroke-opacity:1" />
        </g>
        <g
           transform="matrix(0.00254,0,0,0.00254,-41.539647,168.22003)"
           style="fill:none;fill-opacity:0.25;stroke:#06ffff;stroke-width:60;stroke-linecap:round;stroke-linejoin:round;stroke-opacity:1"
           id="g586">
          <polyline
             style="fill:none;fill-opacity:0.25;fill-rule:evenodd;stroke:#06ffff;stroke-opacity:1"
             points="40000,27000 39850,27400 40150,27400 40000,27000 "
             id="polyline584" />
        </g>
        <g
           transform="matrix(0.00254,0,0,0.00254,-41.539647,168.22003)"
           style="fill:none;fill-opacity:0.25;stroke:#06ffff;stroke-width:60;stroke-linecap:round;stroke-linejoin:round;stroke-opacity:1"
           id="g602">
          <path
             inkscape:connector-curvature="0"
             d="M 39000,26000 H 38000"
             id="path588"
             style="fill:none;fill-opacity:0.25;stroke:#06ffff;stroke-opacity:1" />
          <path
             inkscape:connector-curvature="0"
             d="m 38640,26580 h -280"
             id="path590"
             style="fill:none;fill-opacity:0.25;stroke:#06ffff;stroke-opacity:1" />
          <path
             inkscape:connector-curvature="0"
             d="m 38500,26580 v -500 l -50,70 -50,50 -40,20"
             id="path592"
             style="fill:none;fill-opacity:0.25;stroke:#06ffff;stroke-opacity:1" />
          <path
             inkscape:connector-curvature="0"
             d="m 40000,26900 v 2100"
             id="path594"
             style="fill:none;fill-opacity:0.25;stroke:#06ffff;stroke-opacity:1" />
          <path
             inkscape:connector-curvature="0"
             d="m 40120,28090 -20,-20 -20,-50 v -120 l 20,-40 20,-30 50,-20 h 50 l 70,20 290,290 v -310"
             id="path596"
             style="fill:none;fill-opacity:0.25;stroke:#06ffff;stroke-opacity:1" />
          <path
             inkscape:connector-curvature="0"
             d="m 41000,26000 h 1000"
             id="path598"
             style="fill:none;fill-opacity:0.25;stroke:#06ffff;stroke-opacity:1" />
          <path
             inkscape:connector-curvature="0"
             d="m 41330,26080 h 310 l -170,190 h 80 l 40,20 30,20 20,50 v 120 l -20,50 -30,20 -40,30 h -150 l -40,-30 -30,-20"
             id="path600"
             style="fill:none;fill-opacity:0.25;stroke:#06ffff;stroke-opacity:1" />
        </g>
      </g>
      <g
         id="g2346"
         style="fill:none;fill-opacity:0.25;stroke:#06ffff;stroke-opacity:1">
        <g
           transform="matrix(0.00254,0,0,0.00254,-41.539647,168.22003)"
           style="fill:none;fill-opacity:0.25;stroke:#06ffff;stroke-width:100;stroke-linecap:round;stroke-linejoin:round;stroke-opacity:1"
           id="g634">
          <circle
             cx="34000"
             cy="26500"
             r="1110"
             id="circle630"
             style="fill:none;fill-opacity:0.25;stroke:#06ffff;stroke-opacity:1" />
          <polyline
             points="33250,26900 34750,26900 34750,26900 "
             id="polyline632"
             style="fill:none;fill-opacity:0.25;stroke:#06ffff;stroke-opacity:1" />
        </g>
        <g
           transform="matrix(0.00254,0,0,0.00254,-41.539647,168.22003)"
           style="fill:none;fill-opacity:0.25;stroke:#06ffff;stroke-width:60;stroke-linecap:round;stroke-linejoin:round;stroke-opacity:1"
           id="g640">
          <polyline
             points="35000,26000 34500,26000 34500,26900 "
             id="polyline636"
             style="fill:none;fill-opacity:0.25;stroke:#06ffff;stroke-opacity:1" />
          <polyline
             points="33000,26000 33450,26000 33450,26900 "
             id="polyline638"
             style="fill:none;fill-opacity:0.25;stroke:#06ffff;stroke-opacity:1" />
        </g>
        <g
           transform="matrix(0.00254,0,0,0.00254,-41.539647,168.22003)"
           style="fill:none;fill-opacity:0.25;stroke:#06ffff;stroke-width:60;stroke-linecap:round;stroke-linejoin:round;stroke-opacity:1"
           id="g644">
          <polyline
             style="fill:none;fill-opacity:0.25;fill-rule:evenodd;stroke:#06ffff;stroke-opacity:1"
             points="34000,27000 33850,27400 34150,27400 34000,27000 "
             id="polyline642" />
        </g>
        <g
           transform="matrix(0.00254,0,0,0.00254,-41.539647,168.22003)"
           style="fill:none;fill-opacity:0.25;stroke:#06ffff;stroke-width:60;stroke-linecap:round;stroke-linejoin:round;stroke-opacity:1"
           id="g660">
          <path
             inkscape:connector-curvature="0"
             d="M 33000,26000 H 32000"
             id="path646"
             style="fill:none;fill-opacity:0.25;stroke:#06ffff;stroke-opacity:1" />
          <path
             inkscape:connector-curvature="0"
             d="m 32640,26580 h -280"
             id="path648"
             style="fill:none;fill-opacity:0.25;stroke:#06ffff;stroke-opacity:1" />
          <path
             inkscape:connector-curvature="0"
             d="m 32500,26580 v -500 l -50,70 -50,50 -40,20"
             id="path650"
             style="fill:none;fill-opacity:0.25;stroke:#06ffff;stroke-opacity:1" />
          <path
             inkscape:connector-curvature="0"
             d="m 34000,26900 v 2100"
             id="path652"
             style="fill:none;fill-opacity:0.25;stroke:#06ffff;stroke-opacity:1" />
          <path
             inkscape:connector-curvature="0"
             d="m 34120,28090 -20,-20 -20,-50 v -120 l 20,-40 20,-30 50,-20 h 50 l 70,20 290,290 v -310"
             id="path654"
             style="fill:none;fill-opacity:0.25;stroke:#06ffff;stroke-opacity:1" />
          <path
             inkscape:connector-curvature="0"
             d="m 35000,26000 h 1000"
             id="path656"
             style="fill:none;fill-opacity:0.25;stroke:#06ffff;stroke-opacity:1" />
          <path
             inkscape:connector-curvature="0"
             d="m 35330,26080 h 310 l -170,190 h 80 l 40,20 30,20 20,50 v 120 l -20,50 -30,20 -40,30 h -150 l -40,-30 -30,-20"
             id="path658"
             style="fill:none;fill-opacity:0.25;stroke:#06ffff;stroke-opacity:1" />
        </g>
      </g>
      <g
         id="g2310"
         style="fill:none;fill-opacity:0.25;stroke:#06ffff;stroke-opacity:1">
        <g
           transform="matrix(0.00254,0,0,0.00254,-41.539647,168.22003)"
           style="fill:none;fill-opacity:0.25;stroke:#06ffff;stroke-width:100;stroke-linecap:round;stroke-linejoin:round;stroke-opacity:1"
           id="g690">
          <circle
             cx="40000"
             cy="32500"
             r="1110"
             id="circle686"
             style="fill:none;fill-opacity:0.25;stroke:#06ffff;stroke-opacity:1" />
          <polyline
             points="39250,32900 40750,32900 40750,32900 "
             id="polyline688"
             style="fill:none;fill-opacity:0.25;stroke:#06ffff;stroke-opacity:1" />
        </g>
        <g
           transform="matrix(0.00254,0,0,0.00254,-41.539647,168.22003)"
           style="fill:none;fill-opacity:0.25;stroke:#06ffff;stroke-width:60;stroke-linecap:round;stroke-linejoin:round;stroke-opacity:1"
           id="g696">
          <polyline
             points="41000,32000 40500,32000 40500,32900 "
             id="polyline692"
             style="fill:none;fill-opacity:0.25;stroke:#06ffff;stroke-opacity:1" />
          <polyline
             points="39000,32000 39450,32000 39450,32900 "
             id="polyline694"
             style="fill:none;fill-opacity:0.25;stroke:#06ffff;stroke-opacity:1" />
        </g>
        <g
           transform="matrix(0.00254,0,0,0.00254,-41.539647,168.22003)"
           style="fill:none;fill-opacity:0.25;stroke:#06ffff;stroke-width:60;stroke-linecap:round;stroke-linejoin:round;stroke-opacity:1"
           id="g700">
          <polyline
             style="fill:none;fill-opacity:0.25;fill-rule:evenodd;stroke:#06ffff;stroke-opacity:1"
             points="40000,33000 39850,33400 40150,33400 40000,33000 "
             id="polyline698" />
        </g>
        <g
           transform="matrix(0.00254,0,0,0.00254,-41.539647,168.22003)"
           style="fill:none;fill-opacity:0.25;stroke:#06ffff;stroke-width:60;stroke-linecap:round;stroke-linejoin:round;stroke-opacity:1"
           id="g716">
          <path
             inkscape:connector-curvature="0"
             d="M 39000,32000 H 38000"
             id="path702"
             style="fill:none;fill-opacity:0.25;stroke:#06ffff;stroke-opacity:1" />
          <path
             inkscape:connector-curvature="0"
             d="m 38640,32580 h -280"
             id="path704"
             style="fill:none;fill-opacity:0.25;stroke:#06ffff;stroke-opacity:1" />
          <path
             inkscape:connector-curvature="0"
             d="m 38500,32580 v -500 l -50,70 -50,50 -40,20"
             id="path706"
             style="fill:none;fill-opacity:0.25;stroke:#06ffff;stroke-opacity:1" />
          <path
             inkscape:connector-curvature="0"
             d="m 40000,32900 v 2100"
             id="path708"
             style="fill:none;fill-opacity:0.25;stroke:#06ffff;stroke-opacity:1" />
          <path
             inkscape:connector-curvature="0"
             d="m 40120,34090 -20,-20 -20,-50 v -120 l 20,-40 20,-30 50,-20 h 50 l 70,20 290,290 v -310"
             id="path710"
             style="fill:none;fill-opacity:0.25;stroke:#06ffff;stroke-opacity:1" />
          <path
             inkscape:connector-curvature="0"
             d="m 41000,32000 h 1000"
             id="path712"
             style="fill:none;fill-opacity:0.25;stroke:#06ffff;stroke-opacity:1" />
          <path
             inkscape:connector-curvature="0"
             d="m 41330,32080 h 310 l -170,190 h 80 l 40,20 30,20 20,50 v 120 l -20,50 -30,20 -40,30 h -150 l -40,-30 -30,-20"
             id="path714"
             style="fill:none;fill-opacity:0.25;stroke:#06ffff;stroke-opacity:1" />
        </g>
      </g>
      <g
         id="g2292"
         style="fill:none;fill-opacity:0.25;stroke:#06ffff;stroke-opacity:1">
        <g
           transform="matrix(0.00254,0,0,0.00254,-41.539647,168.22003)"
           style="fill:none;fill-opacity:0.25;stroke:#06ffff;stroke-width:100;stroke-linecap:round;stroke-linejoin:round;stroke-opacity:1"
           id="g746">
          <circle
             cx="34000"
             cy="32500"
             r="1110"
             id="circle742"
             style="fill:none;fill-opacity:0.25;stroke:#06ffff;stroke-opacity:1" />
          <polyline
             points="33250,32900 34750,32900 34750,32900 "
             id="polyline744"
             style="fill:none;fill-opacity:0.25;stroke:#06ffff;stroke-opacity:1" />
        </g>
        <g
           transform="matrix(0.00254,0,0,0.00254,-41.539647,168.22003)"
           style="fill:none;fill-opacity:0.25;stroke:#06ffff;stroke-width:60;stroke-linecap:round;stroke-linejoin:round;stroke-opacity:1"
           id="g752">
          <polyline
             points="35000,32000 34500,32000 34500,32900 "
             id="polyline748"
             style="fill:none;fill-opacity:0.25;stroke:#06ffff;stroke-opacity:1" />
          <polyline
             points="33000,32000 33450,32000 33450,32900 "
             id="polyline750"
             style="fill:none;fill-opacity:0.25;stroke:#06ffff;stroke-opacity:1" />
        </g>
        <g
           transform="matrix(0.00254,0,0,0.00254,-41.539647,168.22003)"
           style="fill:none;fill-opacity:0.25;stroke:#06ffff;stroke-width:60;stroke-linecap:round;stroke-linejoin:round;stroke-opacity:1"
           id="g756">
          <polyline
             style="fill:none;fill-opacity:0.25;fill-rule:evenodd;stroke:#06ffff;stroke-opacity:1"
             points="34000,33000 33850,33400 34150,33400 34000,33000 "
             id="polyline754" />
        </g>
        <g
           transform="matrix(0.00254,0,0,0.00254,-41.539647,168.22003)"
           style="fill:none;fill-opacity:0.25;stroke:#06ffff;stroke-width:60;stroke-linecap:round;stroke-linejoin:round;stroke-opacity:1"
           id="g772">
          <path
             inkscape:connector-curvature="0"
             d="M 33000,32000 H 32000"
             id="path758"
             style="fill:none;fill-opacity:0.25;stroke:#06ffff;stroke-opacity:1" />
          <path
             inkscape:connector-curvature="0"
             d="m 32640,32580 h -280"
             id="path760"
             style="fill:none;fill-opacity:0.25;stroke:#06ffff;stroke-opacity:1" />
          <path
             inkscape:connector-curvature="0"
             d="m 32500,32580 v -500 l -50,70 -50,50 -40,20"
             id="path762"
             style="fill:none;fill-opacity:0.25;stroke:#06ffff;stroke-opacity:1" />
          <path
             inkscape:connector-curvature="0"
             d="m 34000,32900 v 2100"
             id="path764"
             style="fill:none;fill-opacity:0.25;stroke:#06ffff;stroke-opacity:1" />
          <path
             inkscape:connector-curvature="0"
             d="m 34120,34090 -20,-20 -20,-50 v -120 l 20,-40 20,-30 50,-20 h 50 l 70,20 290,290 v -310"
             id="path766"
             style="fill:none;fill-opacity:0.25;stroke:#06ffff;stroke-opacity:1" />
          <path
             inkscape:connector-curvature="0"
             d="m 35000,32000 h 1000"
             id="path768"
             style="fill:none;fill-opacity:0.25;stroke:#06ffff;stroke-opacity:1" />
          <path
             inkscape:connector-curvature="0"
             d="m 35330,32080 h 310 l -170,190 h 80 l 40,20 30,20 20,50 v 120 l -20,50 -30,20 -40,30 h -150 l -40,-30 -30,-20"
             id="path770"
             style="fill:none;fill-opacity:0.25;stroke:#06ffff;stroke-opacity:1" />
        </g>
      </g>
    </g>
  </g>
</svg>
