<?xml version="1.0" encoding="UTF-8" standalone="no"?>
<!-- Created with Inkscape (http://www.inkscape.org/) -->

<svg
   xmlns:dc="http://purl.org/dc/elements/1.1/"
   xmlns:cc="http://creativecommons.org/ns#"
   xmlns:rdf="http://www.w3.org/1999/02/22-rdf-syntax-ns#"
   xmlns:svg="http://www.w3.org/2000/svg"
   xmlns="http://www.w3.org/2000/svg"
   xmlns:sodipodi="http://sodipodi.sourceforge.net/DTD/sodipodi-0.dtd"
   xmlns:inkscape="http://www.inkscape.org/namespaces/inkscape"
   width="136.0363mm"
   height="76.541466mm"
   viewBox="0 0 136.0363 76.541466"
   version="1.1"
   id="svg8"
   inkscape:version="0.92.1 r15371"
   sodipodi:docname="mana.svg">
  <defs
     id="defs2" />
  <sodipodi:namedview
     id="base"
     pagecolor="#ffffff"
     bordercolor="#666666"
     borderopacity="1.0"
     inkscape:pageopacity="0.0"
     inkscape:pageshadow="2"
     inkscape:zoom="2"
     inkscape:cx="108.37528"
     inkscape:cy="135.56533"
     inkscape:document-units="mm"
     inkscape:current-layer="layer1"
     showgrid="true"
     inkscape:pagecheckerboard="false"
     inkscape:showpageshadow="false"
     showborder="true"
     showguides="false"
     objecttolerance="5"
     inkscape:window-width="1920"
     inkscape:window-height="1080"
     inkscape:window-x="0"
     inkscape:window-y="0"
     inkscape:window-maximized="1"
     fit-margin-top="0"
     fit-margin-left="0"
     fit-margin-right="0"
     fit-margin-bottom="0" />
  <metadata
     id="metadata5">
    <rdf:RDF>
      <cc:Work
         rdf:about="">
        <dc:format>image/svg+xml</dc:format>
        <dc:type
           rdf:resource="http://purl.org/dc/dcmitype/StillImage" />
        <dc:title></dc:title>
        <cc:license
           rdf:resource="http://creativecommons.org/publicdomain/zero/1.0/" />
      </cc:Work>
      <cc:License
         rdf:about="http://creativecommons.org/publicdomain/zero/1.0/">
        <cc:permits
           rdf:resource="http://creativecommons.org/ns#Reproduction" />
        <cc:permits
           rdf:resource="http://creativecommons.org/ns#Distribution" />
        <cc:permits
           rdf:resource="http://creativecommons.org/ns#DerivativeWorks" />
      </cc:License>
    </rdf:RDF>
  </metadata>
  <g
     inkscape:label="vertical"
     inkscape:groupmode="layer"
     id="layer1"
     transform="translate(3.2619452,-204.33165)"
     style="display:inline">
    <ellipse
       style="display:inline;fill:none;fill-opacity:1;stroke:#000080;stroke-width:1.38;stroke-miterlimit:4;stroke-dasharray:none;stroke-opacity:1"
       id="path4956-1-2"
       cx="-60.367577"
       cy="243.98712"
       rx="60.14975"
       ry="19.180185"
       transform="rotate(-29.398973)" />
    <ellipse
       style="display:inline;fill:none;fill-opacity:1;stroke:#000000;stroke-width:1.38015068;stroke-miterlimit:4;stroke-dasharray:none;stroke-opacity:1"
       id="path4937"
       cx="64.737419"
       cy="242.60239"
       rx="4.8390446"
       ry="37.580658" />
    <ellipse
       style="display:inline;fill:none;fill-opacity:1;stroke:#008000;stroke-width:1.38;stroke-miterlimit:4;stroke-dasharray:none;stroke-opacity:1"
       id="path4956-6-9"
       cx="167.26784"
       cy="189.20667"
       rx="58.186279"
       ry="22.971405"
       transform="rotate(26.300673)" />
    <ellipse
       style="display:inline;fill:none;fill-opacity:1;stroke:#ff0000;stroke-width:1.38;stroke-miterlimit:4;stroke-dasharray:none;stroke-opacity:1"
       id="path4956"
       cx="64.756203"
       cy="243.52048"
       rx="67.328148"
       ry="23.249731" />
    <path
       style="color:#000000;font-style:normal;font-variant:normal;font-weight:normal;font-stretch:normal;font-size:medium;line-height:normal;font-family:sans-serif;font-variant-ligatures:normal;font-variant-position:normal;font-variant-caps:normal;font-variant-numeric:normal;font-variant-alternates:normal;font-feature-settings:normal;text-indent:0;text-align:start;text-decoration:none;text-decoration-line:none;text-decoration-style:solid;text-decoration-color:#000000;letter-spacing:normal;word-spacing:normal;text-transform:none;writing-mode:lr-tb;direction:ltr;text-orientation:mixed;dominant-baseline:auto;baseline-shift:baseline;text-anchor:start;white-space:normal;shape-padding:0;clip-rule:nonzero;display:inline;overflow:visible;visibility:visible;opacity:1;isolation:auto;mix-blend-mode:normal;color-interpolation:sRGB;color-interpolation-filters:linearRGB;solid-color:#000000;solid-opacity:1;vector-effect:none;fill:#000080;fill-opacity:1;fill-rule:nonzero;stroke:none;stroke-width:5.21574783;stroke-linecap:butt;stroke-linejoin:miter;stroke-miterlimit:4;stroke-dasharray:none;stroke-dashoffset:0;stroke-opacity:1;color-rendering:auto;image-rendering:auto;shape-rendering:auto;text-rendering:auto;enable-background:accumulate"
       d="m 304,40.630859 c -15.71925,6.408858 -31.97299,13.832917 -48.5,22.22461 v 5.855469 C 272.02527,60.243927 288.28459,52.742541 304,46.269531 Z"
       transform="matrix(0.26458333,0,0,0.26458333,-2.9377947,204.38813)"
       id="ellipse5076"
       inkscape:connector-curvature="0" />
    <path
       style="display:inline;fill:#ff0000;fill-opacity:1;stroke-width:1.10344839"
       d="m 145.8174,92.424899 c -7.92851,-0.04848 -15.7391,3.868163 -21.81545,9.479401 -1.46696,1.35468 -3.99804,4.46093 -3.99804,4.46093 -4.61156,-4.37452 -8.87799,-10.827479 -15.22266,-12.587886 -8.614296,-2.390144 -19.031242,-0.885026 -26.519531,3.998047 -5.916077,3.857839 -11.237135,10.836399 -11.339844,17.898439 -0.426106,29.29821 0,78.81836 0,78.81836 h 24.75 V 126.5625 c 0,-1.47073 1.078302,-2.86373 2.183594,-3.83398 1.625183,-1.42662 3.843345,-2.45301 6.005859,-2.45313 2.163112,-1.2e-4 4.317592,1.10323 6.007812,2.45313 0.77987,0.62284 1.7168,1.45506 1.7168,2.45312 v 69.31055 h 25.44922 l 0.12627,-67.35221 c 0.004,-1.90983 1.15484,-3.85949 2.60381,-5.10367 1.84005,-1.57999 4.4825,-2.364 6.90664,-2.28857 1.80241,0.0561 3.69221,0.79691 5.01953,2.01758 1.65146,1.51875 3.02343,3.77003 3.02343,6.01367 v 66.7132 h 21.76954 c -0.0234,-79.62214 0.12917,-48.47739 -0.32913,-78.97707 -0.0776,-5.16119 -2.70968,-10.47045 -6.36183,-14.11814 -5.16466,-5.158342 -12.67669,-8.927451 -19.97602,-8.972081 z m 82.04393,-0.153415 c -10.08835,0.116388 -20.4708,2.118264 -27.88867,8.378906 -5.73808,4.84291 -9.90521,12.66992 -10.01368,20.17773 -0.60256,42.44468 -0.86523,73.66407 -0.86523,73.66407 h 29.38867 v -11.32031 -11.58594 l 8.82813,-0.21875 v -26.26367 l -8.79688,-0.0801 c 0,0 -0.003,-12.66624 0.95508,-18.73047 0.43515,-2.75277 3.97685,-4.94094 6.76367,-4.91406 2.98681,0.0288 7.12934,0.97532 7.14649,5.40625 0.15701,40.55633 0,67.70703 0,67.70703 h 29.24414 c 0,0 0.21028,-48.1734 -0.48828,-72.29688 -0.29248,-10.10025 -6.31508,-21.50298 -15.375,-26.124998 -6.29474,-2.950173 -12.7019,-3.934893 -18.89844,-3.798828 z m 87.72461,0 c -10.08836,0.11641 -20.47082,2.11827 -27.88867,8.378906 -4.69636,3.56443 -4.66211,7.88477 -4.66211,7.88477 v 85.95703 h 24.27539 c -1.055,-23.13804 0.16677,-45.49125 -0.11719,-68.19922 0.43517,-2.75274 3.97684,-4.94094 6.76367,-4.91406 2.98681,0.0302 7.12933,0.97532 7.14649,5.40625 0.15685,40.55633 0,67.70703 0,67.70703 h 29.24414 c 0,0 0.21013,-48.1734 -0.48828,-72.29688 -0.29254,-10.10026 -6.31506,-21.50298 -15.375,-26.124998 -6.29473,-2.950185 -12.70191,-3.934891 -18.89844,-3.798828 z m 91.03515,0 c -10.08835,0.11641 -20.4708,2.118271 -27.88867,8.378906 -5.73808,4.8429 -9.9052,12.6699 -10.01367,20.17773 -0.60256,42.44467 -0.86523,73.66407 -0.86523,73.66407 h 29.38867 v -11.32031 -11.58594 l 8.82812,-0.21875 v -26.26367 l -8.79687,-0.0801 c 0,0 -0.003,-12.66622 0.95508,-18.73047 0.43517,-2.75274 3.97683,-4.94094 6.76367,-4.91406 2.98681,0.0302 7.12932,0.97532 7.14648,5.40625 0.15685,40.55633 0,67.70703 0,67.70703 h 29.24414 c 0,0 0.21014,-48.1734 -0.48828,-72.29688 -0.29253,-10.10026 -6.31506,-21.50298 -15.375,-26.124998 -6.29473,-2.950184 -12.7019,-3.934891 -18.89844,-3.798828 z"
       transform="matrix(0.26458333,0,0,0.26458333,-2.9377947,204.38813)"
       id="path3889-5"
       inkscape:connector-curvature="0"
       sodipodi:nodetypes="ascaasccsaaasccsaaasccsaacsccccccccccsccsccccccccccccccccascccccccccccccccca" />
    <path
       style="color:#000000;font-style:normal;font-variant:normal;font-weight:normal;font-stretch:normal;font-size:medium;line-height:normal;font-family:sans-serif;font-variant-ligatures:normal;font-variant-position:normal;font-variant-caps:normal;font-variant-numeric:normal;font-variant-alternates:normal;font-feature-settings:normal;text-indent:0;text-align:start;text-decoration:none;text-decoration-line:none;text-decoration-style:solid;text-decoration-color:#000000;letter-spacing:normal;word-spacing:normal;text-transform:none;writing-mode:lr-tb;direction:ltr;text-orientation:mixed;dominant-baseline:auto;baseline-shift:baseline;text-anchor:start;white-space:normal;shape-padding:0;clip-rule:nonzero;display:inline;overflow:visible;visibility:visible;opacity:1;isolation:auto;mix-blend-mode:normal;color-interpolation:sRGB;color-interpolation-filters:linearRGB;solid-color:#000000;solid-opacity:1;vector-effect:none;fill:#000000;fill-opacity:1;fill-rule:nonzero;stroke:none;stroke-width:5.21631765;stroke-linecap:butt;stroke-linejoin:miter;stroke-miterlimit:4;stroke-dasharray:none;stroke-dashoffset:0;stroke-opacity:1;color-rendering:auto;image-rendering:auto;shape-rendering:auto;text-rendering:auto;enable-background:accumulate"
       d="m 265.3457,38.654297 c 0.26658,1.838926 0.52721,3.718035 0.7793,5.675781 1.34824,10.470624 2.47388,22.672846 3.34961,36.042969 h 5.22656 c -0.88342,-13.589618 -2.02341,-26.013278 -3.40039,-36.707031 -0.22103,-1.716541 -0.44781,-3.382552 -0.67969,-5.011719 z"
       transform="matrix(0.26458333,0,0,0.26458333,-2.9377947,204.38813)"
       id="ellipse5094"
       inkscape:connector-curvature="0" />
    <path
       style="color:#000000;font-style:normal;font-variant:normal;font-weight:normal;font-stretch:normal;font-size:medium;line-height:normal;font-family:sans-serif;font-variant-ligatures:normal;font-variant-position:normal;font-variant-caps:normal;font-variant-numeric:normal;font-variant-alternates:normal;font-feature-settings:normal;text-indent:0;text-align:start;text-decoration:none;text-decoration-line:none;text-decoration-style:solid;text-decoration-color:#000000;letter-spacing:normal;word-spacing:normal;text-transform:none;writing-mode:lr-tb;direction:ltr;text-orientation:mixed;dominant-baseline:auto;baseline-shift:baseline;text-anchor:start;white-space:normal;shape-padding:0;clip-rule:nonzero;display:inline;overflow:visible;visibility:visible;opacity:1;isolation:auto;mix-blend-mode:normal;color-interpolation:sRGB;color-interpolation-filters:linearRGB;solid-color:#000000;solid-opacity:1;vector-effect:none;fill:#008000;fill-opacity:1;fill-rule:nonzero;stroke:none;stroke-width:5.21574783;stroke-linecap:butt;stroke-linejoin:miter;stroke-miterlimit:4;stroke-dasharray:none;stroke-dashoffset:0;stroke-opacity:1;color-rendering:auto;image-rendering:auto;shape-rendering:auto;text-rendering:auto;enable-background:accumulate"
       d="m 129.63281,21.386719 c -13.5846,0.08563 -25.73344,1.640326 -36.068357,4.746093 -15.032598,4.517481 -26.34975,12.429917 -32.056641,23.976563 -5.706886,11.546683 -5.119471,25.345215 0.421876,40.03125 5.541346,14.686075 16.019354,30.425925 30.529296,46.453125 22.510536,24.86425 54.765906,50.41436 93.626956,73.24219 v -6.06446 C 148.78387,181.55495 117.85502,156.87802 96.322266,133.09375 82.116378,117.40247 72.013382,102.10198 66.806641,88.302734 61.599903,74.50349 61.269561,62.368306 66.185547,52.421875 71.101537,42.475406 80.941545,35.369674 95.066406,31.125 c 14.124864,-4.244674 32.416124,-5.511223 53.509764,-3.755859 42.18734,3.510689 95.54395,19.059409 149.73633,45.84375 2.0007,0.988838 3.98434,1.988903 5.95898,2.99414 h 11.31446 C 310.68325,73.600336 305.69608,71.039563 300.625,68.533203 245.9338,41.502324 192.10208,25.759655 149.01172,22.173828 c -6.73286,-0.560291 -13.20409,-0.82603 -19.37891,-0.787109 z"
       transform="matrix(0.26458333,0,0,0.26458333,-2.9377947,204.38813)"
       id="ellipse5069"
       inkscape:connector-curvature="0" />
    <path
       style="color:#000000;font-style:normal;font-variant:normal;font-weight:normal;font-stretch:normal;font-size:medium;line-height:normal;font-family:sans-serif;font-variant-ligatures:normal;font-variant-position:normal;font-variant-caps:normal;font-variant-numeric:normal;font-variant-alternates:normal;font-feature-settings:normal;text-indent:0;text-align:start;text-decoration:none;text-decoration-line:none;text-decoration-style:solid;text-decoration-color:#000000;letter-spacing:normal;word-spacing:normal;text-transform:none;writing-mode:lr-tb;direction:ltr;text-orientation:mixed;dominant-baseline:auto;baseline-shift:baseline;text-anchor:start;white-space:normal;shape-padding:0;clip-rule:nonzero;display:inline;overflow:visible;visibility:visible;opacity:1;isolation:auto;mix-blend-mode:normal;color-interpolation:sRGB;color-interpolation-filters:linearRGB;solid-color:#000000;solid-opacity:1;vector-effect:none;fill:#000000;fill-opacity:1;fill-rule:nonzero;stroke:none;stroke-width:5.21631765;stroke-linecap:butt;stroke-linejoin:miter;stroke-miterlimit:4;stroke-dasharray:none;stroke-dashoffset:0;stroke-opacity:1;color-rendering:auto;image-rendering:auto;shape-rendering:auto;text-rendering:auto;enable-background:accumulate"
       d="m 255,-0.14257812 c -2.2214,0.33158926 -3.85611,2.03416382 -5.11523,4.03515622 -1.40358,2.230526 -2.5881,5.1819658 -3.72071,8.9023439 -2.2652,7.440718 -4.23871,17.935925 -5.90429,30.871094 -3.33117,25.870299 -5.375,61.450464 -5.375,100.763674 0,39.31324 2.04383,74.89919 5.375,100.76953 1.66558,12.93517 3.63909,23.43037 5.90429,30.87109 1.13261,3.72038 2.31713,6.67182 3.72071,8.90235 1.25912,2.00096 2.89382,3.70357 5.11523,4.03515 v -5.85547 c -0.20411,-0.23518 -0.43449,-0.53437 -0.69922,-0.95507 -0.9776,-1.55358 -2.09098,-4.18133 -3.14648,-7.64844 -2.11101,-6.93423 -4.07658,-17.24518 -5.72071,-30.01367 -3.28825,-25.53699 -5.33593,-60.97376 -5.33593,-100.10547 0,-39.13172 2.04768,-74.562629 5.33593,-100.099612 1.64413,-12.768529 3.6097,-23.079448 5.72071,-30.013672 1.0555,-3.467112 2.16888,-6.0948247 3.14648,-7.6484372 0.26517,-0.421404 0.49489,-0.7228844 0.69922,-0.9589844 z"
       transform="matrix(0.26458333,0,0,0.26458333,-2.9377947,204.38813)"
       id="ellipse5059"
       inkscape:connector-curvature="0" />
    <path
       style="color:#000000;font-style:normal;font-variant:normal;font-weight:normal;font-stretch:normal;font-size:medium;line-height:normal;font-family:sans-serif;font-variant-ligatures:normal;font-variant-position:normal;font-variant-caps:normal;font-variant-numeric:normal;font-variant-alternates:normal;font-feature-settings:normal;text-indent:0;text-align:start;text-decoration:none;text-decoration-line:none;text-decoration-style:solid;text-decoration-color:#000000;letter-spacing:normal;word-spacing:normal;text-transform:none;writing-mode:lr-tb;direction:ltr;text-orientation:mixed;dominant-baseline:auto;baseline-shift:baseline;text-anchor:start;white-space:normal;shape-padding:0;clip-rule:nonzero;display:inline;overflow:visible;visibility:visible;opacity:1;isolation:auto;mix-blend-mode:normal;color-interpolation:sRGB;color-interpolation-filters:linearRGB;solid-color:#000000;solid-opacity:1;vector-effect:none;fill:#000080;fill-opacity:1;fill-rule:nonzero;stroke:none;stroke-width:5.21574783;stroke-linecap:butt;stroke-linejoin:miter;stroke-miterlimit:4;stroke-dasharray:none;stroke-dashoffset:0;stroke-opacity:1;color-rendering:auto;image-rendering:auto;shape-rendering:auto;text-rendering:auto;enable-background:accumulate"
       d="m 419.08984,12.054688 c -11.70482,0.07596 -25.0649,1.696196 -39.72851,4.736328 C 359.19695,20.971592 336.55518,27.878472 312.5,37.244141 v 5.599609 c 24.54364,-9.653328 47.58092,-16.728962 67.91797,-20.945312 20.95293,-4.344038 39.05755,-5.660841 52.88476,-3.8125 13.82718,1.848301 23.11347,6.75236 27.48438,14.509765 4.37091,7.757443 3.75619,18.246696 -1.82617,31.03125 -5.58229,12.784554 -16.0858,27.588218 -30.65625,43.259767 -29.14099,31.34309 -74.50255,66.20177 -129,96.9082 C 286.42312,211.053 273.61446,217.73468 261,223.85156 v 5.81446 c 13.44347,-6.45915 27.11759,-13.57705 40.86719,-21.32422 54.889,-30.92708 100.59396,-66.00084 130.25781,-97.90625 14.83192,-15.952749 25.66544,-31.101054 31.61328,-44.722659 5.94784,-13.621644 7.05145,-25.996916 1.5957,-35.679688 -5.45574,-9.682809 -16.60927,-15.143958 -31.34179,-17.113281 -4.60392,-0.615414 -9.58197,-0.899761 -14.90235,-0.865234 z"
       transform="matrix(0.26458333,0,0,0.26458333,-2.9377947,204.38813)"
       id="path5083"
       inkscape:connector-curvature="0" />
  </g>
</svg>
