<?xml version="1.0" encoding="UTF-8" standalone="no"?>
<!-- Created with Inkscape (http://www.inkscape.org/) -->

<svg
   xmlns:dc="http://purl.org/dc/elements/1.1/"
   xmlns:cc="http://creativecommons.org/ns#"
   xmlns:rdf="http://www.w3.org/1999/02/22-rdf-syntax-ns#"
   xmlns:svg="http://www.w3.org/2000/svg"
   xmlns="http://www.w3.org/2000/svg"
   xmlns:sodipodi="http://sodipodi.sourceforge.net/DTD/sodipodi-0.dtd"
   xmlns:inkscape="http://www.inkscape.org/namespaces/inkscape"
   version="1.1"
   id="svg4485"
   width="321.82919"
   height="138.24002"
   viewBox="0 0 321.82919 138.24003"
   sodipodi:docname="nnci-stacked.svg"
   inkscape:version="0.92.1 r15371">
  <metadata
     id="metadata4491">
    <rdf:RDF>
      <cc:Work
         rdf:about="">
        <dc:format>image/svg+xml</dc:format>
        <dc:type
           rdf:resource="http://purl.org/dc/dcmitype/StillImage" />
        <dc:title />
      </cc:Work>
    </rdf:RDF>
  </metadata>
  <defs
     id="defs4489" />
  <sodipodi:namedview
     pagecolor="#ffffff"
     bordercolor="#666666"
     borderopacity="1"
     objecttolerance="10"
     gridtolerance="10"
     guidetolerance="10"
     inkscape:pageopacity="0"
     inkscape:pageshadow="2"
     inkscape:window-width="944"
     inkscape:window-height="1001"
     id="namedview4487"
     showgrid="false"
     fit-margin-top="0"
     fit-margin-left="0"
     fit-margin-right="0"
     fit-margin-bottom="0"
     inkscape:zoom="3.1630024"
     inkscape:cx="74.055782"
     inkscape:cy="70.877117"
     inkscape:window-x="960"
     inkscape:window-y="0"
     inkscape:window-maximized="0"
     inkscape:current-layer="svg4485" />
  <path
     style="fill:#009a66;stroke-width:0.32000002;fill-opacity:1"
     d="m 56.603051,134.72002 v -3.52 h 3.52 3.52 v 3.52 3.52 h -3.52 -3.52 z m 99.961609,-6.04849 c -4.74613,-2.77207 -5.30055,-9.30602 -1.09507,-12.90575 2.77752,-2.37745 6.88034,-2.46207 9.46221,-0.19516 l 1.11126,0.9757 v -1.15315 c 0,-1.10455 0.0472,-1.15315 1.12,-1.15315 h 1.12 v 7.52 7.52 h -1.12 c -1.02939,0 -1.12,-0.0771 -1.12,-0.95341 v -0.9534 l -1.46431,1.03213 c -1.29397,0.91208 -1.74995,1.04325 -3.92,1.12764 -2.23847,0.087 -2.60063,0.0108 -4.09409,-0.86145 z m 6.62807,-1.73534 c 3.292,-1.73627 4.09954,-5.98216 1.68379,-8.85312 -1.1697,-1.39011 -2.3762,-1.92305 -4.35352,-1.92305 -4.20367,0 -6.86295,4.27318 -5.07811,8.16 1.41096,3.07263 4.74673,4.199 7.74784,2.61617 z m 7.23417,1.99375 c -1.5313,-0.80809 -1.78103,-1.43495 -0.91621,-2.29978 l 0.67656,-0.67655 0.74328,0.69828 c 2.23718,2.10172 6.164,0.0826 4.57016,-2.34987 -0.27036,-0.41263 -1.46493,-1.32032 -2.6546,-2.01711 -2.39786,-1.40441 -3.28303,-2.58128 -3.28303,-4.36489 0,-3.1943 3.29046,-4.94637 6.35415,-3.38339 1.84517,0.94133 2.15294,1.44933 1.38044,2.27851 l -0.63859,0.68544 -0.908,-0.65519 c -1.43595,-1.03614 -2.41128,-1.13942 -3.40185,-0.36023 -1.6915,1.33052 -1.07568,2.43155 2.57933,4.61165 2.18782,1.30497 2.95452,2.39051 2.95452,4.18321 0,3.54797 -3.96831,5.49053 -7.45616,3.64992 z m 25.53616,0.21835 c -2.54017,-1.12898 -3.39073,-3.1923 -3.60627,-8.74827 l -0.1645,-4.24 h -1.01883 c -1.0609,0 -1.9657,0.73805 -2.7461,2.24 -0.26718,0.51421 -0.46801,2.60046 -0.56219,5.84 l -0.1465,5.04 h -1.07781 -1.0778 v -6.56 -6.56 h -1.28 -1.28 v 6.56 6.56 h -1.12 -1.12 v -6.5416 -6.5416 l -1.36,-0.0984 c -1.2111,-0.0876 -1.36,-0.186 -1.36,-0.8984 0,-0.71241 0.1489,-0.81078 1.36,-0.8984 l 1.36,-0.0984 v -2.72188 -2.72187 l 1.04,0.10027 1.04,0.10028 0.0929,2.64 0.0929,2.64 h 2.38706 c 2.32757,0 2.38706,0.0198 2.38706,0.7934 v 0.79341 l 1.40323,-0.98909 c 1.32356,-0.93293 1.51434,-0.9762 3.36,-0.76199 l 1.95677,0.22711 0.0139,4.20858 c 0.0179,5.41397 0.29196,6.82552 1.54191,7.94235 1.31325,1.17339 2.91413,1.44248 4.61796,0.77623 2.40707,-0.94125 2.61022,-1.50726 2.73846,-7.63 l 0.11226,-5.36 h 1.12466 1.12466 l -0.12339,5.3811 c -0.11428,4.98398 -0.18253,5.49602 -0.92477,6.93835 -1.09639,2.13049 -2.82309,3.0452 -5.71602,3.02802 -1.16032,-0.007 -2.54167,-0.20453 -3.06967,-0.4392 z m 15.34692,-0.30567 c -2.80517,-1.30626 -4.40453,-3.83371 -4.38593,-6.93103 0.0335,-5.58981 5.3284,-9.20872 11.04277,-7.5475 1.75534,0.51029 4.07624,2.24151 4.07624,3.04057 0,0.20299 -0.35386,0.53031 -0.78635,0.72736 -0.68795,0.31345 -0.92892,0.2331 -1.92586,-0.64224 -1.40239,-1.23131 -2.1817,-1.43909 -4.7776,-1.2738 -1.5804,0.10063 -2.28139,0.31866 -3.14675,0.97869 -1.42406,1.0862 -2.28214,2.89048 -2.25808,4.74807 0.0677,5.22523 6.29663,7.60478 10.54003,4.02645 l 1.00538,-0.84781 0.75462,0.64223 0.75461,0.64224 -1.33596,1.21923 c -1.59567,1.45624 -3.15125,1.97602 -5.90117,1.97181 -1.46715,-0.002 -2.49747,-0.21481 -3.65595,-0.75427 z m 22.51883,0.10883 c -2.57072,-1.35797 -3.14575,-3.1237 -3.14575,-9.65946 v -5.09252 l 1.04,0.10027 1.04,0.10028 0.16,5.29588 c 0.13326,4.41099 0.25773,5.44474 0.74489,6.18673 0.79092,1.20465 2.56649,1.91255 4.15854,1.65797 1.70683,-0.27294 2.38007,-0.6798 3.11249,-1.881 0.54809,-0.89888 0.62183,-1.63516 0.62288,-6.21958 l 0.001,-5.2 h 1.12 1.12 l -0.002,4.88 c -0.003,6.68466 -0.59926,8.51411 -3.21242,9.84724 -1.68237,0.85829 -5.12054,0.85024 -6.76004,-0.0158 z m 21.97425,0.20414 c -3.68771,-1.61099 -5.50931,-6.21802 -4.01949,-10.16571 2.64764,-7.01566 12.50225,-6.66268 14.59107,0.52263 0.28808,0.99093 0.44384,2.01 0.34614,2.2646 -0.147,0.38308 -1.31068,0.46291 -6.74768,0.46291 -5.04645,0 -6.56841,0.0928 -6.56301,0.4 0.0133,0.75529 1.18903,2.96044 1.95075,3.65868 1.65632,1.51827 4.03648,1.78974 6.25895,0.71385 1.14448,-0.55403 1.69144,-1.09063 2.83829,-2.78451 0.15812,-0.23354 1.74498,0.71744 1.74498,1.04575 0,0.72041 -2.38097,3.14074 -3.66214,3.72267 -1.54911,0.70362 -5.28926,0.79196 -6.73786,0.15913 z m 8.48,-9.26825 c 0,-0.7877 -1.42249,-2.53298 -2.55501,-3.13481 -1.55954,-0.82874 -4.24855,-0.79084 -5.65717,0.0797 -0.89,0.55006 -2.34782,2.60842 -2.34782,3.31501 0,0.095 2.376,0.17275 5.28,0.17275 4.22334,0 5.28,-0.0866 5.28,-0.43268 z M 53.883051,128.95153 C 30.264227,126.29008 10.423292,110.42608 3.0495891,88.307161 0.94524219,81.994751 0.25963119,78.057631 0.05172619,71.091951 -0.15636981,64.119821 0.23698919,60.134771 1.7151661,54.240001 5.8603251,37.709661 16.789587,23.809621 32.0036,15.718591 47.728871,7.35566 67.093661,6.52753 83.439691,13.518931 c 6.56041,2.80597 11.533745,5.96281 16.981159,10.77887 3.23319,2.85846 8.9822,9.44335 8.9822,10.28817 0,0.31202 -4.93943,3.81403 -5.37951,3.81403 -0.17714,0 -1.08107,-0.972 -2.00874,-2.16 -7.886834,-10.10011 -18.769349,-16.81116 -31.619249,-19.49903 -3.48016,-0.72796 -4.84337,-0.84644 -9.9525,-0.86497 -6.24378,-0.0226 -8.46871,0.23824 -13.92,1.63229 -3.766807,0.96328 -6.77226,2.10904 -10.679076,4.07116 l -2.840935,1.4268 -1.015075,-1.26312 c -1.006448,-1.25239 -1.033981,-1.26313 -3.239994,-1.26313 H 26.52305 v 3.50238 3.50239 l -1.505864,1.37761 c -0.828225,0.75769 -2.446931,2.36554 -3.597124,3.573 -18.9915009,19.93698 -19.5183059,51.07478 -1.216203,71.885989 1.314979,1.49526 2.734743,3.00889 3.155031,3.36363 5.61781,4.74165 9.119568,7.13483 13.537274,9.25169 8.110502,3.88635 16.293967,5.57156 25.306887,5.21139 7.60107,-0.30374 14.03643,-1.91447 21.08014,-5.27619 l 3.80014,-1.81368 0.99986,1.19092 c 0.98491,1.17311 1.03456,1.19092 3.31986,1.1909 l 2.320005,-10e-6 v -3.5278 -3.5278 l 3.1938,-3.06548 c 1.75659,-1.68602 3.951104,-4.05851 4.876704,-5.27221 0.9256,-1.21369 1.80486,-2.206714 1.95391,-2.206714 0.44507,0 5.07187,3.294344 5.2392,3.730384 0.36272,0.94524 -6.4216,8.52054 -10.783614,12.04088 -8.432135,6.80509 -17.928185,11.04869 -28.800005,12.87014 -3.67127,0.61508 -11.99575,0.86724 -15.52,0.47011 z m 67.359999,-9.75151 v -10.08 h 1.12 1.12 v 10.08 10.08 h -1.12 -1.12 z m 4.16,2.56 v -7.52 h 1.12 c 1.07799,0 1.12,0.0444 1.12,1.18277 v 1.18277 l 1.04,-0.97986 c 3.25546,-3.06719 8.34655,-1.79026 9.50592,2.38425 0.18178,0.65454 0.33132,3.45807 0.3323,6.23007 l 0.002,5.04 h -1.12 -1.12 v -5.13028 c 0,-6.05063 -0.28263,-7.09936 -2.12021,-7.86715 -2.18013,-0.91091 -4.37856,-0.0401 -5.7329,2.27094 -0.73902,1.26104 -0.78689,1.62814 -0.78689,6.0346 v 4.69189 h -1.12 -1.12 z m 15.68,0.96 v -6.56 h -0.96 c -0.85333,0 -0.96,-0.10667 -0.96,-0.96 0,-0.84313 0.11154,-0.96 0.91619,-0.96 0.89716,0 0.91966,-0.0432 1.08315,-2.07992 0.0918,-1.14396 0.39845,-2.43323 0.68139,-2.86505 0.58223,-0.8886 2.1809,-1.31292 3.69426,-0.98053 0.86149,0.18922 0.98501,0.35109 0.98501,1.2908 0,1.04874 -0.0267,1.07012 -1.11729,0.89315 -1.56967,-0.25472 -2.08271,0.28246 -2.08271,2.18073 v 1.56082 h 2.56 2.56 v 0.85578 0.85578 l 0.72,-0.65579 c 1.45077,-1.32139 3.28274,-1.7691 4.38522,-1.07168 0.39873,0.25223 0.40243,0.41159 0.0259,1.1151 -0.34859,0.65135 -0.68087,0.82081 -1.60944,0.82081 -0.80584,0 -1.37431,0.22416 -1.82593,0.72 -1.36108,1.49433 -1.51373,2.17943 -1.64,7.36 l -0.12283,5.04 h -1.08645 -1.08647 v -6.56 -6.56 h -1.44 -1.44 v 6.56 6.56 h -1.12 -1.12 z m 84.16001,0 v -6.56 h -1.28 c -1.20889,0 -1.28,-0.0533 -1.28,-0.96 0,-0.90667 0.0711,-0.96 1.28,-0.96 h 1.28 v -2.72 -2.72 h 1.12 1.12 v 2.72 2.72 h 1.44 c 1.38666,0 1.44,0.0356 1.44,0.96 0,0.92444 -0.0533,0.96 -1.44,0.96 h -1.44 v 6.56 6.56 h -1.12 -1.12 z m 19.84,-0.96 v -7.52 h 1.12 c 0.99158,0 1.12,0.095 1.12,0.82844 v 0.82845 l 0.95827,-0.80633 c 1.23178,-1.03647 2.03675,-1.28024 3.38955,-1.02646 1.23271,0.23126 1.29699,0.38109 0.59403,1.3847 -0.3435,0.49042 -0.82569,0.7112 -1.55327,0.7112 -1.35,0 -2.58591,1.12203 -3.04092,2.76073 -0.18925,0.6816 -0.3449,3.29127 -0.34588,5.79927 l -0.002,4.56 h -1.12 -1.12 z m -187.440009,-1.35149 -1.04,-0.12906 v -20.03306 c 0,-11.018189 0.0688,-19.964239 0.15295,-19.880119 0.0841,0.0841 1.66665,1.87213 3.51672,3.97334 l 3.36376,3.82038 0.003,16.035429 0.003,16.03543 -1.68,0.2018 c -1.7194,0.20652 -2.49633,0.20218 -4.32,-0.0241 z m -19.911342,-40.168519 0.0087,-35.28001 1.031341,1.13805 c 1.409018,1.55479 9.301141,10.62901 11.271341,12.95959 0.88,1.04096 2.11924,2.47084 2.75387,3.17751 0.63463,0.70667 3.71192,4.23686 6.83842,7.84486 3.1265,3.608 6.44106,7.424 7.36569,8.48 0.92464,1.056 3.24735,3.73454 5.16159,5.95232 1.91424,2.21779 5.49643,6.34925 7.96043,9.18103 l 4.48,5.148703 0.0819,-26.061033 0.0819,-26.06103 h 3.51813 3.518135 v 34.40001 34.400009 h -0.912895 c -0.79423,0 -1.80009,-1.02369 -7.73868,-7.87583 -3.75419,-4.3317 -6.98115,-8.039706 -7.17102,-8.240006 -0.18989,-0.20029 -3.79423,-4.324173 -8.00966,-9.164173 -4.21543,-4.84 -9.42391,-10.816 -11.5744,-13.28 -4.73761,-5.42829 -4.64743,-5.32461 -6.83336,-7.8566 -0.968,-1.12124 -2.36867,-2.6922 -3.11259,-3.49101 l -1.352578,-1.45239 -0.0074,25.68 -0.0074,25.680009 h -3.68 -3.68 l 0.0087,-35.280009 z m 89.751341,15.63238 c -2.05457,-0.64978 -3.16721,-1.34142 -4.4601,-2.7725 -1.67295,-1.85175 -2.49625,-3.87589 -2.67038,-6.56528 -0.29567,-4.56657 1.62618,-8.07338 5.51027,-10.0546 2.05799,-1.04977 2.38835,-1.12 5.26795,-1.12 2.64099,0 3.32145,0.11687 4.84739,0.83259 0.97631,0.45793 2.30334,1.39248 2.94895,2.07679 l 1.17383,1.2442 -0.86896,0.70069 -0.86895,0.7007 -1.12,-1.06223 c -1.93226,-1.83259 -3.05182,-2.2469 -6.08,-2.24998 -2.3936,-0.003 -2.89957,0.1028 -4.21644,0.87692 -5.90362,3.47044 -5.74443,11.77021 0.28425,14.82045 3.11457,1.57583 7.24638,1.08674 9.79868,-1.15988 l 1.38005,-1.21477 0.89663,0.71495 0.89662,0.71494 -1.51282,1.33164 c -2.09036,1.84002 -4.37055,2.63837 -7.45897,2.61158 -1.3574,-0.0118 -3.044,-0.20357 -3.748,-0.42621 z m 18.136,-0.0923 c -2.78728,-0.98563 -4.83626,-3.98705 -4.84897,-7.10295 -0.01,-2.3345 0.52884,-3.96027 1.80521,-5.45142 1.51791,-1.77333 3.5304,-2.66818 5.97143,-2.65517 2.38873,0.0127 3.96824,0.64098 5.45168,2.16844 2.20739,2.27287 2.86233,4.93287 1.97281,8.01243 -1.26331,4.37357 -5.87274,6.61265 -10.35216,5.02867 z m 6.1597,-2.57215 c 1.57238,-1.17949 2.2643,-2.62424 2.2643,-4.72793 0,-2.23275 -0.76097,-3.68234 -2.59154,-4.93667 -2.31945,-1.58932 -5.53493,-0.9632 -7.36317,1.43374 -0.82334,1.07946 -0.92529,1.4682 -0.92529,3.52832 0,2.1068 0.0888,2.4259 0.98623,3.54491 1.76921,2.206 5.48108,2.76921 7.62947,1.15763 z m 10.28281,2.65423 c -2.67175,-0.99335 -4.43501,-3.09372 -5.0434,-6.00764 -1.28456,-6.15253 5.41089,-11.33094 11.09355,-8.58001 5.72311,2.77051 5.80946,11.32991 0.14386,14.25971 -1.44999,0.74982 -4.60939,0.91709 -6.19401,0.32794 z m 5.19739,-2.23175 c 2.127,-1.10668 3.39138,-3.82446 2.9365,-6.31202 -0.51111,-2.79505 -3.52021,-5.02183 -6.2358,-4.6146 -2.52927,0.37929 -4.9566,3.11266 -4.9566,5.58154 0,1.99621 1.21298,4.07075 3.04001,5.1993 1.16333,0.71858 3.9645,0.79688 5.21589,0.14578 z m 17.26701,2.25375 c -2.65467,-0.99069 -4.39313,-2.93557 -5.0421,-5.64079 -1.76088,-7.34018 7.1314,-12.82526 12.5592,-7.74697 l 0.88,0.82334 v -4.05987 -4.05987 h 0.96 0.96 v 10.4 10.40001 h -0.96 c -0.89249,0 -0.96,-0.0827 -0.96,-1.17578 v -1.17579 l -0.72,0.65835 c -1.88567,1.72421 -5.36697,2.43949 -7.6771,1.57737 z m 4.0771,-1.84225 c 1.83148,-0.50728 3.026,-1.46355 3.71026,-2.97025 1.70965,-3.76454 -0.60916,-7.97484 -4.64251,-8.42945 -2.74696,-0.30962 -5.59598,1.90322 -6.11154,4.74684 -0.47249,2.6061 1.30996,5.63433 3.84379,6.53027 1.57639,0.5574 1.62362,0.55921 3.2,0.12259 z m 31.24386,1.83997 c -4.62289,-1.67295 -6.593,-7.69144 -3.86561,-11.80904 2.42826,-3.666 7.2505,-4.63139 10.78175,-2.15844 l 1.36,0.95241 v -0.9534 c 0,-0.87627 0.0906,-0.95341 1.12,-0.95341 h 1.12 v 7.52 7.52001 h -1.12 c -1.03111,0 -1.12,-0.0762 -1.12,-0.96 0,-1.1635 -0.12625,-1.17993 -1.32375,-0.1723 -1.65384,1.39162 -4.68681,1.83405 -6.95239,1.01417 z m 5.75841,-2.5069 c 2.06291,-1.15443 3.13355,-3.91676 2.49735,-6.44334 -0.46075,-1.82978 -2.55845,-3.9061 -4.2709,-4.22736 -4.47948,-0.84036 -8.2494,3.79182 -6.46688,7.946 1.39984,3.26235 5.09587,4.48444 8.24043,2.7247 z m 18.44063,2.48969 c -1.81946,-0.64938 -2.61996,-1.27953 -3.70355,-2.91544 -2.72959,-4.12094 -1.08996,-10.01588 3.29536,-11.84776 1.77988,-0.74351 4.88117,-0.68064 6.47254,0.13122 2.48564,1.26808 4.24578,3.97076 4.25096,6.52731 l 0.002,0.88 h -6.56 c -6.44968,0 -6.56,0.0113 -6.56,0.67164 0,1.0398 0.93869,2.77355 1.97278,3.64367 2.3302,1.96073 5.5278,1.67238 7.84033,-0.70704 1.23156,-1.26718 1.43464,-1.36627 2.09531,-1.02237 0.40237,0.20944 0.78766,0.42937 0.8562,0.48874 0.16777,0.14531 -1.54629,2.38631 -2.35655,3.08101 -1.56963,1.34576 -5.34346,1.87623 -7.60517,1.06902 z m 7.85973,-9.70467 c -1.09414,-3.10584 -5.53149,-4.59725 -8.07493,-2.71401 -0.84465,0.62541 -2.2677,2.50884 -2.2677,3.00134 0,0.14997 2.37148,0.27267 5.26996,0.27267 4.88082,0 5.25539,-0.0414 5.07267,-0.56 z m 7.63969,9.33113 c -7.40753,-3.69133 -4.90698,-14.89684 3.32428,-14.89684 1.83192,0 4.14405,0.84588 4.9334,1.80486 0.43399,0.52725 0.49534,0.21785 0.64,-3.228 l 0.16,-3.81115 1.04,-0.10027 1.04,-0.10028 v 10.44055 10.44056 l -1.04,-0.10028 c -0.92912,-0.0896 -1.03995,-0.20643 -1.03956,-1.09587 l 3.2e-4,-0.99561 -1.03979,0.79309 c -2.41824,1.84448 -5.39,2.15921 -8.01876,0.84924 z m 6.43349,-2.14623 c 1.54562,-0.86512 2.43812,-2.31023 2.67808,-4.33623 0.52378,-4.42257 -4.07081,-7.73684 -8.0531,-5.80905 -4.66056,2.25614 -4.23505,8.94726 0.68313,10.74209 1.47285,0.5375 3.01602,0.3412 4.69189,-0.59681 z m -92.89581,-4.8649 v -7.52 h 1.12 c 0.90666,0 1.12,0.12191 1.12,0.64 0,0.352 0.144,0.64 0.32,0.64 0.176,0 0.32,-0.11295 0.32,-0.251 0,-0.50212 1.99551,-1.413 3.09554,-1.413 1.53645,0 1.89656,0.43334 1.21921,1.4671 -0.4212,0.64283 -0.71893,0.78781 -1.31212,0.63893 -1.07903,-0.27082 -2.29685,0.62486 -3.02242,2.22292 -0.50876,1.12053 -0.60729,2.11919 -0.61319,6.21506 l -0.007,4.88 h -1.12 -1.12 z m 23.68,0 v -7.52 h 0.96 0.96 v 7.52 7.52001 h -0.96 -0.96 z m 3.73333,7.30667 c -0.11733,-0.11733 -0.21333,-3.50133 -0.21333,-7.52 v -7.30667 h 1.12 c 1.07131,0 1.12,0.0498 1.12,1.14494 v 1.14494 l 1.31639,-1.12679 c 2.78976,-2.38793 6.55913,-2.04602 8.67416,0.78683 0.84062,1.12592 1.24679,4.30491 1.14097,8.93009 l -0.0915,4 -1.00801,0.0979 -1.008,0.0979 -0.112,-5.53789 c -0.10444,-5.16468 -0.16141,-5.60717 -0.84523,-6.56587 -1.32193,-1.85334 -4.39503,-1.82242 -6.28064,0.0632 -1.39387,1.39387 -1.78612,3.1904 -1.78612,8.18054 v 3.82425 h -0.90667 c -0.49867,0 -1.00267,-0.096 -1.12,-0.21334 z m 33.38667,-6.34667 v -6.56 h -1.28 c -1.20889,0 -1.28,-0.0533 -1.28,-0.96 0,-0.90509 0.0725,-0.96 1.26754,-0.96 h 1.26754 l 0.0925,-2.8 0.0925,-2.8 h 0.96 0.96 l 0.0924,2.8 0.0925,2.8 h 1.60879 c 1.56627,0 1.60612,0.0233 1.50754,0.88 -0.0927,0.80588 -0.22928,0.88822 -1.62125,0.97754 l -1.52,0.0975 v 6.54246 6.54247 h -1.12 -1.12 z M 73.723051,83.249771 c -4.576,-5.25009 -14.944,-17.13967 -23.04,-26.42128 l -14.720001,-16.87567 -0.0819,25.6236 -0.0819,25.6236 H 32.121146 28.44305 v -34.40001 -34.4 h 0.777871 c 0.620644,0 2.360929,1.82721 8.609937,9.04 4.307639,4.972 8.097593,9.34189 8.422133,9.71086 0.32453,0.36898 2.31806,2.66161 4.43006,5.09475 2.112,2.43314 5.856,6.74404 8.32,9.57977 2.464,2.83573 6.784,7.80913 9.6,11.052 2.816,3.24287 5.51178,6.33409 5.99062,6.86937 l 0.87062,0.97326 0.009,-26.16001 0.009,-26.16 h 3.52 3.52 v 35.2 c 0,19.36001 -0.108,35.19896 -0.24,35.19769 -0.132,-0.001 -3.984,-4.29784 -8.56,-9.54793 z m 122.784009,-5.55375 c -0.2112,-0.2112 -0.384,-0.7584 -0.384,-1.216 0,-1.05753 0.54247,-1.6 1.6,-1.6 1.05752,0 1.6,0.54247 1.6,1.6 0,1.05752 -0.54248,1.6 -1.6,1.6 -0.4576,0 -1.0048,-0.1728 -1.216,-0.384 z m 101.46579,-9.5723 c -2.07385,-0.26251 -4.30182,-1.53458 -5.18194,-2.95865 -0.90248,-1.46024 -0.84272,-1.80505 0.31281,-1.80505 0.70623,0 1.21696,0.28082 1.82506,1.00351 1.67599,1.9918 5.09916,2.50153 7.76647,1.15649 1.58943,-0.80151 2.23476,-1.84423 2.47824,-4.00431 l 0.15837,-1.4051 -1.4546,1.0253 c -1.20299,0.84794 -1.83938,1.05282 -3.67913,1.18446 -1.27871,0.0915 -2.70017,0.002 -3.34324,-0.21005 -1.57887,-0.52107 -3.75335,-2.4825 -4.44827,-4.01245 -0.77556,-1.70748 -0.77817,-4.72433 -0.006,-6.41786 2.14358,-4.69852 8.37861,-6.04963 12.12198,-2.62678 l 0.72,0.65835 v -1.17579 c 0,-1.13608 0.0388,-1.17578 1.14907,-1.17578 h 1.14907 l -0.12003,7.76 c -0.12844,8.30426 -0.30416,9.2997 -1.95338,11.06604 -1.51929,1.62718 -4.28963,2.3434 -7.49494,1.93767 z m 4.04721,-8.15184 c 3.7671,-1.50729 4.38728,-7.11902 1.06668,-9.65177 -1.61192,-1.22948 -4.33662,-1.38851 -6.16671,-0.35995 -3.92493,2.20594 -3.85656,8.09944 0.11489,9.90274 1.63245,0.74124 3.31315,0.77798 4.98514,0.10898 z m 10.1542,4.57759 1.44658,-3.29055 -2.90889,-6.56423 c -1.59989,-3.61033 -2.90889,-6.74671 -2.90889,-6.96973 0,-0.26345 0.3571,-0.37037 1.01944,-0.30522 0.99031,0.0974 1.08759,0.25346 3.40395,5.46027 1.31148,2.948 2.47273,5.35726 2.58056,5.35391 0.10783,-0.003 1.23057,-2.41535 2.49498,-5.36 l 2.29893,-5.35391 1.18371,-0.10186 c 0.92425,-0.0795 1.14493,-9.6e-4 1.00688,0.35889 -0.0973,0.25341 -2.09643,4.87111 -4.44263,10.26155 l -4.26582,9.8008 -1.17769,3.1e-4 -1.17769,3.2e-4 z m -168.15277,-2.11419 c -4.52853,-1.57429 -6.57629,-6.71665 -4.38788,-11.01891 2.29744,-4.51662 7.50479,-5.70782 11.53009,-2.63757 l 1.11935,0.85377 v -1.15656 c 0,-1.11207 0.04,-1.1527 1.04,-1.05628 l 1.04,0.10027 0.0859,7.44 0.0859,7.44001 h -1.1259 c -1.03766,0 -1.1259,-0.0752 -1.1259,-0.96001 0,-1.06231 -0.34372,-1.22256 -0.97941,-0.45661 -1.3619,1.641 -4.77861,2.32221 -7.28215,1.45189 z m 5.64635,-2.51251 c 3.45956,-2.24322 3.51524,-7.41862 0.10436,-9.69885 -1.33442,-0.89208 -1.69005,-0.98338 -3.42276,-0.87878 -1.36835,0.0826 -2.23578,0.3319 -2.96724,0.85275 -2.74504,1.95464 -3.10778,6.59348 -0.7036,8.99766 1.84117,1.84117 4.79697,2.14872 6.98924,0.72722 z m 26.93522,2.77257 c -1.93527,-0.38727 -3.77933,-1.74268 -4.95243,-3.64014 -0.85397,-1.38127 -0.96757,-1.84973 -0.96757,-3.9901 0,-2.92231 0.83132,-4.68967 2.97345,-6.32144 5.20714,-3.96655 12.52178,-0.2928 12.53639,6.29634 0.0113,5.10651 -4.46602,8.68066 -9.58984,7.65534 z m 3.73916,-2.23569 c 3.71749,-1.40457 4.83865,-6.45306 2.08048,-9.36822 -1.24155,-1.31221 -2.37915,-1.81159 -4.12375,-1.81023 -5.08927,0.004 -7.39776,6.56633 -3.56687,10.13958 1.41461,1.31948 3.73178,1.74856 5.61014,1.03887 z m 19.67979,2.24181 c -1.83505,-0.36576 -3.30828,-1.31458 -4.31658,-2.78006 -1.18513,-1.72247 -1.50237,-2.75325 -1.50237,-4.8814 0,-3.09009 1.32667,-5.51587 3.81754,-6.98023 1.2401,-0.72905 1.82736,-0.8588 3.86246,-0.85341 2.71109,0.007 3.6651,0.39528 5.50193,2.23828 1.21925,1.22334 2.17807,3.42986 2.17807,5.01237 v 0.90299 h -6.60187 -6.60187 l 0.18657,1.14975 c 0.748,4.60935 7.01513,5.80213 9.99036,1.9014 0.82709,-1.08438 0.87525,-1.10185 1.76655,-0.64093 l 0.91629,0.47383 -0.66802,1.1322 c -1.57889,2.67603 -5.03192,4.02225 -8.52906,3.32521 z m 7.08368,-9.82146 c -0.1085,-0.308 -0.55497,-1.04328 -0.99214,-1.63395 -2.02552,-2.73672 -6.72247,-2.60532 -8.62412,0.24128 -1.30009,1.94612 -1.28484,1.95267 4.54358,1.95267 4.88083,0 5.25539,-0.0414 5.07268,-0.56 z m 8.85737,9.65656 c -2.29596,-0.62665 -3.79369,-1.84509 -4.88,-3.96998 -2.73397,-5.3478 1.25421,-11.52658 7.44,-11.52658 1.92105,0 4.44974,0.92312 5.70696,2.08338 0.97919,0.90367 1.11449,1.17792 0.81874,1.65959 -0.54286,0.88413 -1.3817,0.8794 -2.31734,-0.0131 -1.12448,-1.07257 -2.31201,-1.48991 -4.23947,-1.48991 -2.06412,0 -3.41539,0.58733 -4.68927,2.0382 -1.23329,1.40464 -1.48783,2.27497 -1.28443,4.39175 0.46774,4.86793 6.71524,6.82992 10.49864,3.29704 0.75507,-0.70507 0.86481,-0.72423 1.52,-0.26532 0.9183,0.6432 0.89061,0.95508 -0.17383,1.95817 -2.0074,1.89169 -5.44479,2.6433 -8.4,1.83671 z m 46.56,0.28889 c -2.96265,-0.68115 -4.67089,-1.98216 -5.80758,-4.42312 -1.403,-3.01281 -0.87874,-6.28078 1.41726,-8.83448 4.16167,-4.62878 11.83289,-2.47844 13.21664,3.70478 0.78296,3.49862 -0.86445,7.19602 -3.86928,8.68409 -1.4633,0.72468 -3.80138,1.13442 -4.95704,0.86873 z m 3.46522,-2.46193 c 2.12169,-0.8865 3.63901,-3.64006 3.31929,-6.02371 -0.19599,-1.4612 -1.46116,-3.52697 -2.62852,-4.29186 -0.92422,-0.60557 -3.25709,-0.94246 -4.45108,-0.64279 -1.03219,0.25906 -2.9571,1.93815 -3.56126,3.10645 -0.59135,1.14355 -0.59806,3.9029 -0.0122,5.02429 0.58045,1.11107 2.04634,2.49906 3.06857,2.90547 1.15739,0.46016 3.06072,0.42542 4.26522,-0.0779 z m 15.61326,2.33783 c -1.56097,-0.31425 -2.64916,-0.93887 -3.8077,-2.18562 -3.52259,-3.79081 -2.64935,-9.82469 1.80043,-12.44053 1.26888,-0.74592 1.84329,-0.87426 3.88879,-0.86884 2.6419,0.007 3.62675,0.38567 5.38952,2.07231 1.53861,1.47215 2.27512,3.30794 2.28345,5.69161 0.008,2.3535 -0.46667,3.65358 -1.95294,5.34637 -1.77776,2.02478 -4.75302,2.95815 -7.60155,2.3847 z m 4.4524,-2.62135 c 3.7997,-1.91784 3.88446,-7.91307 0.1426,-10.08671 -1.01679,-0.59065 -1.63806,-0.71731 -3.08219,-0.62837 -2.21231,0.13625 -3.73182,1.16913 -4.71853,3.20742 -0.82328,1.70066 -0.84487,3.18226 -0.0709,4.86766 1.41973,3.09174 4.64884,4.1947 7.72905,2.64 z m -164.81089,-7.76 c 0,-5.86697 0.12213,-10.08 0.29219,-10.08 0.1607,0 3.2207,3.38309 6.8,7.51797 l 6.50781,7.51796 0.0858,-7.51796 0.0858,-7.51797 h 1.11421 1.1142 v 10.08 c 0,8.29612 -0.0772,10.08001 -0.43613,10.08001 -0.23988,0 -2.14788,-1.97389 -4.24,-4.38642 -2.09213,-2.41253 -4.99187,-5.73129 -6.44387,-7.37504 l -2.64,-2.98863 v 7.37504 7.37505 h -1.12 -1.12 z m 35.2,2.56 v -7.56055 l 1.04,0.10028 c 0.86659,0.0836 1.05689,0.24701 1.14126,0.98027 0.0909,0.78987 0.69874,1.30193 0.69874,0.58863 0,-0.51649 3.28892,-1.94863 4.47503,-1.94863 1.41113,0 3.7672,1.16165 4.5432,2.24 0.86254,1.1986 1.22178,3.75186 1.22178,8.68368 v 4.43633 h -1.12 -1.12 v -4.97028 c 0,-6.9017 -0.55565,-8.11987 -3.71268,-8.13955 -1.17472,-0.007 -1.93767,0.19296 -2.72,0.71405 -1.82162,1.2133 -2.1612,2.34931 -2.27059,7.59577 l -0.0967,4.64001 -1.04,0.10027 -1.04,0.10028 z m 32.64001,0.96 v -6.56 h -1.28 c -1.20889,0 -1.28,-0.0533 -1.28,-0.96 0,-0.90666 0.0711,-0.96 1.28,-0.96 h 1.28 v -2.72 -2.72 h 1.12 1.12 v 2.72 2.72 h 1.44 c 1.38666,0 1.44,0.0356 1.44,0.96 0,0.92445 -0.0533,0.96 -1.44,0.96 h -1.44 v 6.56 6.56001 h -1.12 -1.12 z m 37.76,-3.86027 v -10.42028 l 1.04,0.10028 1.04,0.10027 0.16,3.94742 0.16,3.94741 0.76821,-0.81936 c 1.72066,-1.83522 5.47807,-2.31248 7.32857,-0.93088 2.22903,1.66421 2.60531,3.0475 2.61558,9.61541 l 0.008,4.88001 h -1.12 -1.12 v -5.15164 c 0,-6.834 -0.55041,-8.0217 -3.71744,-8.0217 -1.80608,0 -3.47,1.02058 -4.29251,2.63283 -0.54122,1.06089 -0.63005,1.891 -0.63005,5.88776 v 4.65275 h -1.12 -1.12 z m 14.7941,2.98027 0.0859,-7.44 1.04,-0.10027 c 0.99981,-0.0964 1.04,-0.0556 1.04,1.05508 v 1.15535 l 1.2,-0.95863 c 3.25074,-2.59688 7.61035,-1.88113 9.11818,1.49701 0.57375,1.28543 0.69625,2.31305 0.81916,6.87146 l 0.14451,5.36001 h -1.16092 -1.16093 l -0.002,-4.72001 c -0.002,-5.30755 -0.28942,-6.79918 -1.49239,-7.74544 -1.24598,-0.98009 -3.72138,-0.90171 -5.11596,0.16198 -1.87649,1.43128 -2.14827,2.33081 -2.29119,7.58346 l -0.12843,4.72001 h -1.09102 -1.09102 l 0.0859,-7.44001 z m 30.9659,-2.98027 v -10.42028 l 1.04,0.10028 1.04,0.10027 0.0844,10.32 0.0844,10.32001 h -1.12444 -1.12443 z m -212.623559,2.05937 -3.37645,-3.8809 v -16.1191 -16.1191 h 3.52 3.52 v 20 c 0,11 -0.0646,20 -0.14355,20 -0.079,0 -1.66295,-1.7464 -3.52,-3.8809 z m 83.823549,-24.99085 c -1.71976,-0.61129 -3.4192,-2.22023 -4.24091,-4.01509 -0.66235,-1.44676 -0.76793,-2.09118 -0.66772,-4.07565 0.10077,-1.99545 0.26693,-2.5676 1.08277,-3.72841 1.55011,-2.20553 3.31315,-3.25631 5.7208,-3.40961 2.43266,-0.15491 4.0115,0.30719 5.49251,1.60754 l 1.09255,0.95927 v -1.17342 c 0,-1.1311 0.0375,-1.16981 1.04,-1.07315 l 1.04,0.10027 v 7.36 7.36 l -1.04,0.10028 c -1.00629,0.097 -1.04,0.0614 -1.04,-1.09987 v -1.20015 l -0.88,0.8429 c -1.76481,1.6904 -5.11675,2.32775 -7.6,1.44509 z m 5.58898,-2.32255 c 3.42964,-1.77353 3.87153,-7.30113 0.77818,-9.73436 -3.62682,-2.85286 -9.08716,-0.25994 -9.08716,4.31515 0,2.86901 0.96767,4.48933 3.36,5.62622 1.44111,0.68485 3.38126,0.60369 4.94898,-0.20701 z m 22.13489,2.27618 c -5.35141,-1.93659 -6.69929,-9.54264 -2.3654,-13.34785 1.61712,-1.41985 2.94482,-1.89513 5.27126,-1.887 2.47461,0.009 4.19506,0.7389 5.65305,2.39947 1.4762,1.6813 2.00364,3.099 2.01704,5.42157 0.0197,3.41373 -2.16868,6.59197 -5.15494,7.48668 -1.54735,0.46359 -4.03084,0.43021 -5.42101,-0.0729 z m 5.42696,-2.29782 c 3.54523,-1.83331 4.03899,-6.91822 0.92612,-9.53753 -2.33012,-1.96066 -5.48988,-1.76811 -7.50018,0.45705 -4.34647,4.81103 0.87729,12.0264 6.57406,9.08048 z m 25.40918,2.12316 c -2.96718,-1.38792 -4.62324,-3.97304 -4.62985,-7.22722 -0.004,-2.14457 0.95969,-4.61905 2.26749,-5.82014 2.80798,-2.57882 7.69035,-2.66573 10.28236,-0.18301 l 0.88,0.84289 v -1.17987 c 0,-1.13509 0.0425,-1.17987 1.12,-1.17987 h 1.12 v 7.52 7.52 h -1.12 c -1.07749,0 -1.12,-0.0448 -1.12,-1.17987 v -1.17987 l -0.88,0.8429 c -1.92921,1.84786 -5.42978,2.38888 -7.92,1.22406 z m 5.45323,-1.90871 c 1.44129,-0.65469 2.92316,-2.23428 3.22526,-3.43795 0.10907,-0.43456 0.13404,-1.56508 0.0555,-2.51225 -0.2532,-3.05328 -2.46674,-5.08871 -5.53398,-5.08871 -3.13037,0 -5.30737,2.05137 -5.53634,5.21683 -0.20182,2.79014 1.00427,4.84917 3.46586,5.91686 1.48222,0.6429 2.76144,0.61486 4.32371,-0.0948 z m -86.57324,-7.87851 c 0,-7.85374 0.0884,-10.0787213 0.4,-10.0742313 0.22,0.003 0.9002,0.615171 1.51156,1.3600013 0.61135,0.74483 3.49135,4.08487 6.4,7.42231 l 5.28844,6.06808 0.0859,-7.42808 0.0859,-7.4280813 h 1.1141 1.1141 V 19.040001 c 0,7.85318 -0.0884,10.07896 -0.4,10.0753 -0.22,-0.003 -3.28,-3.31853 -6.8,-7.36876 l -6.4,-7.36405 -0.0859,7.36876 -0.0859,7.36875 h -1.1141 -1.11411 z m 36.8,3.54028 v -6.58028 h -1.28 c -1.20888,0 -1.28,-0.0533 -1.28,-0.96 0,-0.90667 0.0711,-0.96 1.28,-0.96 h 1.28 v -2.72 -2.7200013 h 1.12 1.12 v 2.7200013 2.72 h 1.44001 c 1.38666,0 1.44,0.0356 1.44,0.96 0,0.92445 -0.0533,0.96 -1.44,0.96 -1.35506,0 -1.44062,0.0519 -1.4504,0.88 -0.006,0.484 -0.0417,3.4 -0.08,6.48 l -0.0696,5.6 -1.04,0.10028 -1.04,0.10027 z m 5.44001,-0.98028 v -7.56055 l 1.04,0.10028 1.04,0.10027 v 7.36 7.36 l -1.04,0.10028 -1.04,0.10027 z m 19.84,0 v -7.52 h 1.12 c 1.07366,0 1.12,0.0479 1.12,1.15797 v 1.15797 l 1.01338,-0.99077 c 1.31081,-1.28156 2.79627,-1.75347 4.95575,-1.57439 2.1127,0.1752 3.22267,0.92097 4.19087,2.81576 0.66486,1.30117 0.72,1.83426 0.72,6.96154 v 5.55247 l -1.04,-0.10027 -1.04,-0.10028 -0.16,-5.70714 -0.16,-5.70715 -1.04505,-0.93285 c -1.86166,-1.6618 -4.81789,-1.0116 -6.42351,1.4128 -0.81346,1.22829 -0.85629,1.5044 -0.96016,6.18999 l -0.10872,4.90435 h -1.09128 -1.09128 z m 31.68,-2.88 V 8.3199997 h 1.12 1.12 v 10.4000013 10.4 h -1.12 -1.12 z m -51.22027,-7.62812 c -1.61324,-0.80008 -0.86191,-3.2392413 0.93308,-3.0292513 1.01763,0.11905 1.75315,1.381451 1.29914,2.2297713 -0.49731,0.92923 -1.35279,1.23562 -2.23222,0.79948 z M 56.603051,3.52 V 0 h 3.52 3.52 v 3.52 3.52 h -3.52 -3.52 z"
     id="path4495"
     inkscape:connector-curvature="0" />
</svg>
